<?xml version="1.0" encoding="utf-8" standalone="no"?>
<!DOCTYPE svg PUBLIC "-//W3C//DTD SVG 1.1//EN"
  "http://www.w3.org/Graphics/SVG/1.1/DTD/svg11.dtd">
<svg xmlns:xlink="http://www.w3.org/1999/xlink" width="425.582187pt" height="286.251875pt" viewBox="0 0 425.582187 286.251875" xmlns="http://www.w3.org/2000/svg" version="1.1">
 <metadata>
  <rdf:RDF xmlns:dc="http://purl.org/dc/elements/1.1/" xmlns:cc="http://creativecommons.org/ns#" xmlns:rdf="http://www.w3.org/1999/02/22-rdf-syntax-ns#">
   <cc:Work>
    <dc:type rdf:resource="http://purl.org/dc/dcmitype/StillImage"/>
    <dc:date>2026-06-09T00:41:41.333554</dc:date>
    <dc:format>image/svg+xml</dc:format>
    <dc:creator>
     <cc:Agent>
      <dc:title>Matplotlib v3.7.2, https://matplotlib.org/</dc:title>
     </cc:Agent>
    </dc:creator>
   </cc:Work>
  </rdf:RDF>
 </metadata>
 <defs>
  <style type="text/css">*{stroke-linejoin: round; stroke-linecap: butt}</style>
 </defs>
 <g id="figure_1">
  <g id="patch_1">
   <path d="M 0 286.251875 
L 425.582187 286.251875 
L 425.582187 0 
L 0 0 
z
" style="fill: #ffffff"/>
  </g>
  <g id="axes_1">
   <g id="patch_2">
    <path d="M 44.555938 246.76 
L 415.200938 246.76 
L 415.200938 57.84 
L 44.555938 57.84 
z
" style="fill: #ffffff"/>
   </g>
   <g id="matplotlib.axis_1">
    <g id="xtick_1">
     <g id="line2d_1">
      <path d="M 44.555937 246.76 
L 44.555937 57.84 
" clip-path="url(#p2cca95945c)" style="fill: none; stroke: #b0b0b0; stroke-width: 0.8; stroke-linecap: square"/>
     </g>
     <g id="line2d_2">
      <defs>
       <path id="me6b153d53d" d="M 0 0 
L 0 3.5 
" style="stroke: #000000; stroke-width: 0.8"/>
      </defs>
      <g>
       <use xlink:href="#me6b153d53d" x="44.555937" y="246.76" style="stroke: #000000; stroke-width: 0.8"/>
      </g>
     </g>
     <g id="text_1">
      <!-- −2 -->
      <g transform="translate(37.184844 261.358437) scale(0.1 -0.1)">
       <defs>
        <path id="DejaVuSans-2212" d="M 678 2272 
L 4684 2272 
L 4684 1741 
L 678 1741 
L 678 2272 
z
" transform="scale(0.015625)"/>
        <path id="DejaVuSans-32" d="M 1228 531 
L 3431 531 
L 3431 0 
L 469 0 
L 469 531 
Q 828 903 1448 1529 
Q 2069 2156 2228 2338 
Q 2531 2678 2651 2914 
Q 2772 3150 2772 3378 
Q 2772 3750 2511 3984 
Q 2250 4219 1831 4219 
Q 1534 4219 1204 4116 
Q 875 4013 500 3803 
L 500 4441 
Q 881 4594 1212 4672 
Q 1544 4750 1819 4750 
Q 2544 4750 2975 4387 
Q 3406 4025 3406 3419 
Q 3406 3131 3298 2873 
Q 3191 2616 2906 2266 
Q 2828 2175 2409 1742 
Q 1991 1309 1228 531 
z
" transform="scale(0.015625)"/>
       </defs>
       <use xlink:href="#DejaVuSans-2212"/>
       <use xlink:href="#DejaVuSans-32" x="83.789062"/>
      </g>
     </g>
    </g>
    <g id="xtick_2">
     <g id="line2d_3">
      <path d="M 106.330104 246.76 
L 106.330104 57.84 
" clip-path="url(#p2cca95945c)" style="fill: none; stroke: #b0b0b0; stroke-width: 0.8; stroke-linecap: square"/>
     </g>
     <g id="line2d_4">
      <g>
       <use xlink:href="#me6b153d53d" x="106.330104" y="246.76" style="stroke: #000000; stroke-width: 0.8"/>
      </g>
     </g>
     <g id="text_2">
      <!-- −1 -->
      <g transform="translate(98.95901 261.358437) scale(0.1 -0.1)">
       <defs>
        <path id="DejaVuSans-31" d="M 794 531 
L 1825 531 
L 1825 4091 
L 703 3866 
L 703 4441 
L 1819 4666 
L 2450 4666 
L 2450 531 
L 3481 531 
L 3481 0 
L 794 0 
L 794 531 
z
" transform="scale(0.015625)"/>
       </defs>
       <use xlink:href="#DejaVuSans-2212"/>
       <use xlink:href="#DejaVuSans-31" x="83.789062"/>
      </g>
     </g>
    </g>
    <g id="xtick_3">
     <g id="line2d_5">
      <path d="M 168.104271 246.76 
L 168.104271 57.84 
" clip-path="url(#p2cca95945c)" style="fill: none; stroke: #b0b0b0; stroke-width: 0.8; stroke-linecap: square"/>
     </g>
     <g id="line2d_6">
      <g>
       <use xlink:href="#me6b153d53d" x="168.104271" y="246.76" style="stroke: #000000; stroke-width: 0.8"/>
      </g>
     </g>
     <g id="text_3">
      <!-- 0 -->
      <g transform="translate(164.923021 261.358437) scale(0.1 -0.1)">
       <defs>
        <path id="DejaVuSans-30" d="M 2034 4250 
Q 1547 4250 1301 3770 
Q 1056 3291 1056 2328 
Q 1056 1369 1301 889 
Q 1547 409 2034 409 
Q 2525 409 2770 889 
Q 3016 1369 3016 2328 
Q 3016 3291 2770 3770 
Q 2525 4250 2034 4250 
z
M 2034 4750 
Q 2819 4750 3233 4129 
Q 3647 3509 3647 2328 
Q 3647 1150 3233 529 
Q 2819 -91 2034 -91 
Q 1250 -91 836 529 
Q 422 1150 422 2328 
Q 422 3509 836 4129 
Q 1250 4750 2034 4750 
z
" transform="scale(0.015625)"/>
       </defs>
       <use xlink:href="#DejaVuSans-30"/>
      </g>
     </g>
    </g>
    <g id="xtick_4">
     <g id="line2d_7">
      <path d="M 229.878437 246.76 
L 229.878437 57.84 
" clip-path="url(#p2cca95945c)" style="fill: none; stroke: #b0b0b0; stroke-width: 0.8; stroke-linecap: square"/>
     </g>
     <g id="line2d_8">
      <g>
       <use xlink:href="#me6b153d53d" x="229.878437" y="246.76" style="stroke: #000000; stroke-width: 0.8"/>
      </g>
     </g>
     <g id="text_4">
      <!-- 1 -->
      <g transform="translate(226.697187 261.358437) scale(0.1 -0.1)">
       <use xlink:href="#DejaVuSans-31"/>
      </g>
     </g>
    </g>
    <g id="xtick_5">
     <g id="line2d_9">
      <path d="M 291.652604 246.76 
L 291.652604 57.84 
" clip-path="url(#p2cca95945c)" style="fill: none; stroke: #b0b0b0; stroke-width: 0.8; stroke-linecap: square"/>
     </g>
     <g id="line2d_10">
      <g>
       <use xlink:href="#me6b153d53d" x="291.652604" y="246.76" style="stroke: #000000; stroke-width: 0.8"/>
      </g>
     </g>
     <g id="text_5">
      <!-- 2 -->
      <g transform="translate(288.471354 261.358437) scale(0.1 -0.1)">
       <use xlink:href="#DejaVuSans-32"/>
      </g>
     </g>
    </g>
    <g id="xtick_6">
     <g id="line2d_11">
      <path d="M 353.426771 246.76 
L 353.426771 57.84 
" clip-path="url(#p2cca95945c)" style="fill: none; stroke: #b0b0b0; stroke-width: 0.8; stroke-linecap: square"/>
     </g>
     <g id="line2d_12">
      <g>
       <use xlink:href="#me6b153d53d" x="353.426771" y="246.76" style="stroke: #000000; stroke-width: 0.8"/>
      </g>
     </g>
     <g id="text_6">
      <!-- 3 -->
      <g transform="translate(350.245521 261.358437) scale(0.1 -0.1)">
       <defs>
        <path id="DejaVuSans-33" d="M 2597 2516 
Q 3050 2419 3304 2112 
Q 3559 1806 3559 1356 
Q 3559 666 3084 287 
Q 2609 -91 1734 -91 
Q 1441 -91 1130 -33 
Q 819 25 488 141 
L 488 750 
Q 750 597 1062 519 
Q 1375 441 1716 441 
Q 2309 441 2620 675 
Q 2931 909 2931 1356 
Q 2931 1769 2642 2001 
Q 2353 2234 1838 2234 
L 1294 2234 
L 1294 2753 
L 1863 2753 
Q 2328 2753 2575 2939 
Q 2822 3125 2822 3475 
Q 2822 3834 2567 4026 
Q 2313 4219 1838 4219 
Q 1578 4219 1281 4162 
Q 984 4106 628 3988 
L 628 4550 
Q 988 4650 1302 4700 
Q 1616 4750 1894 4750 
Q 2613 4750 3031 4423 
Q 3450 4097 3450 3541 
Q 3450 3153 3228 2886 
Q 3006 2619 2597 2516 
z
" transform="scale(0.015625)"/>
       </defs>
       <use xlink:href="#DejaVuSans-33"/>
      </g>
     </g>
    </g>
    <g id="xtick_7">
     <g id="line2d_13">
      <path d="M 415.200937 246.76 
L 415.200937 57.84 
" clip-path="url(#p2cca95945c)" style="fill: none; stroke: #b0b0b0; stroke-width: 0.8; stroke-linecap: square"/>
     </g>
     <g id="line2d_14">
      <g>
       <use xlink:href="#me6b153d53d" x="415.200937" y="246.76" style="stroke: #000000; stroke-width: 0.8"/>
      </g>
     </g>
     <g id="text_7">
      <!-- 4 -->
      <g transform="translate(412.019687 261.358437) scale(0.1 -0.1)">
       <defs>
        <path id="DejaVuSans-34" d="M 2419 4116 
L 825 1625 
L 2419 1625 
L 2419 4116 
z
M 2253 4666 
L 3047 4666 
L 3047 1625 
L 3713 1625 
L 3713 1100 
L 3047 1100 
L 3047 0 
L 2419 0 
L 2419 1100 
L 313 1100 
L 313 1709 
L 2253 4666 
z
" transform="scale(0.015625)"/>
       </defs>
       <use xlink:href="#DejaVuSans-34"/>
      </g>
     </g>
    </g>
    <g id="text_8">
     <!-- Time (s) -->
     <g transform="translate(205.48375 276.55625) scale(0.12 -0.12)">
      <defs>
       <path id="DejaVuSans-54" d="M -19 4666 
L 3928 4666 
L 3928 4134 
L 2272 4134 
L 2272 0 
L 1638 0 
L 1638 4134 
L -19 4134 
L -19 4666 
z
" transform="scale(0.015625)"/>
       <path id="DejaVuSans-69" d="M 603 3500 
L 1178 3500 
L 1178 0 
L 603 0 
L 603 3500 
z
M 603 4863 
L 1178 4863 
L 1178 4134 
L 603 4134 
L 603 4863 
z
" transform="scale(0.015625)"/>
       <path id="DejaVuSans-6d" d="M 3328 2828 
Q 3544 3216 3844 3400 
Q 4144 3584 4550 3584 
Q 5097 3584 5394 3201 
Q 5691 2819 5691 2113 
L 5691 0 
L 5113 0 
L 5113 2094 
Q 5113 2597 4934 2840 
Q 4756 3084 4391 3084 
Q 3944 3084 3684 2787 
Q 3425 2491 3425 1978 
L 3425 0 
L 2847 0 
L 2847 2094 
Q 2847 2600 2669 2842 
Q 2491 3084 2119 3084 
Q 1678 3084 1418 2786 
Q 1159 2488 1159 1978 
L 1159 0 
L 581 0 
L 581 3500 
L 1159 3500 
L 1159 2956 
Q 1356 3278 1631 3431 
Q 1906 3584 2284 3584 
Q 2666 3584 2933 3390 
Q 3200 3197 3328 2828 
z
" transform="scale(0.015625)"/>
       <path id="DejaVuSans-65" d="M 3597 1894 
L 3597 1613 
L 953 1613 
Q 991 1019 1311 708 
Q 1631 397 2203 397 
Q 2534 397 2845 478 
Q 3156 559 3463 722 
L 3463 178 
Q 3153 47 2828 -22 
Q 2503 -91 2169 -91 
Q 1331 -91 842 396 
Q 353 884 353 1716 
Q 353 2575 817 3079 
Q 1281 3584 2069 3584 
Q 2775 3584 3186 3129 
Q 3597 2675 3597 1894 
z
M 3022 2063 
Q 3016 2534 2758 2815 
Q 2500 3097 2075 3097 
Q 1594 3097 1305 2825 
Q 1016 2553 972 2059 
L 3022 2063 
z
" transform="scale(0.015625)"/>
       <path id="DejaVuSans-20" transform="scale(0.015625)"/>
       <path id="DejaVuSans-28" d="M 1984 4856 
Q 1566 4138 1362 3434 
Q 1159 2731 1159 2009 
Q 1159 1288 1364 580 
Q 1569 -128 1984 -844 
L 1484 -844 
Q 1016 -109 783 600 
Q 550 1309 550 2009 
Q 550 2706 781 3412 
Q 1013 4119 1484 4856 
L 1984 4856 
z
" transform="scale(0.015625)"/>
       <path id="DejaVuSans-73" d="M 2834 3397 
L 2834 2853 
Q 2591 2978 2328 3040 
Q 2066 3103 1784 3103 
Q 1356 3103 1142 2972 
Q 928 2841 928 2578 
Q 928 2378 1081 2264 
Q 1234 2150 1697 2047 
L 1894 2003 
Q 2506 1872 2764 1633 
Q 3022 1394 3022 966 
Q 3022 478 2636 193 
Q 2250 -91 1575 -91 
Q 1294 -91 989 -36 
Q 684 19 347 128 
L 347 722 
Q 666 556 975 473 
Q 1284 391 1588 391 
Q 1994 391 2212 530 
Q 2431 669 2431 922 
Q 2431 1156 2273 1281 
Q 2116 1406 1581 1522 
L 1381 1569 
Q 847 1681 609 1914 
Q 372 2147 372 2553 
Q 372 3047 722 3315 
Q 1072 3584 1716 3584 
Q 2034 3584 2315 3537 
Q 2597 3491 2834 3397 
z
" transform="scale(0.015625)"/>
       <path id="DejaVuSans-29" d="M 513 4856 
L 1013 4856 
Q 1481 4119 1714 3412 
Q 1947 2706 1947 2009 
Q 1947 1309 1714 600 
Q 1481 -109 1013 -844 
L 513 -844 
Q 928 -128 1133 580 
Q 1338 1288 1338 2009 
Q 1338 2731 1133 3434 
Q 928 4138 513 4856 
z
" transform="scale(0.015625)"/>
      </defs>
      <use xlink:href="#DejaVuSans-54"/>
      <use xlink:href="#DejaVuSans-69" x="57.958984"/>
      <use xlink:href="#DejaVuSans-6d" x="85.742188"/>
      <use xlink:href="#DejaVuSans-65" x="183.154297"/>
      <use xlink:href="#DejaVuSans-20" x="244.677734"/>
      <use xlink:href="#DejaVuSans-28" x="276.464844"/>
      <use xlink:href="#DejaVuSans-73" x="315.478516"/>
      <use xlink:href="#DejaVuSans-29" x="367.578125"/>
     </g>
    </g>
   </g>
   <g id="matplotlib.axis_2">
    <g id="ytick_1">
     <g id="line2d_15">
      <path d="M 44.555938 240.414121 
L 415.200938 240.414121 
" clip-path="url(#p2cca95945c)" style="fill: none; stroke: #b0b0b0; stroke-width: 0.8; stroke-linecap: square"/>
     </g>
     <g id="line2d_16">
      <defs>
       <path id="m2d26f63e0a" d="M 0 0 
L -3.5 0 
" style="stroke: #000000; stroke-width: 0.8"/>
      </defs>
      <g>
       <use xlink:href="#m2d26f63e0a" x="44.555938" y="240.414121" style="stroke: #000000; stroke-width: 0.8"/>
      </g>
     </g>
     <g id="text_9">
      <!-- −6 -->
      <g transform="translate(22.81375 244.21334) scale(0.1 -0.1)">
       <defs>
        <path id="DejaVuSans-36" d="M 2113 2584 
Q 1688 2584 1439 2293 
Q 1191 2003 1191 1497 
Q 1191 994 1439 701 
Q 1688 409 2113 409 
Q 2538 409 2786 701 
Q 3034 994 3034 1497 
Q 3034 2003 2786 2293 
Q 2538 2584 2113 2584 
z
M 3366 4563 
L 3366 3988 
Q 3128 4100 2886 4159 
Q 2644 4219 2406 4219 
Q 1781 4219 1451 3797 
Q 1122 3375 1075 2522 
Q 1259 2794 1537 2939 
Q 1816 3084 2150 3084 
Q 2853 3084 3261 2657 
Q 3669 2231 3669 1497 
Q 3669 778 3244 343 
Q 2819 -91 2113 -91 
Q 1303 -91 875 529 
Q 447 1150 447 2328 
Q 447 3434 972 4092 
Q 1497 4750 2381 4750 
Q 2619 4750 2861 4703 
Q 3103 4656 3366 4563 
z
" transform="scale(0.015625)"/>
       </defs>
       <use xlink:href="#DejaVuSans-2212"/>
       <use xlink:href="#DejaVuSans-36" x="83.789062"/>
      </g>
     </g>
    </g>
    <g id="ytick_2">
     <g id="line2d_17">
      <path d="M 44.555938 216.270874 
L 415.200938 216.270874 
" clip-path="url(#p2cca95945c)" style="fill: none; stroke: #b0b0b0; stroke-width: 0.8; stroke-linecap: square"/>
     </g>
     <g id="line2d_18">
      <g>
       <use xlink:href="#m2d26f63e0a" x="44.555938" y="216.270874" style="stroke: #000000; stroke-width: 0.8"/>
      </g>
     </g>
     <g id="text_10">
      <!-- −4 -->
      <g transform="translate(22.81375 220.070093) scale(0.1 -0.1)">
       <use xlink:href="#DejaVuSans-2212"/>
       <use xlink:href="#DejaVuSans-34" x="83.789062"/>
      </g>
     </g>
    </g>
    <g id="ytick_3">
     <g id="line2d_19">
      <path d="M 44.555938 192.127627 
L 415.200938 192.127627 
" clip-path="url(#p2cca95945c)" style="fill: none; stroke: #b0b0b0; stroke-width: 0.8; stroke-linecap: square"/>
     </g>
     <g id="line2d_20">
      <g>
       <use xlink:href="#m2d26f63e0a" x="44.555938" y="192.127627" style="stroke: #000000; stroke-width: 0.8"/>
      </g>
     </g>
     <g id="text_11">
      <!-- −2 -->
      <g transform="translate(22.81375 195.926845) scale(0.1 -0.1)">
       <use xlink:href="#DejaVuSans-2212"/>
       <use xlink:href="#DejaVuSans-32" x="83.789062"/>
      </g>
     </g>
    </g>
    <g id="ytick_4">
     <g id="line2d_21">
      <path d="M 44.555938 167.984379 
L 415.200938 167.984379 
" clip-path="url(#p2cca95945c)" style="fill: none; stroke: #b0b0b0; stroke-width: 0.8; stroke-linecap: square"/>
     </g>
     <g id="line2d_22">
      <g>
       <use xlink:href="#m2d26f63e0a" x="44.555938" y="167.984379" style="stroke: #000000; stroke-width: 0.8"/>
      </g>
     </g>
     <g id="text_12">
      <!-- 0 -->
      <g transform="translate(31.193438 171.783598) scale(0.1 -0.1)">
       <use xlink:href="#DejaVuSans-30"/>
      </g>
     </g>
    </g>
    <g id="ytick_5">
     <g id="line2d_23">
      <path d="M 44.555938 143.841132 
L 415.200938 143.841132 
" clip-path="url(#p2cca95945c)" style="fill: none; stroke: #b0b0b0; stroke-width: 0.8; stroke-linecap: square"/>
     </g>
     <g id="line2d_24">
      <g>
       <use xlink:href="#m2d26f63e0a" x="44.555938" y="143.841132" style="stroke: #000000; stroke-width: 0.8"/>
      </g>
     </g>
     <g id="text_13">
      <!-- 2 -->
      <g transform="translate(31.193438 147.640351) scale(0.1 -0.1)">
       <use xlink:href="#DejaVuSans-32"/>
      </g>
     </g>
    </g>
    <g id="ytick_6">
     <g id="line2d_25">
      <path d="M 44.555938 119.697885 
L 415.200938 119.697885 
" clip-path="url(#p2cca95945c)" style="fill: none; stroke: #b0b0b0; stroke-width: 0.8; stroke-linecap: square"/>
     </g>
     <g id="line2d_26">
      <g>
       <use xlink:href="#m2d26f63e0a" x="44.555938" y="119.697885" style="stroke: #000000; stroke-width: 0.8"/>
      </g>
     </g>
     <g id="text_14">
      <!-- 4 -->
      <g transform="translate(31.193438 123.497103) scale(0.1 -0.1)">
       <use xlink:href="#DejaVuSans-34"/>
      </g>
     </g>
    </g>
    <g id="ytick_7">
     <g id="line2d_27">
      <path d="M 44.555938 95.554637 
L 415.200938 95.554637 
" clip-path="url(#p2cca95945c)" style="fill: none; stroke: #b0b0b0; stroke-width: 0.8; stroke-linecap: square"/>
     </g>
     <g id="line2d_28">
      <g>
       <use xlink:href="#m2d26f63e0a" x="44.555938" y="95.554637" style="stroke: #000000; stroke-width: 0.8"/>
      </g>
     </g>
     <g id="text_15">
      <!-- 6 -->
      <g transform="translate(31.193438 99.353856) scale(0.1 -0.1)">
       <use xlink:href="#DejaVuSans-36"/>
      </g>
     </g>
    </g>
    <g id="ytick_8">
     <g id="line2d_29">
      <path d="M 44.555938 71.41139 
L 415.200938 71.41139 
" clip-path="url(#p2cca95945c)" style="fill: none; stroke: #b0b0b0; stroke-width: 0.8; stroke-linecap: square"/>
     </g>
     <g id="line2d_30">
      <g>
       <use xlink:href="#m2d26f63e0a" x="44.555938" y="71.41139" style="stroke: #000000; stroke-width: 0.8"/>
      </g>
     </g>
     <g id="text_16">
      <!-- 8 -->
      <g transform="translate(31.193438 75.210609) scale(0.1 -0.1)">
       <defs>
        <path id="DejaVuSans-38" d="M 2034 2216 
Q 1584 2216 1326 1975 
Q 1069 1734 1069 1313 
Q 1069 891 1326 650 
Q 1584 409 2034 409 
Q 2484 409 2743 651 
Q 3003 894 3003 1313 
Q 3003 1734 2745 1975 
Q 2488 2216 2034 2216 
z
M 1403 2484 
Q 997 2584 770 2862 
Q 544 3141 544 3541 
Q 544 4100 942 4425 
Q 1341 4750 2034 4750 
Q 2731 4750 3128 4425 
Q 3525 4100 3525 3541 
Q 3525 3141 3298 2862 
Q 3072 2584 2669 2484 
Q 3125 2378 3379 2068 
Q 3634 1759 3634 1313 
Q 3634 634 3220 271 
Q 2806 -91 2034 -91 
Q 1263 -91 848 271 
Q 434 634 434 1313 
Q 434 1759 690 2068 
Q 947 2378 1403 2484 
z
M 1172 3481 
Q 1172 3119 1398 2916 
Q 1625 2713 2034 2713 
Q 2441 2713 2670 2916 
Q 2900 3119 2900 3481 
Q 2900 3844 2670 4047 
Q 2441 4250 2034 4250 
Q 1625 4250 1398 4047 
Q 1172 3844 1172 3481 
z
" transform="scale(0.015625)"/>
       </defs>
       <use xlink:href="#DejaVuSans-38"/>
      </g>
     </g>
    </g>
    <g id="text_17">
     <!-- ΔF/F (%) -->
     <g transform="translate(16.318125 177.617187) rotate(-90) scale(0.12 -0.12)">
      <defs>
       <path id="DejaVuSans-394" d="M 2188 4044 
L 906 525 
L 3472 525 
L 2188 4044 
z
M 50 0 
L 1831 4666 
L 2547 4666 
L 4325 0 
L 50 0 
z
" transform="scale(0.015625)"/>
       <path id="DejaVuSans-46" d="M 628 4666 
L 3309 4666 
L 3309 4134 
L 1259 4134 
L 1259 2759 
L 3109 2759 
L 3109 2228 
L 1259 2228 
L 1259 0 
L 628 0 
L 628 4666 
z
" transform="scale(0.015625)"/>
       <path id="DejaVuSans-2f" d="M 1625 4666 
L 2156 4666 
L 531 -594 
L 0 -594 
L 1625 4666 
z
" transform="scale(0.015625)"/>
       <path id="DejaVuSans-25" d="M 4653 2053 
Q 4381 2053 4226 1822 
Q 4072 1591 4072 1178 
Q 4072 772 4226 539 
Q 4381 306 4653 306 
Q 4919 306 5073 539 
Q 5228 772 5228 1178 
Q 5228 1588 5073 1820 
Q 4919 2053 4653 2053 
z
M 4653 2450 
Q 5147 2450 5437 2106 
Q 5728 1763 5728 1178 
Q 5728 594 5436 251 
Q 5144 -91 4653 -91 
Q 4153 -91 3862 251 
Q 3572 594 3572 1178 
Q 3572 1766 3864 2108 
Q 4156 2450 4653 2450 
z
M 1428 4353 
Q 1159 4353 1004 4120 
Q 850 3888 850 3481 
Q 850 3069 1003 2837 
Q 1156 2606 1428 2606 
Q 1700 2606 1854 2837 
Q 2009 3069 2009 3481 
Q 2009 3884 1853 4118 
Q 1697 4353 1428 4353 
z
M 4250 4750 
L 4750 4750 
L 1831 -91 
L 1331 -91 
L 4250 4750 
z
M 1428 4750 
Q 1922 4750 2215 4408 
Q 2509 4066 2509 3481 
Q 2509 2891 2217 2550 
Q 1925 2209 1428 2209 
Q 931 2209 642 2551 
Q 353 2894 353 3481 
Q 353 4063 643 4406 
Q 934 4750 1428 4750 
z
" transform="scale(0.015625)"/>
      </defs>
      <use xlink:href="#DejaVuSans-394"/>
      <use xlink:href="#DejaVuSans-46" x="68.408203"/>
      <use xlink:href="#DejaVuSans-2f" x="125.927734"/>
      <use xlink:href="#DejaVuSans-46" x="159.619141"/>
      <use xlink:href="#DejaVuSans-20" x="217.138672"/>
      <use xlink:href="#DejaVuSans-28" x="248.925781"/>
      <use xlink:href="#DejaVuSans-25" x="287.939453"/>
      <use xlink:href="#DejaVuSans-29" x="382.958984"/>
     </g>
    </g>
   </g>
   <g id="line2d_31">
    <path d="M 44.555937 186.18094 
L 47.077332 194.034979 
L 49.598727 198.933293 
L 52.120121 198.821129 
L 54.641516 192.337902 
L 57.16291 181.572813 
L 59.684305 171.864242 
L 62.205699 166.382739 
L 64.727094 162.87006 
L 67.248489 157.295404 
L 72.291278 140.922966 
L 74.812672 136.398368 
L 77.334067 136.479851 
L 79.855461 139.842982 
L 82.376856 143.617927 
L 84.89825 145.453878 
L 87.419645 145.215486 
L 89.94104 144.144767 
L 92.462434 143.332894 
L 94.983829 143.822984 
L 97.505223 146.927471 
L 100.026618 153.493197 
L 102.548012 162.990045 
L 105.069407 173.479552 
L 107.590801 181.857138 
L 110.112196 183.661845 
L 112.633591 176.278934 
L 115.154985 164.206125 
L 117.67638 156.309442 
L 120.197774 156.736831 
L 122.719169 162.451674 
L 125.240563 169.073523 
L 127.761958 175.197848 
L 130.283352 180.786727 
L 132.804747 184.744451 
L 135.326142 185.776078 
L 137.847536 184.482245 
L 140.368931 183.419016 
L 142.890325 184.420747 
L 145.41172 186.253465 
L 147.933114 186.200771 
L 150.454509 183.05629 
L 152.975903 177.542045 
L 155.497298 171.665446 
L 158.018693 167.923954 
L 160.540087 167.72363 
L 163.061482 170.690136 
L 165.582876 175.383452 
L 168.104271 180.337814 
L 170.625665 184.506648 
L 173.14706 187.272322 
L 175.668455 188.992665 
L 178.189849 191.004057 
L 180.711244 194.069933 
L 183.232638 196.954838 
L 185.754033 196.931025 
L 188.275427 192.093123 
L 193.318216 174.665177 
L 195.839611 169.162867 
L 198.361006 167.585251 
L 200.8824 168.244224 
L 205.925189 171.037264 
L 208.446584 172.511881 
L 210.967978 174.450937 
L 213.489373 177.543579 
L 216.010767 181.988741 
L 218.532162 186.808047 
L 221.053557 189.930174 
L 223.574951 190.220604 
L 226.096346 189.170911 
L 228.61774 189.387132 
L 231.139135 192.112478 
L 233.660529 196.826573 
L 236.181924 202.1966 
L 238.703318 206.631737 
L 241.224713 208.923174 
L 243.746108 209.333817 
L 246.267502 209.037487 
L 248.788897 208.166041 
L 251.310291 205.985677 
L 253.831686 202.822984 
L 256.35308 200.107758 
L 258.874475 198.492382 
L 261.395869 197.13295 
L 263.917264 195.272643 
L 266.438659 193.700073 
L 268.960053 193.808355 
L 271.481448 195.641357 
L 274.002842 197.664641 
L 276.524237 198.358802 
L 281.567026 197.05983 
L 284.08842 197.609101 
L 286.609815 198.764895 
L 289.13121 199.45474 
L 291.652604 199.252962 
L 294.173999 197.562701 
L 296.695393 194.116065 
L 299.216788 190.419513 
L 301.738182 188.63621 
L 304.259577 189.682912 
L 306.780972 192.579682 
L 309.302366 194.985246 
L 311.823761 195.897915 
L 314.345155 197.124789 
L 316.86655 200.118079 
L 319.387944 203.757076 
L 321.909339 206.445896 
L 324.430733 207.637598 
L 326.952128 207.59975 
L 329.473523 207.168178 
L 331.994917 206.598265 
L 337.037706 204.155234 
L 339.559101 203.775817 
L 342.080495 203.848108 
L 344.60189 203.34832 
L 347.123284 202.505622 
L 349.644679 202.59228 
L 352.166074 204.454942 
L 354.687468 207.485024 
L 357.208863 210.050263 
L 359.730257 211.309774 
L 362.251652 212.095101 
L 364.773046 213.310388 
L 367.294441 214.261744 
L 369.815835 213.651543 
L 372.33723 211.930229 
L 374.858625 211.291662 
L 377.380019 213.018323 
L 379.901414 216.066034 
L 382.422808 218.587098 
L 387.465597 221.462542 
L 389.986992 223.2144 
L 392.508386 224.630221 
L 395.029781 224.947123 
L 397.551176 224.487465 
L 400.07257 224.465673 
L 402.593965 225.725594 
L 405.115359 228.008896 
L 407.636754 230.510177 
L 410.158148 232.722336 
L 412.679543 234.46251 
L 415.200937 235.264171 
L 415.200937 235.264171 
" clip-path="url(#p2cca95945c)" style="fill: none; stroke: #1f77b4; stroke-opacity: 0.4; stroke-width: 1.5; stroke-linecap: square"/>
   </g>
   <g id="line2d_32">
    <path d="M 44.555937 163.869474 
L 49.598727 151.944051 
L 52.120121 148.684137 
L 54.641516 149.854916 
L 59.684305 158.342438 
L 62.205699 161.70865 
L 67.248489 167.389577 
L 69.769883 170.431779 
L 72.291278 172.744102 
L 74.812672 173.255652 
L 79.855461 171.287456 
L 82.376856 170.935617 
L 84.89825 170.450789 
L 87.419645 169.359355 
L 89.94104 168.420299 
L 92.462434 167.758388 
L 94.983829 166.367157 
L 97.505223 164.411411 
L 100.026618 163.330492 
L 102.548012 164.085962 
L 105.069407 166.876809 
L 107.590801 171.153379 
L 110.112196 175.107031 
L 112.633591 176.267777 
L 115.154985 173.872998 
L 117.67638 169.89439 
L 120.197774 166.59982 
L 122.719169 165.038855 
L 125.240563 166.047372 
L 127.761958 169.820321 
L 132.804747 180.462769 
L 135.326142 184.669537 
L 137.847536 186.30538 
L 140.368931 185.007059 
L 142.890325 182.062946 
L 147.933114 175.52388 
L 152.975903 169.274611 
L 155.497298 165.70744 
L 158.018693 161.51699 
L 160.540087 157.699767 
L 163.061482 156.024005 
L 165.582876 156.736716 
L 168.104271 158.562987 
L 175.668455 164.760871 
L 180.711244 168.22383 
L 183.232638 169.550542 
L 185.754033 168.763741 
L 188.275427 165.214041 
L 190.796822 160.907496 
L 193.318216 158.360467 
L 195.839611 158.666509 
L 198.361006 161.513614 
L 200.8824 165.09151 
L 203.403795 166.753082 
L 205.925189 165.398089 
L 208.446584 162.740595 
L 210.967978 161.309602 
L 213.489373 162.04814 
L 216.010767 164.332303 
L 218.532162 167.076235 
L 221.053557 169.466522 
L 223.574951 171.160495 
L 226.096346 172.05761 
L 231.139135 172.722776 
L 233.660529 172.874382 
L 238.703318 172.075949 
L 241.224713 172.496315 
L 243.746108 174.23436 
L 246.267502 176.899425 
L 248.788897 179.035466 
L 251.310291 179.448717 
L 253.831686 178.912667 
L 256.35308 178.976929 
L 258.874475 179.861287 
L 261.395869 180.302402 
L 263.917264 179.070678 
L 266.438659 176.671653 
L 268.960053 174.630631 
L 271.481448 173.101479 
L 274.002842 171.420778 
L 276.524237 170.626138 
L 279.045631 172.269902 
L 281.567026 175.474963 
L 284.08842 178.069676 
L 286.609815 179.614724 
L 289.13121 181.300348 
L 291.652604 183.637979 
L 294.173999 185.673867 
L 296.695393 186.465553 
L 299.216788 186.100464 
L 301.738182 184.689949 
L 304.259577 181.757534 
L 306.780972 177.717623 
L 309.302366 175.035957 
L 311.823761 176.08359 
L 314.345155 180.047072 
L 316.86655 184.250836 
L 319.387944 187.220711 
L 321.909339 188.346767 
L 324.430733 187.613725 
L 326.952128 186.447329 
L 331.994917 185.283215 
L 334.516312 185.338692 
L 337.037706 187.236132 
L 339.559101 190.052279 
L 342.080495 191.116828 
L 344.60189 188.826353 
L 347.123284 183.805959 
L 349.644679 177.570296 
L 352.166074 170.635103 
L 354.687468 162.985013 
L 357.208863 155.97056 
L 359.730257 152.011204 
L 362.251652 152.145121 
L 369.815835 159.506757 
L 372.33723 163.085718 
L 377.380019 172.2363 
L 379.901414 175.675378 
L 382.422808 178.124118 
L 384.944203 179.481671 
L 387.465597 179.298672 
L 389.986992 177.706046 
L 392.508386 175.333381 
L 395.029781 172.216323 
L 397.551176 168.19207 
L 400.07257 164.433109 
L 402.593965 162.967657 
L 405.115359 164.107588 
L 407.636754 165.980915 
L 410.158148 167.024432 
L 415.200937 167.484245 
L 415.200937 167.484245 
" clip-path="url(#p2cca95945c)" style="fill: none; stroke: #ff7f0e; stroke-opacity: 0.4; stroke-width: 1.5; stroke-linecap: square"/>
   </g>
   <g id="line2d_33">
    <path d="M 44.555937 179.258359 
L 47.077332 177.770517 
L 49.598727 176.82733 
L 52.120121 176.897996 
L 54.641516 178.348781 
L 57.16291 179.94667 
L 59.684305 180.321869 
L 62.205699 180.324356 
L 64.727094 181.430857 
L 67.248489 183.329027 
L 69.769883 184.989874 
L 72.291278 185.923573 
L 74.812672 185.48797 
L 77.334067 183.389894 
L 79.855461 180.780193 
L 82.376856 179.342709 
L 84.89825 179.518409 
L 87.419645 180.020484 
L 89.94104 179.559784 
L 92.462434 178.602318 
L 94.983829 178.428261 
L 97.505223 179.282969 
L 100.026618 180.427516 
L 102.548012 181.407549 
L 105.069407 182.527649 
L 110.112196 185.737155 
L 112.633591 186.516104 
L 115.154985 184.840275 
L 117.67638 178.678557 
L 120.197774 167.793862 
L 122.719169 155.326969 
L 125.240563 145.330793 
L 127.761958 138.979079 
L 130.283352 134.918016 
L 132.804747 133.100671 
L 135.326142 135.718485 
L 137.847536 143.895044 
L 140.368931 155.128981 
L 142.890325 164.187249 
L 145.41172 166.312856 
L 147.933114 160.504104 
L 150.454509 150.355684 
L 152.975903 141.347857 
L 155.497298 137.201479 
L 158.018693 138.264269 
L 160.540087 141.640908 
L 163.061482 143.641007 
L 168.104271 143.439718 
L 170.625665 144.152343 
L 173.14706 144.624775 
L 175.668455 143.617393 
L 178.189849 141.280486 
L 180.711244 140.065255 
L 183.232638 142.96119 
L 185.754033 149.636736 
L 188.275427 156.82287 
L 190.796822 162.695905 
L 193.318216 167.46679 
L 195.839611 170.67575 
L 198.361006 171.769535 
L 203.403795 171.913889 
L 205.925189 170.636854 
L 208.446584 166.741919 
L 210.967978 161.871693 
L 213.489373 159.24144 
L 216.010767 159.860381 
L 218.532162 161.646035 
L 221.053557 161.856152 
L 226.096346 157.878292 
L 228.61774 157.607185 
L 233.660529 159.525572 
L 236.181924 160.242017 
L 238.703318 161.139049 
L 241.224713 161.765613 
L 243.746108 161.391723 
L 246.267502 160.814412 
L 248.788897 161.861922 
L 251.310291 164.815969 
L 253.831686 168.16139 
L 256.35308 170.973152 
L 258.874475 173.24213 
L 261.395869 174.507171 
L 263.917264 174.643039 
L 266.438659 174.576926 
L 271.481448 175.024322 
L 274.002842 174.573886 
L 276.524237 173.229054 
L 281.567026 169.071075 
L 284.08842 167.628856 
L 286.609815 166.882503 
L 289.13121 166.39888 
L 291.652604 166.311808 
L 294.173999 167.396661 
L 296.695393 169.866308 
L 299.216788 173.085823 
L 301.738182 176.538874 
L 304.259577 179.691713 
L 306.780972 181.537261 
L 309.302366 181.877539 
L 311.823761 181.84967 
L 314.345155 182.372388 
L 316.86655 183.535665 
L 319.387944 185.32633 
L 321.909339 187.5275 
L 324.430733 189.199983 
L 326.952128 189.273207 
L 329.473523 187.920487 
L 331.994917 186.823612 
L 334.516312 187.199853 
L 337.037706 188.34263 
L 339.559101 189.111254 
L 342.080495 189.414368 
L 344.60189 189.593347 
L 347.123284 189.384719 
L 349.644679 187.944875 
L 354.687468 182.587074 
L 357.208863 181.054665 
L 359.730257 180.969121 
L 362.251652 182.695401 
L 367.294441 188.96579 
L 369.815835 190.664934 
L 372.33723 190.773554 
L 374.858625 190.370635 
L 377.380019 190.617836 
L 382.422808 192.08181 
L 384.944203 192.701926 
L 387.465597 193.020468 
L 389.986992 191.885351 
L 392.508386 189.27183 
L 395.029781 187.207029 
L 397.551176 187.046362 
L 400.07257 187.841864 
L 402.593965 188.167424 
L 405.115359 187.770295 
L 410.158148 186.644663 
L 412.679543 185.750287 
L 415.200937 184.6665 
L 415.200937 184.6665 
" clip-path="url(#p2cca95945c)" style="fill: none; stroke: #2ca02c; stroke-opacity: 0.4; stroke-width: 1.5; stroke-linecap: square"/>
   </g>
   <g id="line2d_34">
    <path d="M 44.555937 168.366541 
L 49.598727 164.297378 
L 52.120121 162.805123 
L 54.641516 162.263528 
L 57.16291 162.022428 
L 59.684305 161.333005 
L 67.248489 158.352761 
L 72.291278 155.34998 
L 74.812672 154.733217 
L 77.334067 155.70322 
L 82.376856 160.234752 
L 84.89825 161.910768 
L 87.419645 163.165846 
L 89.94104 165.034771 
L 94.983829 170.657276 
L 97.505223 172.231032 
L 105.069407 174.526826 
L 107.590801 175.028199 
L 112.633591 174.996931 
L 115.154985 175.304593 
L 117.67638 175.821312 
L 120.197774 176.148898 
L 127.761958 176.439349 
L 130.283352 176.047297 
L 132.804747 175.491169 
L 135.326142 175.076987 
L 137.847536 174.445791 
L 140.368931 173.094321 
L 145.41172 169.055213 
L 147.933114 167.775723 
L 150.454509 167.513021 
L 152.975903 167.597624 
L 155.497298 167.506784 
L 158.018693 167.596773 
L 160.540087 168.339225 
L 163.061482 169.623608 
L 168.104271 172.37056 
L 173.14706 174.890748 
L 175.668455 175.638953 
L 178.189849 175.458803 
L 180.711244 174.795996 
L 183.232638 174.326821 
L 185.754033 174.221338 
L 188.275427 174.605974 
L 190.796822 175.773668 
L 195.839611 179.294122 
L 198.361006 180.21086 
L 200.8824 180.41157 
L 205.925189 180.222808 
L 208.446584 179.969469 
L 210.967978 179.325243 
L 218.532162 176.203787 
L 221.053557 175.57796 
L 223.574951 175.804938 
L 226.096346 177.261362 
L 233.660529 183.935719 
L 236.181924 185.324827 
L 238.703318 185.270281 
L 241.224713 183.532393 
L 246.267502 178.403772 
L 248.788897 176.586242 
L 251.310291 175.667659 
L 253.831686 175.331374 
L 256.35308 174.824891 
L 258.874475 174.070323 
L 261.395869 174.016386 
L 263.917264 175.233539 
L 266.438659 176.907668 
L 268.960053 178.017794 
L 274.002842 179.336643 
L 276.524237 179.193421 
L 279.045631 177.795602 
L 281.567026 176.093248 
L 284.08842 175.228687 
L 289.13121 174.850969 
L 291.652604 174.097382 
L 294.173999 172.60675 
L 299.216788 168.013106 
L 301.738182 166.32894 
L 304.259577 165.779824 
L 306.780972 166.383454 
L 311.823761 169.175547 
L 314.345155 169.797505 
L 316.86655 169.468378 
L 321.909339 167.696938 
L 326.952128 166.461983 
L 329.473523 165.524224 
L 331.994917 164.770179 
L 334.516312 164.745314 
L 337.037706 165.583496 
L 342.080495 168.54892 
L 344.60189 168.639305 
L 347.123284 166.890681 
L 349.644679 164.654193 
L 352.166074 163.665638 
L 354.687468 163.877643 
L 357.208863 163.797147 
L 359.730257 162.658275 
L 362.251652 161.279507 
L 364.773046 160.674682 
L 367.294441 161.021541 
L 369.815835 162.356887 
L 372.33723 164.888944 
L 377.380019 171.963779 
L 379.901414 174.307493 
L 382.422808 174.788824 
L 384.944203 173.639654 
L 387.465597 171.674829 
L 389.986992 170.174068 
L 392.508386 170.048831 
L 395.029781 171.021207 
L 400.07257 173.487995 
L 402.593965 174.324625 
L 405.115359 174.890752 
L 407.636754 175.78953 
L 412.679543 178.70011 
L 415.200937 179.184549 
L 415.200937 179.184549 
" clip-path="url(#p2cca95945c)" style="fill: none; stroke: #d62728; stroke-opacity: 0.4; stroke-width: 1.5; stroke-linecap: square"/>
   </g>
   <g id="line2d_35">
    <path d="M 44.555937 212.110168 
L 47.077332 211.556955 
L 49.598727 209.688521 
L 52.120121 210.493972 
L 54.641516 211.769729 
L 57.16291 207.769759 
L 59.684305 193.384175 
L 64.727094 144.255683 
L 67.248489 130.636626 
L 69.769883 130.339674 
L 72.291278 135.10436 
L 74.812672 137.296834 
L 77.334067 139.189174 
L 79.855461 148.034733 
L 84.89825 180.588231 
L 87.419645 193.204849 
L 89.94104 199.469068 
L 92.462434 196.979141 
L 94.983829 183.253046 
L 100.026618 136.837004 
L 102.548012 124.483003 
L 105.069407 122.854642 
L 107.590801 123.305276 
L 110.112196 119.528277 
L 112.633591 113.438126 
L 115.154985 111.281266 
L 117.67638 118.004446 
L 120.197774 133.113813 
L 122.719169 148.94639 
L 125.240563 158.805054 
L 127.761958 164.542065 
L 130.283352 172.072964 
L 135.326142 195.641523 
L 137.847536 199.828245 
L 140.368931 195.541198 
L 142.890325 189.244825 
L 145.41172 186.861093 
L 147.933114 187.313466 
L 150.454509 185.197598 
L 152.975903 178.500767 
L 155.497298 171.335985 
L 158.018693 171.233089 
L 160.540087 181.750774 
L 163.061482 194.33071 
L 165.582876 195.216021 
L 170.625665 169.630714 
L 173.14706 169.137101 
L 175.668455 180.332317 
L 178.189849 190.4269 
L 180.711244 189.808969 
L 183.232638 182.676591 
L 185.754033 178.960347 
L 188.275427 180.274759 
L 190.796822 181.357937 
L 193.318216 178.083576 
L 195.839611 168.250559 
L 198.361006 153.606637 
L 200.8824 141.589605 
L 203.403795 137.70161 
L 205.925189 139.830325 
L 208.446584 142.661779 
L 210.967978 143.209309 
L 213.489373 141.470471 
L 216.010767 138.99128 
L 218.532162 139.051615 
L 221.053557 144.786967 
L 223.574951 153.556453 
L 226.096346 158.271214 
L 228.61774 156.335095 
L 231.139135 149.630805 
L 233.660529 137.755795 
L 238.703318 104.343927 
L 241.224713 95.510553 
L 243.746108 93.822414 
L 246.267502 93.846198 
L 248.788897 94.519375 
L 251.310291 98.780648 
L 253.831686 107.558167 
L 256.35308 120.217466 
L 258.874475 134.204325 
L 261.395869 142.620983 
L 263.917264 138.654703 
L 266.438659 120.890211 
L 268.960053 94.702278 
L 271.481448 72.687544 
L 274.002842 66.427273 
L 276.524237 75.523075 
L 279.045631 91.940586 
L 281.567026 109.693051 
L 284.08842 125.211698 
L 289.13121 149.259234 
L 294.173999 181.839689 
L 296.695393 192.193338 
L 299.216788 197.276776 
L 301.738182 199.59207 
L 304.259577 198.957408 
L 306.780972 196.983899 
L 309.302366 196.691527 
L 311.823761 199.22511 
L 314.345155 204.368091 
L 316.86655 210.122131 
L 319.387944 210.910089 
L 321.909339 202.574311 
L 324.430733 189.040966 
L 326.952128 178.138728 
L 329.473523 173.114555 
L 331.994917 172.38932 
L 334.516312 175.507369 
L 337.037706 184.180016 
L 342.080495 209.987492 
L 344.60189 217.111989 
L 347.123284 216.907873 
L 349.644679 211.545995 
L 354.687468 197.335978 
L 357.208863 192.604479 
L 359.730257 190.03063 
L 362.251652 184.887563 
L 364.773046 174.056713 
L 367.294441 162.731141 
L 369.815835 158.26386 
L 372.33723 161.012405 
L 374.858625 167.424104 
L 377.380019 176.624779 
L 379.901414 187.652894 
L 382.422808 197.004331 
L 387.465597 210.094067 
L 389.986992 218.47696 
L 392.508386 222.501064 
L 395.029781 213.963072 
L 397.551176 196.663736 
L 400.07257 186.592783 
L 402.593965 195.640579 
L 405.115359 218.396227 
L 407.636754 236.396878 
L 410.158148 238.172727 
L 415.200937 221.835296 
L 415.200937 221.835296 
" clip-path="url(#p2cca95945c)" style="fill: none; stroke: #9467bd; stroke-opacity: 0.4; stroke-width: 1.5; stroke-linecap: square"/>
   </g>
   <g id="line2d_36">
    <path d="M 44.555937 181.957097 
L 47.077332 181.520228 
L 49.598727 180.338115 
L 52.120121 179.540471 
L 54.641516 178.914971 
L 57.16291 177.064043 
L 59.684305 173.049146 
L 62.205699 167.56256 
L 64.727094 162.492963 
L 67.248489 159.400679 
L 69.769883 158.322742 
L 72.291278 158.008996 
L 74.812672 157.434408 
L 77.334067 157.408246 
L 79.855461 159.569682 
L 84.89825 167.584415 
L 87.419645 170.193204 
L 89.94104 171.325738 
L 92.462434 170.914843 
L 94.983829 168.505745 
L 97.505223 164.555814 
L 100.026618 161.410135 
L 102.548012 161.331476 
L 105.069407 164.053096 
L 107.590801 167.088157 
L 110.112196 167.815772 
L 112.633591 165.499575 
L 115.154985 161.901051 
L 117.67638 159.741629 
L 120.197774 160.078645 
L 125.240563 163.137085 
L 127.761958 164.995732 
L 130.283352 167.787113 
L 135.326142 175.376522 
L 137.847536 177.791341 
L 140.368931 178.438115 
L 142.890325 178.2028 
L 145.41172 177.447275 
L 147.933114 175.463589 
L 150.454509 171.708402 
L 152.975903 166.852581 
L 155.497298 162.683427 
L 158.018693 161.307015 
L 160.540087 163.430861 
L 163.061482 166.861893 
L 165.582876 168.391394 
L 170.625665 166.521361 
L 173.14706 167.749615 
L 175.668455 170.66844 
L 178.189849 172.928717 
L 180.711244 173.392797 
L 183.232638 173.293996 
L 185.754033 173.702637 
L 188.275427 173.802153 
L 190.796822 172.838868 
L 193.318216 171.233544 
L 195.839611 169.209961 
L 198.361006 166.937179 
L 200.8824 165.441367 
L 203.403795 165.259228 
L 205.925189 165.425068 
L 208.446584 164.925129 
L 210.967978 164.033357 
L 213.489373 163.716559 
L 216.010767 164.467073 
L 218.532162 166.157144 
L 221.053557 168.323555 
L 223.574951 170.131322 
L 226.096346 170.927878 
L 228.61774 171.053222 
L 231.139135 170.98417 
L 233.660529 170.183608 
L 236.181924 168.198353 
L 238.703318 165.892189 
L 241.224713 164.44561 
L 243.746108 163.937769 
L 246.267502 163.800259 
L 248.788897 164.033809 
L 251.310291 164.939734 
L 253.831686 166.557316 
L 256.35308 169.020039 
L 258.874475 171.974089 
L 261.395869 173.715978 
L 263.917264 172.57492 
L 266.438659 168.549306 
L 268.960053 163.20029 
L 271.481448 159.033741 
L 274.002842 157.884644 
L 276.524237 159.386098 
L 279.045631 162.172397 
L 284.08842 168.749604 
L 289.13121 174.252834 
L 291.652604 177.751141 
L 294.173999 181.015933 
L 296.695393 182.604844 
L 299.216788 182.979136 
L 301.738182 183.157209 
L 304.259577 183.173878 
L 306.780972 183.040384 
L 309.302366 183.274283 
L 311.823761 184.446367 
L 314.345155 186.741969 
L 316.86655 189.499018 
L 319.387944 191.156195 
L 321.909339 190.518283 
L 326.952128 185.584199 
L 329.473523 183.910466 
L 331.994917 183.172918 
L 334.516312 183.643018 
L 337.037706 185.899502 
L 339.559101 189.473832 
L 342.080495 192.583143 
L 344.60189 193.503863 
L 347.123284 191.898971 
L 354.687468 182.854146 
L 357.208863 180.695423 
L 359.730257 179.395801 
L 362.251652 178.620539 
L 367.294441 176.821698 
L 369.815835 176.888796 
L 372.33723 178.33817 
L 374.858625 181.052308 
L 377.380019 184.892203 
L 379.901414 189.020044 
L 382.422808 192.117236 
L 384.944203 193.874391 
L 389.986992 196.291365 
L 392.508386 196.357065 
L 395.029781 193.870951 
L 397.551176 189.740664 
L 400.07257 187.364285 
L 402.593965 189.365176 
L 405.115359 194.634752 
L 407.636754 199.175779 
L 410.158148 200.374426 
L 412.679543 199.198498 
L 415.200937 197.686952 
L 415.200937 197.686952 
" clip-path="url(#p2cca95945c)" style="fill: none; stroke: #000000; stroke-width: 2.5; stroke-linecap: square"/>
   </g>
   <g id="line2d_37">
    <path d="M 168.104271 246.76 
L 168.104271 57.84 
" clip-path="url(#p2cca95945c)" style="fill: none; stroke-dasharray: 5.55,2.4; stroke-dashoffset: 0; stroke: #000000; stroke-width: 1.5"/>
   </g>
   <g id="patch_3">
    <path d="M 44.555938 246.76 
L 44.555938 57.84 
" style="fill: none; stroke: #000000; stroke-width: 0.8; stroke-linejoin: miter; stroke-linecap: square"/>
   </g>
   <g id="patch_4">
    <path d="M 415.200938 246.76 
L 415.200938 57.84 
" style="fill: none; stroke: #000000; stroke-width: 0.8; stroke-linejoin: miter; stroke-linecap: square"/>
   </g>
   <g id="patch_5">
    <path d="M 44.555937 246.76 
L 415.200937 246.76 
" style="fill: none; stroke: #000000; stroke-width: 0.8; stroke-linejoin: miter; stroke-linecap: square"/>
   </g>
   <g id="patch_6">
    <path d="M 44.555937 57.84 
L 415.200937 57.84 
" style="fill: none; stroke: #000000; stroke-width: 0.8; stroke-linejoin: miter; stroke-linecap: square"/>
   </g>
   <g id="text_18">
    <!-- Preinduction | NE -->
    <g transform="translate(156.522578 51.84) scale(0.15 -0.15)">
     <defs>
      <path id="DejaVuSans-Bold-50" d="M 588 4666 
L 2584 4666 
Q 3475 4666 3951 4270 
Q 4428 3875 4428 3144 
Q 4428 2409 3951 2014 
Q 3475 1619 2584 1619 
L 1791 1619 
L 1791 0 
L 588 0 
L 588 4666 
z
M 1791 3794 
L 1791 2491 
L 2456 2491 
Q 2806 2491 2997 2661 
Q 3188 2831 3188 3144 
Q 3188 3456 2997 3625 
Q 2806 3794 2456 3794 
L 1791 3794 
z
" transform="scale(0.015625)"/>
      <path id="DejaVuSans-Bold-72" d="M 3138 2547 
Q 2991 2616 2845 2648 
Q 2700 2681 2553 2681 
Q 2122 2681 1889 2404 
Q 1656 2128 1656 1613 
L 1656 0 
L 538 0 
L 538 3500 
L 1656 3500 
L 1656 2925 
Q 1872 3269 2151 3426 
Q 2431 3584 2822 3584 
Q 2878 3584 2943 3579 
Q 3009 3575 3134 3559 
L 3138 2547 
z
" transform="scale(0.015625)"/>
      <path id="DejaVuSans-Bold-65" d="M 4031 1759 
L 4031 1441 
L 1416 1441 
Q 1456 1047 1700 850 
Q 1944 653 2381 653 
Q 2734 653 3104 758 
Q 3475 863 3866 1075 
L 3866 213 
Q 3469 63 3072 -14 
Q 2675 -91 2278 -91 
Q 1328 -91 801 392 
Q 275 875 275 1747 
Q 275 2603 792 3093 
Q 1309 3584 2216 3584 
Q 3041 3584 3536 3087 
Q 4031 2591 4031 1759 
z
M 2881 2131 
Q 2881 2450 2695 2645 
Q 2509 2841 2209 2841 
Q 1884 2841 1681 2658 
Q 1478 2475 1428 2131 
L 2881 2131 
z
" transform="scale(0.015625)"/>
      <path id="DejaVuSans-Bold-69" d="M 538 3500 
L 1656 3500 
L 1656 0 
L 538 0 
L 538 3500 
z
M 538 4863 
L 1656 4863 
L 1656 3950 
L 538 3950 
L 538 4863 
z
" transform="scale(0.015625)"/>
      <path id="DejaVuSans-Bold-6e" d="M 4056 2131 
L 4056 0 
L 2931 0 
L 2931 347 
L 2931 1631 
Q 2931 2084 2911 2256 
Q 2891 2428 2841 2509 
Q 2775 2619 2662 2680 
Q 2550 2741 2406 2741 
Q 2056 2741 1856 2470 
Q 1656 2200 1656 1722 
L 1656 0 
L 538 0 
L 538 3500 
L 1656 3500 
L 1656 2988 
Q 1909 3294 2193 3439 
Q 2478 3584 2822 3584 
Q 3428 3584 3742 3212 
Q 4056 2841 4056 2131 
z
" transform="scale(0.015625)"/>
      <path id="DejaVuSans-Bold-64" d="M 2919 2988 
L 2919 4863 
L 4044 4863 
L 4044 0 
L 2919 0 
L 2919 506 
Q 2688 197 2409 53 
Q 2131 -91 1766 -91 
Q 1119 -91 703 423 
Q 288 938 288 1747 
Q 288 2556 703 3070 
Q 1119 3584 1766 3584 
Q 2128 3584 2408 3439 
Q 2688 3294 2919 2988 
z
M 2181 722 
Q 2541 722 2730 984 
Q 2919 1247 2919 1747 
Q 2919 2247 2730 2509 
Q 2541 2772 2181 2772 
Q 1825 2772 1636 2509 
Q 1447 2247 1447 1747 
Q 1447 1247 1636 984 
Q 1825 722 2181 722 
z
" transform="scale(0.015625)"/>
      <path id="DejaVuSans-Bold-75" d="M 500 1363 
L 500 3500 
L 1625 3500 
L 1625 3150 
Q 1625 2866 1622 2436 
Q 1619 2006 1619 1863 
Q 1619 1441 1641 1255 
Q 1663 1069 1716 984 
Q 1784 875 1895 815 
Q 2006 756 2150 756 
Q 2500 756 2700 1025 
Q 2900 1294 2900 1772 
L 2900 3500 
L 4019 3500 
L 4019 0 
L 2900 0 
L 2900 506 
Q 2647 200 2364 54 
Q 2081 -91 1741 -91 
Q 1134 -91 817 281 
Q 500 653 500 1363 
z
" transform="scale(0.015625)"/>
      <path id="DejaVuSans-Bold-63" d="M 3366 3391 
L 3366 2478 
Q 3138 2634 2908 2709 
Q 2678 2784 2431 2784 
Q 1963 2784 1702 2511 
Q 1441 2238 1441 1747 
Q 1441 1256 1702 982 
Q 1963 709 2431 709 
Q 2694 709 2930 787 
Q 3166 866 3366 1019 
L 3366 103 
Q 3103 6 2833 -42 
Q 2563 -91 2291 -91 
Q 1344 -91 809 395 
Q 275 881 275 1747 
Q 275 2613 809 3098 
Q 1344 3584 2291 3584 
Q 2566 3584 2833 3536 
Q 3100 3488 3366 3391 
z
" transform="scale(0.015625)"/>
      <path id="DejaVuSans-Bold-74" d="M 1759 4494 
L 1759 3500 
L 2913 3500 
L 2913 2700 
L 1759 2700 
L 1759 1216 
Q 1759 972 1856 886 
Q 1953 800 2241 800 
L 2816 800 
L 2816 0 
L 1856 0 
Q 1194 0 917 276 
Q 641 553 641 1216 
L 641 2700 
L 84 2700 
L 84 3500 
L 641 3500 
L 641 4494 
L 1759 4494 
z
" transform="scale(0.015625)"/>
      <path id="DejaVuSans-Bold-6f" d="M 2203 2784 
Q 1831 2784 1636 2517 
Q 1441 2250 1441 1747 
Q 1441 1244 1636 976 
Q 1831 709 2203 709 
Q 2569 709 2762 976 
Q 2956 1244 2956 1747 
Q 2956 2250 2762 2517 
Q 2569 2784 2203 2784 
z
M 2203 3584 
Q 3106 3584 3614 3096 
Q 4122 2609 4122 1747 
Q 4122 884 3614 396 
Q 3106 -91 2203 -91 
Q 1297 -91 786 396 
Q 275 884 275 1747 
Q 275 2609 786 3096 
Q 1297 3584 2203 3584 
z
" transform="scale(0.015625)"/>
      <path id="DejaVuSans-Bold-20" transform="scale(0.015625)"/>
      <path id="DejaVuSans-Bold-7c" d="M 1522 4891 
L 1522 -1509 
L 813 -1509 
L 813 4891 
L 1522 4891 
z
" transform="scale(0.015625)"/>
      <path id="DejaVuSans-Bold-4e" d="M 588 4666 
L 1931 4666 
L 3628 1466 
L 3628 4666 
L 4769 4666 
L 4769 0 
L 3425 0 
L 1728 3200 
L 1728 0 
L 588 0 
L 588 4666 
z
" transform="scale(0.015625)"/>
      <path id="DejaVuSans-Bold-45" d="M 588 4666 
L 3834 4666 
L 3834 3756 
L 1791 3756 
L 1791 2888 
L 3713 2888 
L 3713 1978 
L 1791 1978 
L 1791 909 
L 3903 909 
L 3903 0 
L 588 0 
L 588 4666 
z
" transform="scale(0.015625)"/>
     </defs>
     <use xlink:href="#DejaVuSans-Bold-50"/>
     <use xlink:href="#DejaVuSans-Bold-72" x="73.291016"/>
     <use xlink:href="#DejaVuSans-Bold-65" x="122.607422"/>
     <use xlink:href="#DejaVuSans-Bold-69" x="190.429688"/>
     <use xlink:href="#DejaVuSans-Bold-6e" x="224.707031"/>
     <use xlink:href="#DejaVuSans-Bold-64" x="295.898438"/>
     <use xlink:href="#DejaVuSans-Bold-75" x="367.480469"/>
     <use xlink:href="#DejaVuSans-Bold-63" x="438.671875"/>
     <use xlink:href="#DejaVuSans-Bold-74" x="497.949219"/>
     <use xlink:href="#DejaVuSans-Bold-69" x="545.751953"/>
     <use xlink:href="#DejaVuSans-Bold-6f" x="580.029297"/>
     <use xlink:href="#DejaVuSans-Bold-6e" x="648.730469"/>
     <use xlink:href="#DejaVuSans-Bold-20" x="719.921875"/>
     <use xlink:href="#DejaVuSans-Bold-7c" x="754.736328"/>
     <use xlink:href="#DejaVuSans-Bold-20" x="791.259766"/>
     <use xlink:href="#DejaVuSans-Bold-4e" x="826.074219"/>
     <use xlink:href="#DejaVuSans-Bold-45" x="909.765625"/>
    </g>
   </g>
  </g>
  <g id="text_19">
   <!-- Open Round peri-event traces (Pre) -->
   <g transform="translate(53.659687 20.877187) scale(0.18 -0.18)">
    <defs>
     <path id="DejaVuSans-4f" d="M 2522 4238 
Q 1834 4238 1429 3725 
Q 1025 3213 1025 2328 
Q 1025 1447 1429 934 
Q 1834 422 2522 422 
Q 3209 422 3611 934 
Q 4013 1447 4013 2328 
Q 4013 3213 3611 3725 
Q 3209 4238 2522 4238 
z
M 2522 4750 
Q 3503 4750 4090 4092 
Q 4678 3434 4678 2328 
Q 4678 1225 4090 567 
Q 3503 -91 2522 -91 
Q 1538 -91 948 565 
Q 359 1222 359 2328 
Q 359 3434 948 4092 
Q 1538 4750 2522 4750 
z
" transform="scale(0.015625)"/>
     <path id="DejaVuSans-70" d="M 1159 525 
L 1159 -1331 
L 581 -1331 
L 581 3500 
L 1159 3500 
L 1159 2969 
Q 1341 3281 1617 3432 
Q 1894 3584 2278 3584 
Q 2916 3584 3314 3078 
Q 3713 2572 3713 1747 
Q 3713 922 3314 415 
Q 2916 -91 2278 -91 
Q 1894 -91 1617 61 
Q 1341 213 1159 525 
z
M 3116 1747 
Q 3116 2381 2855 2742 
Q 2594 3103 2138 3103 
Q 1681 3103 1420 2742 
Q 1159 2381 1159 1747 
Q 1159 1113 1420 752 
Q 1681 391 2138 391 
Q 2594 391 2855 752 
Q 3116 1113 3116 1747 
z
" transform="scale(0.015625)"/>
     <path id="DejaVuSans-6e" d="M 3513 2113 
L 3513 0 
L 2938 0 
L 2938 2094 
Q 2938 2591 2744 2837 
Q 2550 3084 2163 3084 
Q 1697 3084 1428 2787 
Q 1159 2491 1159 1978 
L 1159 0 
L 581 0 
L 581 3500 
L 1159 3500 
L 1159 2956 
Q 1366 3272 1645 3428 
Q 1925 3584 2291 3584 
Q 2894 3584 3203 3211 
Q 3513 2838 3513 2113 
z
" transform="scale(0.015625)"/>
     <path id="DejaVuSans-52" d="M 2841 2188 
Q 3044 2119 3236 1894 
Q 3428 1669 3622 1275 
L 4263 0 
L 3584 0 
L 2988 1197 
Q 2756 1666 2539 1819 
Q 2322 1972 1947 1972 
L 1259 1972 
L 1259 0 
L 628 0 
L 628 4666 
L 2053 4666 
Q 2853 4666 3247 4331 
Q 3641 3997 3641 3322 
Q 3641 2881 3436 2590 
Q 3231 2300 2841 2188 
z
M 1259 4147 
L 1259 2491 
L 2053 2491 
Q 2509 2491 2742 2702 
Q 2975 2913 2975 3322 
Q 2975 3731 2742 3939 
Q 2509 4147 2053 4147 
L 1259 4147 
z
" transform="scale(0.015625)"/>
     <path id="DejaVuSans-6f" d="M 1959 3097 
Q 1497 3097 1228 2736 
Q 959 2375 959 1747 
Q 959 1119 1226 758 
Q 1494 397 1959 397 
Q 2419 397 2687 759 
Q 2956 1122 2956 1747 
Q 2956 2369 2687 2733 
Q 2419 3097 1959 3097 
z
M 1959 3584 
Q 2709 3584 3137 3096 
Q 3566 2609 3566 1747 
Q 3566 888 3137 398 
Q 2709 -91 1959 -91 
Q 1206 -91 779 398 
Q 353 888 353 1747 
Q 353 2609 779 3096 
Q 1206 3584 1959 3584 
z
" transform="scale(0.015625)"/>
     <path id="DejaVuSans-75" d="M 544 1381 
L 544 3500 
L 1119 3500 
L 1119 1403 
Q 1119 906 1312 657 
Q 1506 409 1894 409 
Q 2359 409 2629 706 
Q 2900 1003 2900 1516 
L 2900 3500 
L 3475 3500 
L 3475 0 
L 2900 0 
L 2900 538 
Q 2691 219 2414 64 
Q 2138 -91 1772 -91 
Q 1169 -91 856 284 
Q 544 659 544 1381 
z
M 1991 3584 
L 1991 3584 
z
" transform="scale(0.015625)"/>
     <path id="DejaVuSans-64" d="M 2906 2969 
L 2906 4863 
L 3481 4863 
L 3481 0 
L 2906 0 
L 2906 525 
Q 2725 213 2448 61 
Q 2172 -91 1784 -91 
Q 1150 -91 751 415 
Q 353 922 353 1747 
Q 353 2572 751 3078 
Q 1150 3584 1784 3584 
Q 2172 3584 2448 3432 
Q 2725 3281 2906 2969 
z
M 947 1747 
Q 947 1113 1208 752 
Q 1469 391 1925 391 
Q 2381 391 2643 752 
Q 2906 1113 2906 1747 
Q 2906 2381 2643 2742 
Q 2381 3103 1925 3103 
Q 1469 3103 1208 2742 
Q 947 2381 947 1747 
z
" transform="scale(0.015625)"/>
     <path id="DejaVuSans-72" d="M 2631 2963 
Q 2534 3019 2420 3045 
Q 2306 3072 2169 3072 
Q 1681 3072 1420 2755 
Q 1159 2438 1159 1844 
L 1159 0 
L 581 0 
L 581 3500 
L 1159 3500 
L 1159 2956 
Q 1341 3275 1631 3429 
Q 1922 3584 2338 3584 
Q 2397 3584 2469 3576 
Q 2541 3569 2628 3553 
L 2631 2963 
z
" transform="scale(0.015625)"/>
     <path id="DejaVuSans-2d" d="M 313 2009 
L 1997 2009 
L 1997 1497 
L 313 1497 
L 313 2009 
z
" transform="scale(0.015625)"/>
     <path id="DejaVuSans-76" d="M 191 3500 
L 800 3500 
L 1894 563 
L 2988 3500 
L 3597 3500 
L 2284 0 
L 1503 0 
L 191 3500 
z
" transform="scale(0.015625)"/>
     <path id="DejaVuSans-74" d="M 1172 4494 
L 1172 3500 
L 2356 3500 
L 2356 3053 
L 1172 3053 
L 1172 1153 
Q 1172 725 1289 603 
Q 1406 481 1766 481 
L 2356 481 
L 2356 0 
L 1766 0 
Q 1100 0 847 248 
Q 594 497 594 1153 
L 594 3053 
L 172 3053 
L 172 3500 
L 594 3500 
L 594 4494 
L 1172 4494 
z
" transform="scale(0.015625)"/>
     <path id="DejaVuSans-61" d="M 2194 1759 
Q 1497 1759 1228 1600 
Q 959 1441 959 1056 
Q 959 750 1161 570 
Q 1363 391 1709 391 
Q 2188 391 2477 730 
Q 2766 1069 2766 1631 
L 2766 1759 
L 2194 1759 
z
M 3341 1997 
L 3341 0 
L 2766 0 
L 2766 531 
Q 2569 213 2275 61 
Q 1981 -91 1556 -91 
Q 1019 -91 701 211 
Q 384 513 384 1019 
Q 384 1609 779 1909 
Q 1175 2209 1959 2209 
L 2766 2209 
L 2766 2266 
Q 2766 2663 2505 2880 
Q 2244 3097 1772 3097 
Q 1472 3097 1187 3025 
Q 903 2953 641 2809 
L 641 3341 
Q 956 3463 1253 3523 
Q 1550 3584 1831 3584 
Q 2591 3584 2966 3190 
Q 3341 2797 3341 1997 
z
" transform="scale(0.015625)"/>
     <path id="DejaVuSans-63" d="M 3122 3366 
L 3122 2828 
Q 2878 2963 2633 3030 
Q 2388 3097 2138 3097 
Q 1578 3097 1268 2742 
Q 959 2388 959 1747 
Q 959 1106 1268 751 
Q 1578 397 2138 397 
Q 2388 397 2633 464 
Q 2878 531 3122 666 
L 3122 134 
Q 2881 22 2623 -34 
Q 2366 -91 2075 -91 
Q 1284 -91 818 406 
Q 353 903 353 1747 
Q 353 2603 823 3093 
Q 1294 3584 2113 3584 
Q 2378 3584 2631 3529 
Q 2884 3475 3122 3366 
z
" transform="scale(0.015625)"/>
     <path id="DejaVuSans-50" d="M 1259 4147 
L 1259 2394 
L 2053 2394 
Q 2494 2394 2734 2622 
Q 2975 2850 2975 3272 
Q 2975 3691 2734 3919 
Q 2494 4147 2053 4147 
L 1259 4147 
z
M 628 4666 
L 2053 4666 
Q 2838 4666 3239 4311 
Q 3641 3956 3641 3272 
Q 3641 2581 3239 2228 
Q 2838 1875 2053 1875 
L 1259 1875 
L 1259 0 
L 628 0 
L 628 4666 
z
" transform="scale(0.015625)"/>
    </defs>
    <use xlink:href="#DejaVuSans-4f"/>
    <use xlink:href="#DejaVuSans-70" x="78.710938"/>
    <use xlink:href="#DejaVuSans-65" x="142.1875"/>
    <use xlink:href="#DejaVuSans-6e" x="203.710938"/>
    <use xlink:href="#DejaVuSans-20" x="267.089844"/>
    <use xlink:href="#DejaVuSans-52" x="298.876953"/>
    <use xlink:href="#DejaVuSans-6f" x="363.859375"/>
    <use xlink:href="#DejaVuSans-75" x="425.041016"/>
    <use xlink:href="#DejaVuSans-6e" x="488.419922"/>
    <use xlink:href="#DejaVuSans-64" x="551.798828"/>
    <use xlink:href="#DejaVuSans-20" x="615.275391"/>
    <use xlink:href="#DejaVuSans-70" x="647.0625"/>
    <use xlink:href="#DejaVuSans-65" x="710.539062"/>
    <use xlink:href="#DejaVuSans-72" x="772.0625"/>
    <use xlink:href="#DejaVuSans-69" x="813.175781"/>
    <use xlink:href="#DejaVuSans-2d" x="840.958984"/>
    <use xlink:href="#DejaVuSans-65" x="877.042969"/>
    <use xlink:href="#DejaVuSans-76" x="938.566406"/>
    <use xlink:href="#DejaVuSans-65" x="997.746094"/>
    <use xlink:href="#DejaVuSans-6e" x="1059.269531"/>
    <use xlink:href="#DejaVuSans-74" x="1122.648438"/>
    <use xlink:href="#DejaVuSans-20" x="1161.857422"/>
    <use xlink:href="#DejaVuSans-74" x="1193.644531"/>
    <use xlink:href="#DejaVuSans-72" x="1232.853516"/>
    <use xlink:href="#DejaVuSans-61" x="1273.966797"/>
    <use xlink:href="#DejaVuSans-63" x="1335.246094"/>
    <use xlink:href="#DejaVuSans-65" x="1390.226562"/>
    <use xlink:href="#DejaVuSans-73" x="1451.75"/>
    <use xlink:href="#DejaVuSans-20" x="1503.849609"/>
    <use xlink:href="#DejaVuSans-28" x="1535.636719"/>
    <use xlink:href="#DejaVuSans-50" x="1574.650391"/>
    <use xlink:href="#DejaVuSans-72" x="1633.203125"/>
    <use xlink:href="#DejaVuSans-65" x="1672.066406"/>
    <use xlink:href="#DejaVuSans-29" x="1733.589844"/>
   </g>
  </g>
 </g>
 <defs>
  <clipPath id="p2cca95945c">
   <rect x="44.555938" y="57.84" width="370.645" height="188.92"/>
  </clipPath>
 </defs>
</svg>
