<?xml version="1.0" encoding="utf-8" standalone="no"?>
<!DOCTYPE svg PUBLIC "-//W3C//DTD SVG 1.1//EN"
  "http://www.w3.org/Graphics/SVG/1.1/DTD/svg11.dtd">
<svg xmlns:xlink="http://www.w3.org/1999/xlink" width="671.639062pt" height="568.491875pt" viewBox="0 0 671.639062 568.491875" xmlns="http://www.w3.org/2000/svg" version="1.1">
 <metadata>
  <rdf:RDF xmlns:dc="http://purl.org/dc/elements/1.1/" xmlns:cc="http://creativecommons.org/ns#" xmlns:rdf="http://www.w3.org/1999/02/22-rdf-syntax-ns#">
   <cc:Work>
    <dc:type rdf:resource="http://purl.org/dc/dcmitype/StillImage"/>
    <dc:date>2026-06-17T23:28:50.335892</dc:date>
    <dc:format>image/svg+xml</dc:format>
    <dc:creator>
     <cc:Agent>
      <dc:title>Matplotlib v3.7.2, https://matplotlib.org/</dc:title>
     </cc:Agent>
    </dc:creator>
   </cc:Work>
  </rdf:RDF>
 </metadata>
 <defs>
  <style type="text/css">*{stroke-linejoin: round; stroke-linecap: butt}</style>
 </defs>
 <g id="figure_1">
  <g id="patch_1">
   <path d="M 0 568.491875 
L 671.639062 568.491875 
L 671.639062 0 
L 0 0 
z
" style="fill: #ffffff"/>
  </g>
  <g id="axes_1">
   <g id="patch_2">
    <path d="M 176.719531 274.485827 
L 537.824531 274.485827 
L 537.824531 52.08 
L 176.719531 52.08 
z
" style="fill: #ffffff"/>
   </g>
   <g id="matplotlib.axis_1">
    <g id="xtick_1">
     <g id="line2d_1">
      <path d="M 176.719531 274.485827 
L 176.719531 52.08 
" clip-path="url(#p718ded4776)" style="fill: none; stroke: #b0b0b0; stroke-width: 0.8; stroke-linecap: square"/>
     </g>
     <g id="line2d_2">
      <defs>
       <path id="ma13a65b29b" d="M 0 0 
L 0 3.5 
" style="stroke: #000000; stroke-width: 0.8"/>
      </defs>
      <g>
       <use xlink:href="#ma13a65b29b" x="176.719531" y="274.485827" style="stroke: #000000; stroke-width: 0.8"/>
      </g>
     </g>
    </g>
    <g id="xtick_2">
     <g id="line2d_3">
      <path d="M 236.903698 274.485827 
L 236.903698 52.08 
" clip-path="url(#p718ded4776)" style="fill: none; stroke: #b0b0b0; stroke-width: 0.8; stroke-linecap: square"/>
     </g>
     <g id="line2d_4">
      <g>
       <use xlink:href="#ma13a65b29b" x="236.903698" y="274.485827" style="stroke: #000000; stroke-width: 0.8"/>
      </g>
     </g>
    </g>
    <g id="xtick_3">
     <g id="line2d_5">
      <path d="M 297.087865 274.485827 
L 297.087865 52.08 
" clip-path="url(#p718ded4776)" style="fill: none; stroke: #b0b0b0; stroke-width: 0.8; stroke-linecap: square"/>
     </g>
     <g id="line2d_6">
      <g>
       <use xlink:href="#ma13a65b29b" x="297.087865" y="274.485827" style="stroke: #000000; stroke-width: 0.8"/>
      </g>
     </g>
    </g>
    <g id="xtick_4">
     <g id="line2d_7">
      <path d="M 357.272031 274.485827 
L 357.272031 52.08 
" clip-path="url(#p718ded4776)" style="fill: none; stroke: #b0b0b0; stroke-width: 0.8; stroke-linecap: square"/>
     </g>
     <g id="line2d_8">
      <g>
       <use xlink:href="#ma13a65b29b" x="357.272031" y="274.485827" style="stroke: #000000; stroke-width: 0.8"/>
      </g>
     </g>
    </g>
    <g id="xtick_5">
     <g id="line2d_9">
      <path d="M 417.456198 274.485827 
L 417.456198 52.08 
" clip-path="url(#p718ded4776)" style="fill: none; stroke: #b0b0b0; stroke-width: 0.8; stroke-linecap: square"/>
     </g>
     <g id="line2d_10">
      <g>
       <use xlink:href="#ma13a65b29b" x="417.456198" y="274.485827" style="stroke: #000000; stroke-width: 0.8"/>
      </g>
     </g>
    </g>
    <g id="xtick_6">
     <g id="line2d_11">
      <path d="M 477.640365 274.485827 
L 477.640365 52.08 
" clip-path="url(#p718ded4776)" style="fill: none; stroke: #b0b0b0; stroke-width: 0.8; stroke-linecap: square"/>
     </g>
     <g id="line2d_12">
      <g>
       <use xlink:href="#ma13a65b29b" x="477.640365" y="274.485827" style="stroke: #000000; stroke-width: 0.8"/>
      </g>
     </g>
    </g>
    <g id="xtick_7">
     <g id="line2d_13">
      <path d="M 537.824531 274.485827 
L 537.824531 52.08 
" clip-path="url(#p718ded4776)" style="fill: none; stroke: #b0b0b0; stroke-width: 0.8; stroke-linecap: square"/>
     </g>
     <g id="line2d_14">
      <g>
       <use xlink:href="#ma13a65b29b" x="537.824531" y="274.485827" style="stroke: #000000; stroke-width: 0.8"/>
      </g>
     </g>
    </g>
   </g>
   <g id="matplotlib.axis_2">
    <g id="ytick_1">
     <g id="line2d_15">
      <path d="M 176.719531 271.913538 
L 537.824531 271.913538 
" clip-path="url(#p718ded4776)" style="fill: none; stroke: #b0b0b0; stroke-width: 0.8; stroke-linecap: square"/>
     </g>
     <g id="line2d_16">
      <defs>
       <path id="mebd4424f55" d="M 0 0 
L -3.5 0 
" style="stroke: #000000; stroke-width: 0.8"/>
      </defs>
      <g>
       <use xlink:href="#mebd4424f55" x="176.719531" y="271.913538" style="stroke: #000000; stroke-width: 0.8"/>
      </g>
     </g>
     <g id="text_1">
      <!-- −7.5 -->
      <g transform="translate(145.436719 275.712757) scale(0.1 -0.1)">
       <defs>
        <path id="DejaVuSans-2212" d="M 678 2272 
L 4684 2272 
L 4684 1741 
L 678 1741 
L 678 2272 
z
" transform="scale(0.015625)"/>
        <path id="DejaVuSans-37" d="M 525 4666 
L 3525 4666 
L 3525 4397 
L 1831 0 
L 1172 0 
L 2766 4134 
L 525 4134 
L 525 4666 
z
" transform="scale(0.015625)"/>
        <path id="DejaVuSans-2e" d="M 684 794 
L 1344 794 
L 1344 0 
L 684 0 
L 684 794 
z
" transform="scale(0.015625)"/>
        <path id="DejaVuSans-35" d="M 691 4666 
L 3169 4666 
L 3169 4134 
L 1269 4134 
L 1269 2991 
Q 1406 3038 1543 3061 
Q 1681 3084 1819 3084 
Q 2600 3084 3056 2656 
Q 3513 2228 3513 1497 
Q 3513 744 3044 326 
Q 2575 -91 1722 -91 
Q 1428 -91 1123 -41 
Q 819 9 494 109 
L 494 744 
Q 775 591 1075 516 
Q 1375 441 1709 441 
Q 2250 441 2565 725 
Q 2881 1009 2881 1497 
Q 2881 1984 2565 2268 
Q 2250 2553 1709 2553 
Q 1456 2553 1204 2497 
Q 953 2441 691 2322 
L 691 4666 
z
" transform="scale(0.015625)"/>
       </defs>
       <use xlink:href="#DejaVuSans-2212"/>
       <use xlink:href="#DejaVuSans-37" x="83.789062"/>
       <use xlink:href="#DejaVuSans-2e" x="147.412109"/>
       <use xlink:href="#DejaVuSans-35" x="179.199219"/>
      </g>
     </g>
    </g>
    <g id="ytick_2">
     <g id="line2d_17">
      <path d="M 176.719531 241.424205 
L 537.824531 241.424205 
" clip-path="url(#p718ded4776)" style="fill: none; stroke: #b0b0b0; stroke-width: 0.8; stroke-linecap: square"/>
     </g>
     <g id="line2d_18">
      <g>
       <use xlink:href="#mebd4424f55" x="176.719531" y="241.424205" style="stroke: #000000; stroke-width: 0.8"/>
      </g>
     </g>
     <g id="text_2">
      <!-- −5.0 -->
      <g transform="translate(145.436719 245.223423) scale(0.1 -0.1)">
       <defs>
        <path id="DejaVuSans-30" d="M 2034 4250 
Q 1547 4250 1301 3770 
Q 1056 3291 1056 2328 
Q 1056 1369 1301 889 
Q 1547 409 2034 409 
Q 2525 409 2770 889 
Q 3016 1369 3016 2328 
Q 3016 3291 2770 3770 
Q 2525 4250 2034 4250 
z
M 2034 4750 
Q 2819 4750 3233 4129 
Q 3647 3509 3647 2328 
Q 3647 1150 3233 529 
Q 2819 -91 2034 -91 
Q 1250 -91 836 529 
Q 422 1150 422 2328 
Q 422 3509 836 4129 
Q 1250 4750 2034 4750 
z
" transform="scale(0.015625)"/>
       </defs>
       <use xlink:href="#DejaVuSans-2212"/>
       <use xlink:href="#DejaVuSans-35" x="83.789062"/>
       <use xlink:href="#DejaVuSans-2e" x="147.412109"/>
       <use xlink:href="#DejaVuSans-30" x="179.199219"/>
      </g>
     </g>
    </g>
    <g id="ytick_3">
     <g id="line2d_19">
      <path d="M 176.719531 210.934872 
L 537.824531 210.934872 
" clip-path="url(#p718ded4776)" style="fill: none; stroke: #b0b0b0; stroke-width: 0.8; stroke-linecap: square"/>
     </g>
     <g id="line2d_20">
      <g>
       <use xlink:href="#mebd4424f55" x="176.719531" y="210.934872" style="stroke: #000000; stroke-width: 0.8"/>
      </g>
     </g>
     <g id="text_3">
      <!-- −2.5 -->
      <g transform="translate(145.436719 214.73409) scale(0.1 -0.1)">
       <defs>
        <path id="DejaVuSans-32" d="M 1228 531 
L 3431 531 
L 3431 0 
L 469 0 
L 469 531 
Q 828 903 1448 1529 
Q 2069 2156 2228 2338 
Q 2531 2678 2651 2914 
Q 2772 3150 2772 3378 
Q 2772 3750 2511 3984 
Q 2250 4219 1831 4219 
Q 1534 4219 1204 4116 
Q 875 4013 500 3803 
L 500 4441 
Q 881 4594 1212 4672 
Q 1544 4750 1819 4750 
Q 2544 4750 2975 4387 
Q 3406 4025 3406 3419 
Q 3406 3131 3298 2873 
Q 3191 2616 2906 2266 
Q 2828 2175 2409 1742 
Q 1991 1309 1228 531 
z
" transform="scale(0.015625)"/>
       </defs>
       <use xlink:href="#DejaVuSans-2212"/>
       <use xlink:href="#DejaVuSans-32" x="83.789062"/>
       <use xlink:href="#DejaVuSans-2e" x="147.412109"/>
       <use xlink:href="#DejaVuSans-35" x="179.199219"/>
      </g>
     </g>
    </g>
    <g id="ytick_4">
     <g id="line2d_21">
      <path d="M 176.719531 180.445539 
L 537.824531 180.445539 
" clip-path="url(#p718ded4776)" style="fill: none; stroke: #b0b0b0; stroke-width: 0.8; stroke-linecap: square"/>
     </g>
     <g id="line2d_22">
      <g>
       <use xlink:href="#mebd4424f55" x="176.719531" y="180.445539" style="stroke: #000000; stroke-width: 0.8"/>
      </g>
     </g>
     <g id="text_4">
      <!-- 0.0 -->
      <g transform="translate(153.816406 184.244757) scale(0.1 -0.1)">
       <use xlink:href="#DejaVuSans-30"/>
       <use xlink:href="#DejaVuSans-2e" x="63.623047"/>
       <use xlink:href="#DejaVuSans-30" x="95.410156"/>
      </g>
     </g>
    </g>
    <g id="ytick_5">
     <g id="line2d_23">
      <path d="M 176.719531 149.956205 
L 537.824531 149.956205 
" clip-path="url(#p718ded4776)" style="fill: none; stroke: #b0b0b0; stroke-width: 0.8; stroke-linecap: square"/>
     </g>
     <g id="line2d_24">
      <g>
       <use xlink:href="#mebd4424f55" x="176.719531" y="149.956205" style="stroke: #000000; stroke-width: 0.8"/>
      </g>
     </g>
     <g id="text_5">
      <!-- 2.5 -->
      <g transform="translate(153.816406 153.755424) scale(0.1 -0.1)">
       <use xlink:href="#DejaVuSans-32"/>
       <use xlink:href="#DejaVuSans-2e" x="63.623047"/>
       <use xlink:href="#DejaVuSans-35" x="95.410156"/>
      </g>
     </g>
    </g>
    <g id="ytick_6">
     <g id="line2d_25">
      <path d="M 176.719531 119.466872 
L 537.824531 119.466872 
" clip-path="url(#p718ded4776)" style="fill: none; stroke: #b0b0b0; stroke-width: 0.8; stroke-linecap: square"/>
     </g>
     <g id="line2d_26">
      <g>
       <use xlink:href="#mebd4424f55" x="176.719531" y="119.466872" style="stroke: #000000; stroke-width: 0.8"/>
      </g>
     </g>
     <g id="text_6">
      <!-- 5.0 -->
      <g transform="translate(153.816406 123.266091) scale(0.1 -0.1)">
       <use xlink:href="#DejaVuSans-35"/>
       <use xlink:href="#DejaVuSans-2e" x="63.623047"/>
       <use xlink:href="#DejaVuSans-30" x="95.410156"/>
      </g>
     </g>
    </g>
    <g id="ytick_7">
     <g id="line2d_27">
      <path d="M 176.719531 88.977539 
L 537.824531 88.977539 
" clip-path="url(#p718ded4776)" style="fill: none; stroke: #b0b0b0; stroke-width: 0.8; stroke-linecap: square"/>
     </g>
     <g id="line2d_28">
      <g>
       <use xlink:href="#mebd4424f55" x="176.719531" y="88.977539" style="stroke: #000000; stroke-width: 0.8"/>
      </g>
     </g>
     <g id="text_7">
      <!-- 7.5 -->
      <g transform="translate(153.816406 92.776758) scale(0.1 -0.1)">
       <use xlink:href="#DejaVuSans-37"/>
       <use xlink:href="#DejaVuSans-2e" x="63.623047"/>
       <use xlink:href="#DejaVuSans-35" x="95.410156"/>
      </g>
     </g>
    </g>
    <g id="ytick_8">
     <g id="line2d_29">
      <path d="M 176.719531 58.488206 
L 537.824531 58.488206 
" clip-path="url(#p718ded4776)" style="fill: none; stroke: #b0b0b0; stroke-width: 0.8; stroke-linecap: square"/>
     </g>
     <g id="line2d_30">
      <g>
       <use xlink:href="#mebd4424f55" x="176.719531" y="58.488206" style="stroke: #000000; stroke-width: 0.8"/>
      </g>
     </g>
     <g id="text_8">
      <!-- 10.0 -->
      <g transform="translate(147.453906 62.287425) scale(0.1 -0.1)">
       <defs>
        <path id="DejaVuSans-31" d="M 794 531 
L 1825 531 
L 1825 4091 
L 703 3866 
L 703 4441 
L 1819 4666 
L 2450 4666 
L 2450 531 
L 3481 531 
L 3481 0 
L 794 0 
L 794 531 
z
" transform="scale(0.015625)"/>
       </defs>
       <use xlink:href="#DejaVuSans-31"/>
       <use xlink:href="#DejaVuSans-30" x="63.623047"/>
       <use xlink:href="#DejaVuSans-2e" x="127.246094"/>
       <use xlink:href="#DejaVuSans-30" x="159.033203"/>
      </g>
     </g>
    </g>
    <g id="text_9">
     <!-- ΔF/F (%) -->
     <g transform="translate(138.941094 188.600101) rotate(-90) scale(0.12 -0.12)">
      <defs>
       <path id="DejaVuSans-394" d="M 2188 4044 
L 906 525 
L 3472 525 
L 2188 4044 
z
M 50 0 
L 1831 4666 
L 2547 4666 
L 4325 0 
L 50 0 
z
" transform="scale(0.015625)"/>
       <path id="DejaVuSans-46" d="M 628 4666 
L 3309 4666 
L 3309 4134 
L 1259 4134 
L 1259 2759 
L 3109 2759 
L 3109 2228 
L 1259 2228 
L 1259 0 
L 628 0 
L 628 4666 
z
" transform="scale(0.015625)"/>
       <path id="DejaVuSans-2f" d="M 1625 4666 
L 2156 4666 
L 531 -594 
L 0 -594 
L 1625 4666 
z
" transform="scale(0.015625)"/>
       <path id="DejaVuSans-20" transform="scale(0.015625)"/>
       <path id="DejaVuSans-28" d="M 1984 4856 
Q 1566 4138 1362 3434 
Q 1159 2731 1159 2009 
Q 1159 1288 1364 580 
Q 1569 -128 1984 -844 
L 1484 -844 
Q 1016 -109 783 600 
Q 550 1309 550 2009 
Q 550 2706 781 3412 
Q 1013 4119 1484 4856 
L 1984 4856 
z
" transform="scale(0.015625)"/>
       <path id="DejaVuSans-25" d="M 4653 2053 
Q 4381 2053 4226 1822 
Q 4072 1591 4072 1178 
Q 4072 772 4226 539 
Q 4381 306 4653 306 
Q 4919 306 5073 539 
Q 5228 772 5228 1178 
Q 5228 1588 5073 1820 
Q 4919 2053 4653 2053 
z
M 4653 2450 
Q 5147 2450 5437 2106 
Q 5728 1763 5728 1178 
Q 5728 594 5436 251 
Q 5144 -91 4653 -91 
Q 4153 -91 3862 251 
Q 3572 594 3572 1178 
Q 3572 1766 3864 2108 
Q 4156 2450 4653 2450 
z
M 1428 4353 
Q 1159 4353 1004 4120 
Q 850 3888 850 3481 
Q 850 3069 1003 2837 
Q 1156 2606 1428 2606 
Q 1700 2606 1854 2837 
Q 2009 3069 2009 3481 
Q 2009 3884 1853 4118 
Q 1697 4353 1428 4353 
z
M 4250 4750 
L 4750 4750 
L 1831 -91 
L 1331 -91 
L 4250 4750 
z
M 1428 4750 
Q 1922 4750 2215 4408 
Q 2509 4066 2509 3481 
Q 2509 2891 2217 2550 
Q 1925 2209 1428 2209 
Q 931 2209 642 2551 
Q 353 2894 353 3481 
Q 353 4063 643 4406 
Q 934 4750 1428 4750 
z
" transform="scale(0.015625)"/>
       <path id="DejaVuSans-29" d="M 513 4856 
L 1013 4856 
Q 1481 4119 1714 3412 
Q 1947 2706 1947 2009 
Q 1947 1309 1714 600 
Q 1481 -109 1013 -844 
L 513 -844 
Q 928 -128 1133 580 
Q 1338 1288 1338 2009 
Q 1338 2731 1133 3434 
Q 928 4138 513 4856 
z
" transform="scale(0.015625)"/>
      </defs>
      <use xlink:href="#DejaVuSans-394"/>
      <use xlink:href="#DejaVuSans-46" x="68.408203"/>
      <use xlink:href="#DejaVuSans-2f" x="125.927734"/>
      <use xlink:href="#DejaVuSans-46" x="159.619141"/>
      <use xlink:href="#DejaVuSans-20" x="217.138672"/>
      <use xlink:href="#DejaVuSans-28" x="248.925781"/>
      <use xlink:href="#DejaVuSans-25" x="287.939453"/>
      <use xlink:href="#DejaVuSans-29" x="382.958984"/>
     </g>
    </g>
   </g>
   <g id="line2d_31">
    <path d="M 176.719531 179.955669 
L 181.632524 178.5108 
L 184.089021 178.227285 
L 186.545518 178.579279 
L 191.458511 180.004851 
L 193.915007 180.280447 
L 196.371504 179.952023 
L 198.828001 179.075385 
L 201.284497 177.419865 
L 203.740994 174.235456 
L 206.19749 169.037578 
L 208.653987 162.058628 
L 213.56698 145.090439 
L 216.023477 138.496097 
L 218.479973 135.94419 
L 220.93647 137.019462 
L 225.849463 141.946324 
L 228.30596 144.138231 
L 230.762456 146.616596 
L 233.218953 149.509322 
L 235.67545 152.632572 
L 238.131946 155.477042 
L 240.588443 157.245152 
L 243.044939 157.832232 
L 247.957933 158.4415 
L 250.414429 157.352434 
L 252.870926 153.849512 
L 255.327422 149.21798 
L 257.783919 146.001929 
L 260.240416 145.397761 
L 262.696912 146.249559 
L 265.153409 146.90155 
L 267.609905 147.29476 
L 270.066402 148.193598 
L 272.522899 149.439183 
L 274.979395 150.278679 
L 277.435892 150.686961 
L 279.892388 151.385288 
L 282.348885 152.758566 
L 287.261878 156.257669 
L 292.174871 160.107856 
L 294.631368 160.769589 
L 297.087865 159.202336 
L 302.000858 152.966943 
L 304.457354 150.990824 
L 306.913851 150.034846 
L 309.370348 149.642177 
L 311.826844 149.532167 
L 314.283341 149.73152 
L 319.196334 150.767218 
L 321.652831 151.561805 
L 324.109327 153.245645 
L 326.565824 155.809032 
L 329.02232 158.538333 
L 331.478817 160.928289 
L 333.935314 162.751593 
L 336.39181 163.72717 
L 338.848307 163.843198 
L 341.304803 163.548657 
L 343.7613 163.404281 
L 346.217797 163.840569 
L 348.674293 165.154226 
L 351.13079 167.415535 
L 353.587286 170.131257 
L 356.043783 172.364565 
L 358.50028 173.499771 
L 360.956776 173.589455 
L 363.413273 173.198437 
L 365.869769 173.087232 
L 368.326266 173.649362 
L 370.782763 174.762137 
L 373.239259 176.203522 
L 375.695756 177.776166 
L 378.152252 179.149017 
L 380.608749 180.022073 
L 385.521742 180.774243 
L 387.978239 181.429967 
L 390.434735 182.332515 
L 392.891232 183.018249 
L 395.347729 183.192564 
L 397.804225 183.231358 
L 400.260722 183.96318 
L 405.173715 187.090446 
L 407.630212 187.71486 
L 410.086708 187.183486 
L 422.369191 180.832216 
L 424.825688 179.857181 
L 429.738681 178.26514 
L 432.195178 177.758567 
L 434.651674 177.621722 
L 437.108171 177.311668 
L 439.564667 175.857463 
L 444.477661 170.170651 
L 446.934157 168.700117 
L 449.390654 168.967697 
L 451.84715 170.201912 
L 454.303647 171.256089 
L 456.760143 171.01907 
L 461.673137 167.764018 
L 464.129633 167.57573 
L 466.58613 168.073843 
L 469.042626 167.805337 
L 471.499123 166.666892 
L 473.95562 165.839785 
L 476.412116 166.260162 
L 478.868613 167.689653 
L 483.781606 171.078529 
L 486.238103 172.100235 
L 491.151096 172.366645 
L 493.607592 173.263516 
L 496.064089 174.86921 
L 500.977082 178.796639 
L 503.433579 180.47748 
L 505.890075 181.55229 
L 508.346572 182.115629 
L 510.803069 182.229402 
L 513.259565 181.798388 
L 515.716062 181.076014 
L 518.172558 180.482932 
L 520.629055 180.159062 
L 523.085552 180.013659 
L 525.542048 179.732808 
L 527.998545 178.98435 
L 530.455041 177.823042 
L 535.368035 175.218756 
L 537.824531 174.582123 
L 537.824531 174.582123 
" clip-path="url(#p718ded4776)" style="fill: none; stroke: #1f77b4; stroke-opacity: 0.4; stroke-width: 1.5; stroke-linecap: square"/>
   </g>
   <g id="line2d_32">
    <path d="M 176.719531 142.064367 
L 179.176028 142.578406 
L 181.632524 142.58713 
L 184.089021 141.885644 
L 186.545518 140.251586 
L 189.002014 138.411269 
L 191.458511 137.727998 
L 193.915007 138.420799 
L 198.828001 140.577925 
L 201.284497 141.706911 
L 203.740994 143.335678 
L 206.19749 145.313351 
L 208.653987 146.965542 
L 211.110484 147.983489 
L 213.56698 148.82 
L 216.023477 149.898082 
L 218.479973 150.70558 
L 220.93647 150.0327 
L 223.392967 147.246716 
L 225.849463 143.135161 
L 228.30596 139.261902 
L 230.762456 136.640647 
L 233.218953 135.411856 
L 235.67545 135.436666 
L 238.131946 136.479663 
L 240.588443 138.142751 
L 243.044939 140.159478 
L 247.957933 144.88526 
L 250.414429 146.781616 
L 252.870926 147.778672 
L 255.327422 148.057731 
L 257.783919 147.908287 
L 260.240416 147.496367 
L 262.696912 147.479168 
L 265.153409 148.857039 
L 267.609905 151.866628 
L 270.066402 155.6527 
L 272.522899 158.920052 
L 274.979395 160.898795 
L 277.435892 161.803971 
L 279.892388 162.182488 
L 282.348885 162.252064 
L 284.805382 161.88859 
L 289.718375 159.926558 
L 292.174871 159.972644 
L 294.631368 161.717025 
L 297.087865 164.490754 
L 299.544361 166.98005 
L 302.000858 168.22242 
L 304.457354 168.113848 
L 309.370348 166.483465 
L 316.739837 164.531389 
L 319.196334 164.185616 
L 321.652831 164.498284 
L 324.109327 165.456652 
L 326.565824 166.534931 
L 331.478817 168.478409 
L 333.935314 169.718023 
L 336.39181 170.809134 
L 338.848307 171.37309 
L 341.304803 171.095946 
L 343.7613 170.129673 
L 346.217797 169.401966 
L 348.674293 169.568822 
L 351.13079 170.06578 
L 353.587286 170.009817 
L 360.956776 168.40916 
L 363.413273 167.648258 
L 365.869769 167.148555 
L 368.326266 167.292722 
L 373.239259 168.828645 
L 375.695756 169.269763 
L 380.608749 169.119695 
L 383.065246 169.720311 
L 385.521742 171.31249 
L 387.978239 173.113808 
L 390.434735 174.434933 
L 392.891232 175.190735 
L 395.347729 175.241741 
L 397.804225 174.406201 
L 402.717218 171.689369 
L 405.173715 170.802882 
L 407.630212 170.277198 
L 410.086708 170.124615 
L 412.543205 170.655014 
L 414.999701 172.067402 
L 417.456198 173.964742 
L 419.912695 175.591919 
L 422.369191 176.25045 
L 424.825688 175.086895 
L 427.282184 171.560721 
L 429.738681 166.870265 
L 432.195178 163.318549 
L 434.651674 161.701709 
L 439.564667 160.237396 
L 442.021164 159.087454 
L 444.477661 157.615156 
L 446.934157 156.407415 
L 449.390654 156.387408 
L 451.84715 157.952206 
L 454.303647 160.334845 
L 456.760143 162.178708 
L 459.21664 162.754342 
L 461.673137 162.053919 
L 464.129633 160.191418 
L 466.58613 157.764537 
L 469.042626 155.961812 
L 471.499123 155.259348 
L 473.95562 155.071272 
L 476.412116 155.246444 
L 478.868613 156.366886 
L 481.325109 158.299039 
L 483.781606 160.077956 
L 488.694599 162.524071 
L 491.151096 164.570151 
L 496.064089 169.895219 
L 498.520586 171.695362 
L 503.433579 174.203699 
L 505.890075 175.764574 
L 508.346572 177.48798 
L 513.259565 181.460874 
L 515.716062 182.47705 
L 518.172558 181.811899 
L 520.629055 180.116193 
L 523.085552 178.722637 
L 525.542048 178.214179 
L 527.998545 178.103528 
L 530.455041 177.393282 
L 532.911538 175.417898 
L 535.368035 172.715924 
L 537.824531 170.717976 
L 537.824531 170.717976 
" clip-path="url(#p718ded4776)" style="fill: none; stroke: #ff7f0e; stroke-opacity: 0.4; stroke-width: 1.5; stroke-linecap: square"/>
   </g>
   <g id="line2d_33">
    <path d="M 176.719531 169.339828 
L 179.176028 168.599697 
L 181.632524 163.826962 
L 184.089021 157.781871 
L 186.545518 154.801978 
L 189.002014 156.163759 
L 191.458511 158.759619 
L 193.915007 159.827623 
L 196.371504 159.199419 
L 198.828001 157.693355 
L 201.284497 157.088541 
L 203.740994 158.860504 
L 208.653987 165.870994 
L 211.110484 168.05573 
L 213.56698 167.526084 
L 216.023477 164.594011 
L 218.479973 160.976174 
L 220.93647 158.072384 
L 223.392967 156.556555 
L 225.849463 156.380257 
L 228.30596 157.043434 
L 230.762456 158.239876 
L 233.218953 159.795622 
L 235.67545 161.127193 
L 238.131946 161.817203 
L 240.588443 162.725345 
L 243.044939 164.359808 
L 245.501436 165.174863 
L 247.957933 164.038223 
L 250.414429 162.09087 
L 252.870926 160.710907 
L 255.327422 159.867964 
L 257.783919 158.88751 
L 265.153409 155.085513 
L 267.609905 153.267826 
L 270.066402 151.064155 
L 272.522899 148.580172 
L 274.979395 146.565124 
L 277.435892 146.25866 
L 279.892388 148.209244 
L 282.348885 151.575938 
L 284.805382 154.275482 
L 287.261878 154.99582 
L 289.718375 153.944287 
L 292.174871 151.02456 
L 294.631368 146.405616 
L 297.087865 142.316384 
L 299.544361 141.250835 
L 302.000858 142.973208 
L 304.457354 145.077637 
L 306.913851 146.39483 
L 309.370348 148.448593 
L 311.826844 152.916103 
L 314.283341 158.886984 
L 316.739837 163.387804 
L 319.196334 163.891078 
L 321.652831 160.273059 
L 324.109327 154.555024 
L 326.565824 149.312402 
L 329.02232 146.938621 
L 331.478817 148.505819 
L 333.935314 152.440666 
L 336.39181 156.059287 
L 338.848307 157.787488 
L 341.304803 157.390333 
L 343.7613 155.780091 
L 346.217797 154.381024 
L 348.674293 153.904574 
L 351.13079 154.357231 
L 353.587286 155.877949 
L 358.50028 160.769725 
L 363.413273 164.448127 
L 365.869769 166.959307 
L 368.326266 170.336543 
L 370.782763 173.242598 
L 373.239259 173.475495 
L 375.695756 170.887202 
L 378.152252 167.756192 
L 380.608749 166.215576 
L 383.065246 167.197115 
L 385.521742 170.469006 
L 387.978239 174.41628 
L 390.434735 176.78089 
L 392.891232 175.860516 
L 395.347729 171.50426 
L 397.804225 165.632722 
L 400.260722 160.868203 
L 402.717218 158.052011 
L 410.086708 152.025582 
L 412.543205 150.892267 
L 414.999701 150.810036 
L 417.456198 151.278923 
L 422.369191 151.527237 
L 424.825688 152.60186 
L 427.282184 154.274553 
L 429.738681 155.642518 
L 432.195178 156.308449 
L 434.651674 156.55341 
L 437.108171 156.910804 
L 439.564667 157.702483 
L 442.021164 159.351092 
L 444.477661 161.952999 
L 446.934157 164.297647 
L 449.390654 164.623231 
L 451.84715 162.29119 
L 454.303647 158.704029 
L 456.760143 156.82589 
L 459.21664 158.188741 
L 461.673137 160.241733 
L 464.129633 159.321824 
L 466.58613 155.660424 
L 469.042626 152.33419 
L 471.499123 150.384259 
L 473.95562 148.637404 
L 476.412116 147.877543 
L 478.868613 150.607096 
L 481.325109 156.325388 
L 483.781606 161.235043 
L 486.238103 162.567509 
L 488.694599 160.777479 
L 493.607592 154.854541 
L 496.064089 153.181112 
L 498.520586 153.97361 
L 500.977082 156.892094 
L 505.890075 163.709602 
L 508.346572 168.516144 
L 510.803069 174.618163 
L 513.259565 179.414981 
L 515.716062 180.862071 
L 523.085552 178.413489 
L 525.542048 175.866162 
L 530.455041 165.994557 
L 532.911538 162.808623 
L 535.368035 161.275021 
L 537.824531 160.569612 
L 537.824531 160.569612 
" clip-path="url(#p718ded4776)" style="fill: none; stroke: #2ca02c; stroke-opacity: 0.4; stroke-width: 1.5; stroke-linecap: square"/>
   </g>
   <g id="line2d_34">
    <path d="M 176.719531 179.095864 
L 184.089021 175.766561 
L 186.545518 175.532193 
L 189.002014 176.032422 
L 191.458511 176.929904 
L 196.371504 178.949654 
L 198.828001 179.77697 
L 201.284497 180.334527 
L 203.740994 180.554575 
L 206.19749 180.465515 
L 208.653987 180.090715 
L 213.56698 178.575924 
L 216.023477 178.20681 
L 218.479973 178.467073 
L 223.392967 179.898774 
L 230.762456 182.096344 
L 233.218953 182.5444 
L 235.67545 182.250504 
L 238.131946 181.395892 
L 240.588443 180.770937 
L 245.501436 180.349765 
L 247.957933 179.753879 
L 255.327422 177.588483 
L 257.783919 176.251881 
L 262.696912 172.641709 
L 265.153409 171.567933 
L 267.609905 170.859549 
L 270.066402 169.91515 
L 272.522899 168.498021 
L 277.435892 164.973622 
L 279.892388 163.873374 
L 282.348885 163.506267 
L 284.805382 163.534283 
L 287.261878 163.82953 
L 289.718375 164.517774 
L 294.631368 166.460788 
L 297.087865 167.163142 
L 299.544361 168.325879 
L 304.457354 172.704777 
L 306.913851 174.016077 
L 309.370348 174.471741 
L 311.826844 174.72733 
L 314.283341 174.783944 
L 319.196334 174.006942 
L 321.652831 174.160933 
L 326.565824 175.203389 
L 331.478817 175.862111 
L 333.935314 175.932076 
L 336.39181 175.392857 
L 338.848307 174.38048 
L 341.304803 173.743157 
L 343.7613 174.154759 
L 348.674293 176.350614 
L 351.13079 176.628677 
L 353.587286 175.796843 
L 356.043783 174.133538 
L 358.50028 172.618481 
L 360.956776 172.184132 
L 363.413273 172.811321 
L 373.239259 176.788313 
L 375.695756 177.498606 
L 378.152252 177.481889 
L 380.608749 177.094169 
L 383.065246 177.292837 
L 385.521742 178.449278 
L 387.978239 179.859696 
L 390.434735 180.684102 
L 392.891232 180.798093 
L 395.347729 180.562597 
L 397.804225 180.178853 
L 400.260722 179.526979 
L 405.173715 177.767488 
L 407.630212 177.23024 
L 410.086708 177.00803 
L 414.999701 177.011522 
L 417.456198 176.615467 
L 419.912695 175.923352 
L 422.369191 175.377237 
L 427.282184 174.910299 
L 429.738681 174.815943 
L 434.651674 174.945816 
L 437.108171 175.123659 
L 439.564667 175.489146 
L 444.477661 176.561247 
L 446.934157 176.606092 
L 449.390654 176.293302 
L 451.84715 176.247776 
L 454.303647 176.842572 
L 456.760143 177.805434 
L 459.21664 178.495149 
L 464.129633 178.668184 
L 469.042626 179.545301 
L 471.499123 179.566239 
L 473.95562 178.930402 
L 476.412116 177.457051 
L 478.868613 175.151745 
L 481.325109 172.577012 
L 483.781606 170.330623 
L 486.238103 168.620413 
L 488.694599 167.518292 
L 491.151096 167.034655 
L 493.607592 167.102763 
L 496.064089 167.708061 
L 498.520586 168.86451 
L 500.977082 170.547555 
L 503.433579 172.516204 
L 505.890075 174.190961 
L 515.716062 178.470104 
L 518.172558 178.977223 
L 520.629055 179.039309 
L 523.085552 178.977209 
L 525.542048 179.088183 
L 527.998545 179.649303 
L 530.455041 180.870317 
L 532.911538 182.445867 
L 535.368035 183.619859 
L 537.824531 183.998252 
L 537.824531 183.998252 
" clip-path="url(#p718ded4776)" style="fill: none; stroke: #d62728; stroke-opacity: 0.4; stroke-width: 1.5; stroke-linecap: square"/>
   </g>
   <g id="line2d_35">
    <path d="M 176.719531 183.983979 
L 179.176028 183.820197 
L 186.545518 182.194072 
L 189.002014 181.628194 
L 196.371504 179.155958 
L 201.284497 176.938941 
L 203.740994 176.538778 
L 206.19749 177.275812 
L 208.653987 178.448732 
L 211.110484 179.189787 
L 213.56698 179.417889 
L 216.023477 179.490517 
L 218.479973 179.389225 
L 220.93647 178.696969 
L 223.392967 177.297966 
L 225.849463 175.615366 
L 228.30596 174.322846 
L 230.762456 174.058388 
L 235.67545 175.638287 
L 238.131946 175.910932 
L 243.044939 175.679949 
L 245.501436 175.658181 
L 247.957933 175.454698 
L 250.414429 174.673036 
L 252.870926 173.46813 
L 255.327422 172.736829 
L 257.783919 172.835554 
L 260.240416 173.108797 
L 262.696912 173.232468 
L 265.153409 173.65812 
L 270.066402 175.516028 
L 272.522899 176.028342 
L 274.979395 176.020023 
L 277.435892 175.800659 
L 282.348885 175.694852 
L 284.805382 175.318121 
L 289.718375 173.54927 
L 292.174871 173.054802 
L 294.631368 173.172049 
L 297.087865 173.759565 
L 302.000858 175.504826 
L 304.457354 176.182439 
L 306.913851 176.417611 
L 309.370348 176.134632 
L 311.826844 175.324646 
L 314.283341 173.866891 
L 319.196334 169.844346 
L 321.652831 168.463811 
L 324.109327 167.82225 
L 329.02232 167.215248 
L 331.478817 166.60878 
L 333.935314 165.857925 
L 336.39181 164.715644 
L 338.848307 162.539623 
L 341.304803 159.229612 
L 343.7613 155.711051 
L 346.217797 153.080669 
L 348.674293 151.661132 
L 351.13079 151.192442 
L 353.587286 151.416409 
L 358.50028 152.77559 
L 360.956776 153.264819 
L 365.869769 154.005622 
L 368.326266 154.232874 
L 370.782763 154.064639 
L 375.695756 152.965564 
L 378.152252 152.656341 
L 380.608749 152.60313 
L 383.065246 152.887832 
L 385.521742 153.931681 
L 387.978239 155.870316 
L 390.434735 158.326201 
L 395.347729 163.530401 
L 397.804225 165.496346 
L 400.260722 166.769588 
L 402.717218 167.52525 
L 405.173715 167.802374 
L 407.630212 167.763627 
L 410.086708 167.886814 
L 414.999701 168.937652 
L 417.456198 168.797703 
L 422.369191 167.244132 
L 424.825688 166.740988 
L 427.282184 166.528842 
L 429.738681 166.656896 
L 432.195178 167.309324 
L 437.108171 169.271713 
L 439.564667 169.843194 
L 444.477661 170.481123 
L 446.934157 170.79456 
L 449.390654 171.509992 
L 451.84715 172.981188 
L 454.303647 175.247777 
L 456.760143 177.935278 
L 459.21664 180.39015 
L 461.673137 181.975086 
L 464.129633 182.388681 
L 466.58613 181.953209 
L 476.412116 179.497504 
L 481.325109 178.093922 
L 486.238103 177.075065 
L 493.607592 174.92612 
L 496.064089 174.363201 
L 498.520586 173.580695 
L 500.977082 172.676564 
L 503.433579 172.073542 
L 505.890075 171.972878 
L 508.346572 172.072895 
L 510.803069 171.867185 
L 513.259565 171.200479 
L 515.716062 170.386088 
L 518.172558 169.746428 
L 523.085552 168.927663 
L 527.998545 168.336163 
L 530.455041 167.812169 
L 532.911538 166.787896 
L 535.368035 164.852396 
L 537.824531 162.165058 
L 537.824531 162.165058 
" clip-path="url(#p718ded4776)" style="fill: none; stroke: #9467bd; stroke-opacity: 0.4; stroke-width: 1.5; stroke-linecap: square"/>
   </g>
   <g id="line2d_36">
    <path d="M 176.719531 130.475478 
L 179.176028 132.394022 
L 181.632524 132.942321 
L 186.545518 129.118585 
L 189.002014 130.02179 
L 191.458511 132.981691 
L 193.915007 135.180662 
L 196.371504 136.139039 
L 198.828001 137.349116 
L 201.284497 139.751244 
L 206.19749 146.950142 
L 208.653987 149.523714 
L 211.110484 150.576925 
L 213.56698 150.481976 
L 216.023477 149.877764 
L 218.479973 148.62633 
L 220.93647 145.027637 
L 223.392967 137.732 
L 225.849463 128.480309 
L 228.30596 120.804265 
L 230.762456 116.640968 
L 233.218953 115.489336 
L 235.67545 115.33614 
L 238.131946 114.434203 
L 240.588443 112.493302 
L 243.044939 110.140007 
L 245.501436 108.499478 
L 247.957933 108.370627 
L 250.414429 109.511305 
L 252.870926 111.691159 
L 255.327422 115.150711 
L 257.783919 119.438025 
L 260.240416 123.172057 
L 262.696912 125.589988 
L 265.153409 126.752738 
L 267.609905 125.911102 
L 270.066402 122.861959 
L 272.522899 120.451051 
L 274.979395 121.566904 
L 279.892388 129.304603 
L 282.348885 132.54634 
L 284.805382 135.602159 
L 287.261878 138.950189 
L 292.174871 146.312401 
L 294.631368 149.39779 
L 297.087865 151.149058 
L 299.544361 151.428984 
L 302.000858 150.893646 
L 304.457354 149.960133 
L 306.913851 148.764999 
L 309.370348 148.083896 
L 311.826844 148.47405 
L 314.283341 149.117094 
L 316.739837 148.880556 
L 319.196334 147.831178 
L 321.652831 146.167476 
L 324.109327 142.459447 
L 329.02232 129.743669 
L 331.478817 127.630993 
L 333.935314 129.573639 
L 336.39181 132.488213 
L 338.848307 133.482504 
L 341.304803 131.941777 
L 343.7613 129.52819 
L 346.217797 127.726014 
L 348.674293 126.489242 
L 351.13079 124.877406 
L 356.043783 119.510297 
L 358.50028 119.290979 
L 360.956776 121.64868 
L 363.413273 124.316411 
L 365.869769 126.726961 
L 368.326266 130.13965 
L 370.782763 134.237312 
L 373.239259 137.633963 
L 375.695756 138.927867 
L 378.152252 136.375432 
L 380.608749 130.598977 
L 383.065246 125.867689 
L 385.521742 126.248966 
L 387.978239 132.470515 
L 390.434735 141.760275 
L 392.891232 148.962924 
L 395.347729 150.608174 
L 397.804225 148.65398 
L 400.260722 147.690047 
L 402.717218 149.125936 
L 405.173715 149.564743 
L 407.630212 144.86912 
L 410.086708 135.540565 
L 412.543205 126.720691 
L 414.999701 122.093855 
L 419.912695 118.256432 
L 422.369191 114.461583 
L 424.825688 106.968564 
L 427.282184 96.676609 
L 429.738681 89.267699 
L 432.195178 88.191907 
L 434.651674 88.807725 
L 437.108171 84.608702 
L 439.564667 76.0277 
L 442.021164 68.079034 
L 444.477661 63.372873 
L 446.934157 62.189356 
L 449.390654 65.999447 
L 451.84715 76.093636 
L 454.303647 88.760048 
L 456.760143 96.816783 
L 459.21664 98.291341 
L 461.673137 99.191028 
L 464.129633 105.479396 
L 466.58613 116.049587 
L 469.042626 125.78327 
L 471.499123 131.921407 
L 473.95562 134.681795 
L 476.412116 134.722546 
L 478.868613 132.638212 
L 481.325109 129.101556 
L 483.781606 125.130718 
L 486.238103 123.890708 
L 488.694599 129.121547 
L 491.151096 139.997868 
L 493.607592 151.627962 
L 496.064089 160.372623 
L 498.520586 165.627525 
L 500.977082 168.144077 
L 503.433579 168.951753 
L 505.890075 169.035583 
L 508.346572 168.455593 
L 510.803069 166.288778 
L 513.259565 162.378558 
L 515.716062 157.390201 
L 518.172558 150.342263 
L 520.629055 139.167141 
L 525.542048 109.013568 
L 527.998545 97.857273 
L 530.455041 95.046942 
L 532.911538 101.804593 
L 535.368035 115.539509 
L 537.824531 132.512991 
L 537.824531 132.512991 
" clip-path="url(#p718ded4776)" style="fill: none; stroke: #8c564b; stroke-opacity: 0.4; stroke-width: 1.5; stroke-linecap: square"/>
   </g>
   <g id="line2d_37">
    <path d="M 176.719531 164.152531 
L 179.176028 164.102324 
L 181.632524 162.982192 
L 184.089021 161.240937 
L 186.545518 160.079615 
L 189.002014 160.260264 
L 191.458511 161.206268 
L 193.915007 161.941376 
L 196.371504 162.159206 
L 198.828001 162.093119 
L 201.284497 162.206672 
L 203.740994 162.800584 
L 206.19749 163.558216 
L 208.653987 163.826388 
L 211.110484 163.151472 
L 216.023477 160.09388 
L 220.93647 157.995968 
L 223.392967 156.380416 
L 225.849463 154.366955 
L 228.30596 152.823404 
L 230.762456 152.382137 
L 233.218953 152.923727 
L 235.67545 153.736894 
L 238.131946 154.252489 
L 245.501436 155.052158 
L 247.957933 155.157364 
L 250.414429 154.907807 
L 255.327422 153.769949 
L 257.783919 153.553864 
L 262.696912 153.607388 
L 267.609905 153.96153 
L 270.066402 153.867265 
L 272.522899 153.652804 
L 274.979395 153.67291 
L 277.435892 154.14593 
L 279.892388 155.113186 
L 282.348885 156.389004 
L 284.805382 157.516431 
L 287.261878 158.243269 
L 292.174871 159.334049 
L 294.631368 159.65381 
L 299.544361 159.773209 
L 304.457354 160.504943 
L 309.370348 160.544084 
L 311.826844 161.131423 
L 314.283341 161.92508 
L 316.739837 162.212254 
L 319.196334 161.754396 
L 321.652831 160.854228 
L 324.109327 159.709334 
L 326.565824 158.39828 
L 329.02232 157.571997 
L 331.478817 158.0024 
L 333.935314 159.378987 
L 336.39181 160.532051 
L 338.848307 160.567731 
L 341.304803 159.49158 
L 343.7613 158.118008 
L 346.217797 157.288507 
L 348.674293 157.188102 
L 353.587286 157.566786 
L 356.043783 157.653473 
L 358.50028 157.994277 
L 363.413273 159.34245 
L 365.869769 160.287362 
L 368.326266 161.732336 
L 370.782763 163.344126 
L 373.239259 164.410066 
L 375.695756 164.554195 
L 378.152252 163.776942 
L 380.608749 162.608937 
L 383.065246 162.233261 
L 385.521742 163.530944 
L 387.978239 166.19343 
L 390.434735 169.053153 
L 392.891232 170.802576 
L 395.347729 170.77329 
L 397.804225 169.59991 
L 400.260722 168.636922 
L 405.173715 168.177019 
L 407.630212 166.963297 
L 410.086708 164.961515 
L 412.543205 163.274583 
L 414.999701 162.59311 
L 417.456198 162.389015 
L 419.912695 161.888939 
L 422.369191 160.948809 
L 424.825688 159.392284 
L 427.282184 157.165903 
L 429.738681 155.253077 
L 432.195178 154.623181 
L 434.651674 154.663419 
L 437.108171 154.037993 
L 442.021164 150.973469 
L 444.477661 150.025675 
L 446.934157 149.832531 
L 449.390654 150.630179 
L 451.84715 152.627985 
L 454.303647 155.190893 
L 456.760143 157.096861 
L 459.21664 157.912345 
L 461.673137 158.308824 
L 464.129633 158.937539 
L 466.58613 159.762534 
L 469.042626 160.466237 
L 471.499123 160.780061 
L 473.95562 160.571177 
L 476.412116 160.176875 
L 478.868613 160.199921 
L 481.325109 160.638316 
L 483.781606 160.905245 
L 486.238103 160.92253 
L 488.694599 161.428043 
L 491.151096 162.883784 
L 496.064089 166.731571 
L 500.977082 169.995923 
L 505.890075 172.704315 
L 508.346572 173.988403 
L 510.803069 175.120323 
L 513.259565 175.615085 
L 515.716062 175.110255 
L 518.172558 173.566624 
L 520.629055 171.15987 
L 523.085552 168.222426 
L 525.542048 165.094296 
L 527.998545 162.325229 
L 530.455041 160.823385 
L 532.911538 160.959329 
L 535.368035 162.203577 
L 537.824531 164.091002 
L 537.824531 164.091002 
" clip-path="url(#p718ded4776)" style="fill: none; stroke: #000000; stroke-width: 2.5; stroke-linecap: square"/>
   </g>
   <g id="line2d_38">
    <path d="M 297.087865 274.485827 
L 297.087865 52.08 
" clip-path="url(#p718ded4776)" style="fill: none; stroke-dasharray: 5.55,2.4; stroke-dashoffset: 0; stroke: #000000; stroke-width: 1.5"/>
   </g>
   <g id="patch_3">
    <path d="M 176.719531 274.485827 
L 176.719531 52.08 
" style="fill: none; stroke: #000000; stroke-width: 0.8; stroke-linejoin: miter; stroke-linecap: square"/>
   </g>
   <g id="patch_4">
    <path d="M 537.824531 274.485827 
L 537.824531 52.08 
" style="fill: none; stroke: #000000; stroke-width: 0.8; stroke-linejoin: miter; stroke-linecap: square"/>
   </g>
   <g id="patch_5">
    <path d="M 176.719531 274.485827 
L 537.824531 274.485827 
" style="fill: none; stroke: #000000; stroke-width: 0.8; stroke-linejoin: miter; stroke-linecap: square"/>
   </g>
   <g id="patch_6">
    <path d="M 176.719531 52.08 
L 537.824531 52.08 
" style="fill: none; stroke: #000000; stroke-width: 0.8; stroke-linejoin: miter; stroke-linecap: square"/>
   </g>
   <g id="text_10">
    <!-- Preinduction | NE -->
    <g transform="translate(283.916172 46.08) scale(0.15 -0.15)">
     <defs>
      <path id="DejaVuSans-Bold-50" d="M 588 4666 
L 2584 4666 
Q 3475 4666 3951 4270 
Q 4428 3875 4428 3144 
Q 4428 2409 3951 2014 
Q 3475 1619 2584 1619 
L 1791 1619 
L 1791 0 
L 588 0 
L 588 4666 
z
M 1791 3794 
L 1791 2491 
L 2456 2491 
Q 2806 2491 2997 2661 
Q 3188 2831 3188 3144 
Q 3188 3456 2997 3625 
Q 2806 3794 2456 3794 
L 1791 3794 
z
" transform="scale(0.015625)"/>
      <path id="DejaVuSans-Bold-72" d="M 3138 2547 
Q 2991 2616 2845 2648 
Q 2700 2681 2553 2681 
Q 2122 2681 1889 2404 
Q 1656 2128 1656 1613 
L 1656 0 
L 538 0 
L 538 3500 
L 1656 3500 
L 1656 2925 
Q 1872 3269 2151 3426 
Q 2431 3584 2822 3584 
Q 2878 3584 2943 3579 
Q 3009 3575 3134 3559 
L 3138 2547 
z
" transform="scale(0.015625)"/>
      <path id="DejaVuSans-Bold-65" d="M 4031 1759 
L 4031 1441 
L 1416 1441 
Q 1456 1047 1700 850 
Q 1944 653 2381 653 
Q 2734 653 3104 758 
Q 3475 863 3866 1075 
L 3866 213 
Q 3469 63 3072 -14 
Q 2675 -91 2278 -91 
Q 1328 -91 801 392 
Q 275 875 275 1747 
Q 275 2603 792 3093 
Q 1309 3584 2216 3584 
Q 3041 3584 3536 3087 
Q 4031 2591 4031 1759 
z
M 2881 2131 
Q 2881 2450 2695 2645 
Q 2509 2841 2209 2841 
Q 1884 2841 1681 2658 
Q 1478 2475 1428 2131 
L 2881 2131 
z
" transform="scale(0.015625)"/>
      <path id="DejaVuSans-Bold-69" d="M 538 3500 
L 1656 3500 
L 1656 0 
L 538 0 
L 538 3500 
z
M 538 4863 
L 1656 4863 
L 1656 3950 
L 538 3950 
L 538 4863 
z
" transform="scale(0.015625)"/>
      <path id="DejaVuSans-Bold-6e" d="M 4056 2131 
L 4056 0 
L 2931 0 
L 2931 347 
L 2931 1631 
Q 2931 2084 2911 2256 
Q 2891 2428 2841 2509 
Q 2775 2619 2662 2680 
Q 2550 2741 2406 2741 
Q 2056 2741 1856 2470 
Q 1656 2200 1656 1722 
L 1656 0 
L 538 0 
L 538 3500 
L 1656 3500 
L 1656 2988 
Q 1909 3294 2193 3439 
Q 2478 3584 2822 3584 
Q 3428 3584 3742 3212 
Q 4056 2841 4056 2131 
z
" transform="scale(0.015625)"/>
      <path id="DejaVuSans-Bold-64" d="M 2919 2988 
L 2919 4863 
L 4044 4863 
L 4044 0 
L 2919 0 
L 2919 506 
Q 2688 197 2409 53 
Q 2131 -91 1766 -91 
Q 1119 -91 703 423 
Q 288 938 288 1747 
Q 288 2556 703 3070 
Q 1119 3584 1766 3584 
Q 2128 3584 2408 3439 
Q 2688 3294 2919 2988 
z
M 2181 722 
Q 2541 722 2730 984 
Q 2919 1247 2919 1747 
Q 2919 2247 2730 2509 
Q 2541 2772 2181 2772 
Q 1825 2772 1636 2509 
Q 1447 2247 1447 1747 
Q 1447 1247 1636 984 
Q 1825 722 2181 722 
z
" transform="scale(0.015625)"/>
      <path id="DejaVuSans-Bold-75" d="M 500 1363 
L 500 3500 
L 1625 3500 
L 1625 3150 
Q 1625 2866 1622 2436 
Q 1619 2006 1619 1863 
Q 1619 1441 1641 1255 
Q 1663 1069 1716 984 
Q 1784 875 1895 815 
Q 2006 756 2150 756 
Q 2500 756 2700 1025 
Q 2900 1294 2900 1772 
L 2900 3500 
L 4019 3500 
L 4019 0 
L 2900 0 
L 2900 506 
Q 2647 200 2364 54 
Q 2081 -91 1741 -91 
Q 1134 -91 817 281 
Q 500 653 500 1363 
z
" transform="scale(0.015625)"/>
      <path id="DejaVuSans-Bold-63" d="M 3366 3391 
L 3366 2478 
Q 3138 2634 2908 2709 
Q 2678 2784 2431 2784 
Q 1963 2784 1702 2511 
Q 1441 2238 1441 1747 
Q 1441 1256 1702 982 
Q 1963 709 2431 709 
Q 2694 709 2930 787 
Q 3166 866 3366 1019 
L 3366 103 
Q 3103 6 2833 -42 
Q 2563 -91 2291 -91 
Q 1344 -91 809 395 
Q 275 881 275 1747 
Q 275 2613 809 3098 
Q 1344 3584 2291 3584 
Q 2566 3584 2833 3536 
Q 3100 3488 3366 3391 
z
" transform="scale(0.015625)"/>
      <path id="DejaVuSans-Bold-74" d="M 1759 4494 
L 1759 3500 
L 2913 3500 
L 2913 2700 
L 1759 2700 
L 1759 1216 
Q 1759 972 1856 886 
Q 1953 800 2241 800 
L 2816 800 
L 2816 0 
L 1856 0 
Q 1194 0 917 276 
Q 641 553 641 1216 
L 641 2700 
L 84 2700 
L 84 3500 
L 641 3500 
L 641 4494 
L 1759 4494 
z
" transform="scale(0.015625)"/>
      <path id="DejaVuSans-Bold-6f" d="M 2203 2784 
Q 1831 2784 1636 2517 
Q 1441 2250 1441 1747 
Q 1441 1244 1636 976 
Q 1831 709 2203 709 
Q 2569 709 2762 976 
Q 2956 1244 2956 1747 
Q 2956 2250 2762 2517 
Q 2569 2784 2203 2784 
z
M 2203 3584 
Q 3106 3584 3614 3096 
Q 4122 2609 4122 1747 
Q 4122 884 3614 396 
Q 3106 -91 2203 -91 
Q 1297 -91 786 396 
Q 275 884 275 1747 
Q 275 2609 786 3096 
Q 1297 3584 2203 3584 
z
" transform="scale(0.015625)"/>
      <path id="DejaVuSans-Bold-20" transform="scale(0.015625)"/>
      <path id="DejaVuSans-Bold-7c" d="M 1522 4891 
L 1522 -1509 
L 813 -1509 
L 813 4891 
L 1522 4891 
z
" transform="scale(0.015625)"/>
      <path id="DejaVuSans-Bold-4e" d="M 588 4666 
L 1931 4666 
L 3628 1466 
L 3628 4666 
L 4769 4666 
L 4769 0 
L 3425 0 
L 1728 3200 
L 1728 0 
L 588 0 
L 588 4666 
z
" transform="scale(0.015625)"/>
      <path id="DejaVuSans-Bold-45" d="M 588 4666 
L 3834 4666 
L 3834 3756 
L 1791 3756 
L 1791 2888 
L 3713 2888 
L 3713 1978 
L 1791 1978 
L 1791 909 
L 3903 909 
L 3903 0 
L 588 0 
L 588 4666 
z
" transform="scale(0.015625)"/>
     </defs>
     <use xlink:href="#DejaVuSans-Bold-50"/>
     <use xlink:href="#DejaVuSans-Bold-72" x="73.291016"/>
     <use xlink:href="#DejaVuSans-Bold-65" x="122.607422"/>
     <use xlink:href="#DejaVuSans-Bold-69" x="190.429688"/>
     <use xlink:href="#DejaVuSans-Bold-6e" x="224.707031"/>
     <use xlink:href="#DejaVuSans-Bold-64" x="295.898438"/>
     <use xlink:href="#DejaVuSans-Bold-75" x="367.480469"/>
     <use xlink:href="#DejaVuSans-Bold-63" x="438.671875"/>
     <use xlink:href="#DejaVuSans-Bold-74" x="497.949219"/>
     <use xlink:href="#DejaVuSans-Bold-69" x="545.751953"/>
     <use xlink:href="#DejaVuSans-Bold-6f" x="580.029297"/>
     <use xlink:href="#DejaVuSans-Bold-6e" x="648.730469"/>
     <use xlink:href="#DejaVuSans-Bold-20" x="719.921875"/>
     <use xlink:href="#DejaVuSans-Bold-7c" x="754.736328"/>
     <use xlink:href="#DejaVuSans-Bold-20" x="791.259766"/>
     <use xlink:href="#DejaVuSans-Bold-4e" x="826.074219"/>
     <use xlink:href="#DejaVuSans-Bold-45" x="909.765625"/>
    </g>
   </g>
  </g>
  <g id="axes_2">
   <g id="patch_7">
    <path d="M 176.719531 529 
L 537.824531 529 
L 537.824531 306.594173 
L 176.719531 306.594173 
z
" style="fill: #ffffff"/>
   </g>
   <g id="matplotlib.axis_3">
    <g id="xtick_8">
     <g id="line2d_39">
      <path d="M 176.719531 529 
L 176.719531 306.594173 
" clip-path="url(#p495a63b597)" style="fill: none; stroke: #b0b0b0; stroke-width: 0.8; stroke-linecap: square"/>
     </g>
     <g id="line2d_40">
      <g>
       <use xlink:href="#ma13a65b29b" x="176.719531" y="529" style="stroke: #000000; stroke-width: 0.8"/>
      </g>
     </g>
     <g id="text_11">
      <!-- −2 -->
      <g transform="translate(169.348437 543.598437) scale(0.1 -0.1)">
       <use xlink:href="#DejaVuSans-2212"/>
       <use xlink:href="#DejaVuSans-32" x="83.789062"/>
      </g>
     </g>
    </g>
    <g id="xtick_9">
     <g id="line2d_41">
      <path d="M 236.903698 529 
L 236.903698 306.594173 
" clip-path="url(#p495a63b597)" style="fill: none; stroke: #b0b0b0; stroke-width: 0.8; stroke-linecap: square"/>
     </g>
     <g id="line2d_42">
      <g>
       <use xlink:href="#ma13a65b29b" x="236.903698" y="529" style="stroke: #000000; stroke-width: 0.8"/>
      </g>
     </g>
     <g id="text_12">
      <!-- −1 -->
      <g transform="translate(229.532604 543.598437) scale(0.1 -0.1)">
       <use xlink:href="#DejaVuSans-2212"/>
       <use xlink:href="#DejaVuSans-31" x="83.789062"/>
      </g>
     </g>
    </g>
    <g id="xtick_10">
     <g id="line2d_43">
      <path d="M 297.087865 529 
L 297.087865 306.594173 
" clip-path="url(#p495a63b597)" style="fill: none; stroke: #b0b0b0; stroke-width: 0.8; stroke-linecap: square"/>
     </g>
     <g id="line2d_44">
      <g>
       <use xlink:href="#ma13a65b29b" x="297.087865" y="529" style="stroke: #000000; stroke-width: 0.8"/>
      </g>
     </g>
     <g id="text_13">
      <!-- 0 -->
      <g transform="translate(293.906615 543.598437) scale(0.1 -0.1)">
       <use xlink:href="#DejaVuSans-30"/>
      </g>
     </g>
    </g>
    <g id="xtick_11">
     <g id="line2d_45">
      <path d="M 357.272031 529 
L 357.272031 306.594173 
" clip-path="url(#p495a63b597)" style="fill: none; stroke: #b0b0b0; stroke-width: 0.8; stroke-linecap: square"/>
     </g>
     <g id="line2d_46">
      <g>
       <use xlink:href="#ma13a65b29b" x="357.272031" y="529" style="stroke: #000000; stroke-width: 0.8"/>
      </g>
     </g>
     <g id="text_14">
      <!-- 1 -->
      <g transform="translate(354.090781 543.598437) scale(0.1 -0.1)">
       <use xlink:href="#DejaVuSans-31"/>
      </g>
     </g>
    </g>
    <g id="xtick_12">
     <g id="line2d_47">
      <path d="M 417.456198 529 
L 417.456198 306.594173 
" clip-path="url(#p495a63b597)" style="fill: none; stroke: #b0b0b0; stroke-width: 0.8; stroke-linecap: square"/>
     </g>
     <g id="line2d_48">
      <g>
       <use xlink:href="#ma13a65b29b" x="417.456198" y="529" style="stroke: #000000; stroke-width: 0.8"/>
      </g>
     </g>
     <g id="text_15">
      <!-- 2 -->
      <g transform="translate(414.274948 543.598437) scale(0.1 -0.1)">
       <use xlink:href="#DejaVuSans-32"/>
      </g>
     </g>
    </g>
    <g id="xtick_13">
     <g id="line2d_49">
      <path d="M 477.640365 529 
L 477.640365 306.594173 
" clip-path="url(#p495a63b597)" style="fill: none; stroke: #b0b0b0; stroke-width: 0.8; stroke-linecap: square"/>
     </g>
     <g id="line2d_50">
      <g>
       <use xlink:href="#ma13a65b29b" x="477.640365" y="529" style="stroke: #000000; stroke-width: 0.8"/>
      </g>
     </g>
     <g id="text_16">
      <!-- 3 -->
      <g transform="translate(474.459115 543.598437) scale(0.1 -0.1)">
       <defs>
        <path id="DejaVuSans-33" d="M 2597 2516 
Q 3050 2419 3304 2112 
Q 3559 1806 3559 1356 
Q 3559 666 3084 287 
Q 2609 -91 1734 -91 
Q 1441 -91 1130 -33 
Q 819 25 488 141 
L 488 750 
Q 750 597 1062 519 
Q 1375 441 1716 441 
Q 2309 441 2620 675 
Q 2931 909 2931 1356 
Q 2931 1769 2642 2001 
Q 2353 2234 1838 2234 
L 1294 2234 
L 1294 2753 
L 1863 2753 
Q 2328 2753 2575 2939 
Q 2822 3125 2822 3475 
Q 2822 3834 2567 4026 
Q 2313 4219 1838 4219 
Q 1578 4219 1281 4162 
Q 984 4106 628 3988 
L 628 4550 
Q 988 4650 1302 4700 
Q 1616 4750 1894 4750 
Q 2613 4750 3031 4423 
Q 3450 4097 3450 3541 
Q 3450 3153 3228 2886 
Q 3006 2619 2597 2516 
z
" transform="scale(0.015625)"/>
       </defs>
       <use xlink:href="#DejaVuSans-33"/>
      </g>
     </g>
    </g>
    <g id="xtick_14">
     <g id="line2d_51">
      <path d="M 537.824531 529 
L 537.824531 306.594173 
" clip-path="url(#p495a63b597)" style="fill: none; stroke: #b0b0b0; stroke-width: 0.8; stroke-linecap: square"/>
     </g>
     <g id="line2d_52">
      <g>
       <use xlink:href="#ma13a65b29b" x="537.824531" y="529" style="stroke: #000000; stroke-width: 0.8"/>
      </g>
     </g>
     <g id="text_17">
      <!-- 4 -->
      <g transform="translate(534.643281 543.598437) scale(0.1 -0.1)">
       <defs>
        <path id="DejaVuSans-34" d="M 2419 4116 
L 825 1625 
L 2419 1625 
L 2419 4116 
z
M 2253 4666 
L 3047 4666 
L 3047 1625 
L 3713 1625 
L 3713 1100 
L 3047 1100 
L 3047 0 
L 2419 0 
L 2419 1100 
L 313 1100 
L 313 1709 
L 2253 4666 
z
" transform="scale(0.015625)"/>
       </defs>
       <use xlink:href="#DejaVuSans-34"/>
      </g>
     </g>
    </g>
    <g id="text_18">
     <!-- Time (s) -->
     <g transform="translate(332.877344 558.79625) scale(0.12 -0.12)">
      <defs>
       <path id="DejaVuSans-54" d="M -19 4666 
L 3928 4666 
L 3928 4134 
L 2272 4134 
L 2272 0 
L 1638 0 
L 1638 4134 
L -19 4134 
L -19 4666 
z
" transform="scale(0.015625)"/>
       <path id="DejaVuSans-69" d="M 603 3500 
L 1178 3500 
L 1178 0 
L 603 0 
L 603 3500 
z
M 603 4863 
L 1178 4863 
L 1178 4134 
L 603 4134 
L 603 4863 
z
" transform="scale(0.015625)"/>
       <path id="DejaVuSans-6d" d="M 3328 2828 
Q 3544 3216 3844 3400 
Q 4144 3584 4550 3584 
Q 5097 3584 5394 3201 
Q 5691 2819 5691 2113 
L 5691 0 
L 5113 0 
L 5113 2094 
Q 5113 2597 4934 2840 
Q 4756 3084 4391 3084 
Q 3944 3084 3684 2787 
Q 3425 2491 3425 1978 
L 3425 0 
L 2847 0 
L 2847 2094 
Q 2847 2600 2669 2842 
Q 2491 3084 2119 3084 
Q 1678 3084 1418 2786 
Q 1159 2488 1159 1978 
L 1159 0 
L 581 0 
L 581 3500 
L 1159 3500 
L 1159 2956 
Q 1356 3278 1631 3431 
Q 1906 3584 2284 3584 
Q 2666 3584 2933 3390 
Q 3200 3197 3328 2828 
z
" transform="scale(0.015625)"/>
       <path id="DejaVuSans-65" d="M 3597 1894 
L 3597 1613 
L 953 1613 
Q 991 1019 1311 708 
Q 1631 397 2203 397 
Q 2534 397 2845 478 
Q 3156 559 3463 722 
L 3463 178 
Q 3153 47 2828 -22 
Q 2503 -91 2169 -91 
Q 1331 -91 842 396 
Q 353 884 353 1716 
Q 353 2575 817 3079 
Q 1281 3584 2069 3584 
Q 2775 3584 3186 3129 
Q 3597 2675 3597 1894 
z
M 3022 2063 
Q 3016 2534 2758 2815 
Q 2500 3097 2075 3097 
Q 1594 3097 1305 2825 
Q 1016 2553 972 2059 
L 3022 2063 
z
" transform="scale(0.015625)"/>
       <path id="DejaVuSans-73" d="M 2834 3397 
L 2834 2853 
Q 2591 2978 2328 3040 
Q 2066 3103 1784 3103 
Q 1356 3103 1142 2972 
Q 928 2841 928 2578 
Q 928 2378 1081 2264 
Q 1234 2150 1697 2047 
L 1894 2003 
Q 2506 1872 2764 1633 
Q 3022 1394 3022 966 
Q 3022 478 2636 193 
Q 2250 -91 1575 -91 
Q 1294 -91 989 -36 
Q 684 19 347 128 
L 347 722 
Q 666 556 975 473 
Q 1284 391 1588 391 
Q 1994 391 2212 530 
Q 2431 669 2431 922 
Q 2431 1156 2273 1281 
Q 2116 1406 1581 1522 
L 1381 1569 
Q 847 1681 609 1914 
Q 372 2147 372 2553 
Q 372 3047 722 3315 
Q 1072 3584 1716 3584 
Q 2034 3584 2315 3537 
Q 2597 3491 2834 3397 
z
" transform="scale(0.015625)"/>
      </defs>
      <use xlink:href="#DejaVuSans-54"/>
      <use xlink:href="#DejaVuSans-69" x="57.958984"/>
      <use xlink:href="#DejaVuSans-6d" x="85.742188"/>
      <use xlink:href="#DejaVuSans-65" x="183.154297"/>
      <use xlink:href="#DejaVuSans-20" x="244.677734"/>
      <use xlink:href="#DejaVuSans-28" x="276.464844"/>
      <use xlink:href="#DejaVuSans-73" x="315.478516"/>
      <use xlink:href="#DejaVuSans-29" x="367.578125"/>
     </g>
    </g>
   </g>
   <g id="matplotlib.axis_4">
    <g id="ytick_9">
     <g id="line2d_53">
      <path d="M 176.719531 526.42771 
L 537.824531 526.42771 
" clip-path="url(#p495a63b597)" style="fill: none; stroke: #b0b0b0; stroke-width: 0.8; stroke-linecap: square"/>
     </g>
     <g id="line2d_54">
      <g>
       <use xlink:href="#mebd4424f55" x="176.719531" y="526.42771" style="stroke: #000000; stroke-width: 0.8"/>
      </g>
     </g>
     <g id="text_19">
      <!-- −7.5 -->
      <g transform="translate(145.436719 530.226929) scale(0.1 -0.1)">
       <use xlink:href="#DejaVuSans-2212"/>
       <use xlink:href="#DejaVuSans-37" x="83.789062"/>
       <use xlink:href="#DejaVuSans-2e" x="147.412109"/>
       <use xlink:href="#DejaVuSans-35" x="179.199219"/>
      </g>
     </g>
    </g>
    <g id="ytick_10">
     <g id="line2d_55">
      <path d="M 176.719531 495.938377 
L 537.824531 495.938377 
" clip-path="url(#p495a63b597)" style="fill: none; stroke: #b0b0b0; stroke-width: 0.8; stroke-linecap: square"/>
     </g>
     <g id="line2d_56">
      <g>
       <use xlink:href="#mebd4424f55" x="176.719531" y="495.938377" style="stroke: #000000; stroke-width: 0.8"/>
      </g>
     </g>
     <g id="text_20">
      <!-- −5.0 -->
      <g transform="translate(145.436719 499.737596) scale(0.1 -0.1)">
       <use xlink:href="#DejaVuSans-2212"/>
       <use xlink:href="#DejaVuSans-35" x="83.789062"/>
       <use xlink:href="#DejaVuSans-2e" x="147.412109"/>
       <use xlink:href="#DejaVuSans-30" x="179.199219"/>
      </g>
     </g>
    </g>
    <g id="ytick_11">
     <g id="line2d_57">
      <path d="M 176.719531 465.449044 
L 537.824531 465.449044 
" clip-path="url(#p495a63b597)" style="fill: none; stroke: #b0b0b0; stroke-width: 0.8; stroke-linecap: square"/>
     </g>
     <g id="line2d_58">
      <g>
       <use xlink:href="#mebd4424f55" x="176.719531" y="465.449044" style="stroke: #000000; stroke-width: 0.8"/>
      </g>
     </g>
     <g id="text_21">
      <!-- −2.5 -->
      <g transform="translate(145.436719 469.248263) scale(0.1 -0.1)">
       <use xlink:href="#DejaVuSans-2212"/>
       <use xlink:href="#DejaVuSans-32" x="83.789062"/>
       <use xlink:href="#DejaVuSans-2e" x="147.412109"/>
       <use xlink:href="#DejaVuSans-35" x="179.199219"/>
      </g>
     </g>
    </g>
    <g id="ytick_12">
     <g id="line2d_59">
      <path d="M 176.719531 434.959711 
L 537.824531 434.959711 
" clip-path="url(#p495a63b597)" style="fill: none; stroke: #b0b0b0; stroke-width: 0.8; stroke-linecap: square"/>
     </g>
     <g id="line2d_60">
      <g>
       <use xlink:href="#mebd4424f55" x="176.719531" y="434.959711" style="stroke: #000000; stroke-width: 0.8"/>
      </g>
     </g>
     <g id="text_22">
      <!-- 0.0 -->
      <g transform="translate(153.816406 438.75893) scale(0.1 -0.1)">
       <use xlink:href="#DejaVuSans-30"/>
       <use xlink:href="#DejaVuSans-2e" x="63.623047"/>
       <use xlink:href="#DejaVuSans-30" x="95.410156"/>
      </g>
     </g>
    </g>
    <g id="ytick_13">
     <g id="line2d_61">
      <path d="M 176.719531 404.470378 
L 537.824531 404.470378 
" clip-path="url(#p495a63b597)" style="fill: none; stroke: #b0b0b0; stroke-width: 0.8; stroke-linecap: square"/>
     </g>
     <g id="line2d_62">
      <g>
       <use xlink:href="#mebd4424f55" x="176.719531" y="404.470378" style="stroke: #000000; stroke-width: 0.8"/>
      </g>
     </g>
     <g id="text_23">
      <!-- 2.5 -->
      <g transform="translate(153.816406 408.269597) scale(0.1 -0.1)">
       <use xlink:href="#DejaVuSans-32"/>
       <use xlink:href="#DejaVuSans-2e" x="63.623047"/>
       <use xlink:href="#DejaVuSans-35" x="95.410156"/>
      </g>
     </g>
    </g>
    <g id="ytick_14">
     <g id="line2d_63">
      <path d="M 176.719531 373.981045 
L 537.824531 373.981045 
" clip-path="url(#p495a63b597)" style="fill: none; stroke: #b0b0b0; stroke-width: 0.8; stroke-linecap: square"/>
     </g>
     <g id="line2d_64">
      <g>
       <use xlink:href="#mebd4424f55" x="176.719531" y="373.981045" style="stroke: #000000; stroke-width: 0.8"/>
      </g>
     </g>
     <g id="text_24">
      <!-- 5.0 -->
      <g transform="translate(153.816406 377.780264) scale(0.1 -0.1)">
       <use xlink:href="#DejaVuSans-35"/>
       <use xlink:href="#DejaVuSans-2e" x="63.623047"/>
       <use xlink:href="#DejaVuSans-30" x="95.410156"/>
      </g>
     </g>
    </g>
    <g id="ytick_15">
     <g id="line2d_65">
      <path d="M 176.719531 343.491712 
L 537.824531 343.491712 
" clip-path="url(#p495a63b597)" style="fill: none; stroke: #b0b0b0; stroke-width: 0.8; stroke-linecap: square"/>
     </g>
     <g id="line2d_66">
      <g>
       <use xlink:href="#mebd4424f55" x="176.719531" y="343.491712" style="stroke: #000000; stroke-width: 0.8"/>
      </g>
     </g>
     <g id="text_25">
      <!-- 7.5 -->
      <g transform="translate(153.816406 347.290931) scale(0.1 -0.1)">
       <use xlink:href="#DejaVuSans-37"/>
       <use xlink:href="#DejaVuSans-2e" x="63.623047"/>
       <use xlink:href="#DejaVuSans-35" x="95.410156"/>
      </g>
     </g>
    </g>
    <g id="ytick_16">
     <g id="line2d_67">
      <path d="M 176.719531 313.002379 
L 537.824531 313.002379 
" clip-path="url(#p495a63b597)" style="fill: none; stroke: #b0b0b0; stroke-width: 0.8; stroke-linecap: square"/>
     </g>
     <g id="line2d_68">
      <g>
       <use xlink:href="#mebd4424f55" x="176.719531" y="313.002379" style="stroke: #000000; stroke-width: 0.8"/>
      </g>
     </g>
     <g id="text_26">
      <!-- 10.0 -->
      <g transform="translate(147.453906 316.801598) scale(0.1 -0.1)">
       <use xlink:href="#DejaVuSans-31"/>
       <use xlink:href="#DejaVuSans-30" x="63.623047"/>
       <use xlink:href="#DejaVuSans-2e" x="127.246094"/>
       <use xlink:href="#DejaVuSans-30" x="159.033203"/>
      </g>
     </g>
    </g>
    <g id="text_27">
     <!-- ΔF/F (%) -->
     <g transform="translate(138.941094 443.114274) rotate(-90) scale(0.12 -0.12)">
      <use xlink:href="#DejaVuSans-394"/>
      <use xlink:href="#DejaVuSans-46" x="68.408203"/>
      <use xlink:href="#DejaVuSans-2f" x="125.927734"/>
      <use xlink:href="#DejaVuSans-46" x="159.619141"/>
      <use xlink:href="#DejaVuSans-20" x="217.138672"/>
      <use xlink:href="#DejaVuSans-28" x="248.925781"/>
      <use xlink:href="#DejaVuSans-25" x="287.939453"/>
      <use xlink:href="#DejaVuSans-29" x="382.958984"/>
     </g>
    </g>
   </g>
   <g id="line2d_69">
    <path d="M 176.719531 414.657843 
L 179.143055 413.631235 
L 183.990102 410.155035 
L 186.413625 408.893205 
L 188.837149 408.205404 
L 191.260672 408.298517 
L 193.684196 408.950988 
L 196.107719 409.42847 
L 198.531243 409.138732 
L 200.954766 408.285838 
L 203.37829 407.776447 
L 205.801813 408.640842 
L 208.225337 411.253237 
L 210.64886 414.770835 
L 213.072384 417.685305 
L 215.495907 418.967608 
L 217.919431 418.481205 
L 220.342954 416.913756 
L 222.766478 415.610358 
L 225.190001 415.551665 
L 227.613525 416.194519 
L 230.037048 416.103306 
L 232.460572 414.82081 
L 234.884095 413.390154 
L 237.307618 413.194241 
L 239.731142 414.973428 
L 244.578189 422.086895 
L 247.001712 423.413366 
L 249.425236 421.102157 
L 251.848759 416.656334 
L 254.272283 413.10968 
L 256.695806 411.928811 
L 259.11933 412.243833 
L 261.542853 412.961884 
L 263.966377 414.318032 
L 266.3899 417.088156 
L 268.813424 421.013672 
L 271.236947 424.543632 
L 273.660471 426.225867 
L 276.083994 425.805934 
L 278.507518 423.913809 
L 280.931041 421.5887 
L 283.354565 420.042318 
L 285.778088 419.821885 
L 290.625135 420.694863 
L 293.048659 421.104571 
L 295.472182 421.753694 
L 297.895706 422.260796 
L 300.319229 422.402544 
L 302.742753 422.726137 
L 305.166276 423.776349 
L 310.013323 426.930771 
L 312.436847 428.135499 
L 314.86037 428.971331 
L 317.283894 428.636464 
L 319.707417 425.736937 
L 322.130941 420.108464 
L 324.554464 413.272167 
L 326.977988 407.333096 
L 329.401511 404.180767 
L 331.825035 404.252176 
L 336.672082 407.685382 
L 339.095605 409.797898 
L 341.519129 412.286624 
L 343.942652 414.198917 
L 346.366176 414.677983 
L 348.789699 413.617473 
L 351.213223 412.04244 
L 353.636746 411.318133 
L 358.483793 411.683054 
L 360.907316 411.927362 
L 363.33084 412.461331 
L 365.754363 412.86458 
L 368.177887 412.967355 
L 370.60141 413.603692 
L 373.024934 415.395165 
L 375.448457 417.816652 
L 377.871981 419.840104 
L 380.295504 420.788119 
L 382.719028 420.720396 
L 387.566075 419.587743 
L 389.989598 419.776587 
L 392.413122 421.463993 
L 397.260169 427.350894 
L 399.683692 428.564887 
L 402.107216 426.688242 
L 406.954263 417.863193 
L 409.377786 416.20475 
L 411.80131 417.885774 
L 416.648357 425.126423 
L 419.07188 427.931472 
L 421.495404 429.815531 
L 423.918927 430.692464 
L 426.342451 430.542943 
L 428.765974 429.713984 
L 431.189498 428.52146 
L 436.036545 425.397325 
L 438.460068 424.504544 
L 440.883592 424.731762 
L 443.307115 425.330022 
L 448.154162 425.505034 
L 450.577686 426.702198 
L 453.001209 428.945845 
L 455.424733 430.725297 
L 457.848256 430.731223 
L 460.27178 428.9545 
L 462.695303 426.128329 
L 465.118827 423.12977 
L 467.54235 421.217438 
L 469.965874 421.656486 
L 472.389397 424.5436 
L 474.812921 428.527977 
L 477.236444 431.89404 
L 479.659967 433.667707 
L 482.083491 433.734369 
L 484.507014 432.428659 
L 486.930538 430.519103 
L 489.354061 429.20384 
L 491.777585 429.25718 
L 494.201108 430.350154 
L 501.471679 434.434473 
L 503.895202 435.948953 
L 506.318726 436.951002 
L 508.742249 437.114158 
L 511.165773 436.936372 
L 513.589296 437.15645 
L 516.01282 438.074903 
L 520.859867 441.218818 
L 523.28339 442.2259 
L 525.706914 442.261194 
L 528.130437 441.441224 
L 530.553961 439.869117 
L 535.401008 435.861539 
L 537.824531 434.699001 
L 537.824531 434.699001 
" clip-path="url(#p495a63b597)" style="fill: none; stroke: #1f77b4; stroke-opacity: 0.4; stroke-width: 1.5; stroke-linecap: square"/>
   </g>
   <g id="line2d_70">
    <path d="M 176.719531 347.130701 
L 179.143055 341.063225 
L 181.566578 335.409679 
L 183.990102 333.031364 
L 186.413625 335.135515 
L 191.260672 344.904906 
L 193.684196 347.136363 
L 196.107719 346.334117 
L 198.531243 343.480977 
L 200.954766 340.217362 
L 203.37829 338.569357 
L 205.801813 339.861001 
L 210.64886 347.008794 
L 215.495907 349.798253 
L 217.919431 354.976494 
L 220.342954 363.154861 
L 222.766478 369.00959 
L 225.190001 369.657317 
L 227.613525 367.090627 
L 230.037048 363.79169 
L 232.460572 361.031285 
L 234.884095 360.445373 
L 237.307618 363.325642 
L 239.731142 368.953568 
L 242.154665 374.950533 
L 244.578189 379.156305 
L 247.001712 381.170139 
L 249.425236 381.301437 
L 251.848759 378.882359 
L 254.272283 374.300924 
L 256.695806 370.954539 
L 259.11933 372.204619 
L 261.542853 377.642921 
L 263.966377 383.739474 
L 266.3899 387.681636 
L 268.813424 389.26623 
L 271.236947 389.227612 
L 273.660471 388.20659 
L 276.083994 387.475214 
L 278.507518 388.360639 
L 280.931041 390.717502 
L 283.354565 393.448861 
L 285.778088 395.947019 
L 288.201612 398.01021 
L 290.625135 399.88032 
L 293.048659 402.363949 
L 295.472182 405.211899 
L 297.895706 406.581762 
L 300.319229 405.53796 
L 302.742753 403.364829 
L 305.166276 401.432991 
L 307.5898 399.735264 
L 310.013323 398.191384 
L 312.436847 397.433672 
L 314.86037 397.94544 
L 319.707417 401.231699 
L 322.130941 400.660669 
L 324.554464 396.921664 
L 326.977988 391.893171 
L 329.401511 388.214808 
L 331.825035 387.372566 
L 334.248558 389.721064 
L 339.095605 399.019682 
L 341.519129 402.060934 
L 343.942652 402.587223 
L 346.366176 401.88247 
L 348.789699 402.232373 
L 351.213223 404.157272 
L 353.636746 405.930121 
L 356.06027 405.950238 
L 358.483793 404.413293 
L 360.907316 402.732682 
L 363.33084 402.273953 
L 365.754363 403.3009 
L 368.177887 405.156014 
L 370.60141 407.599115 
L 373.024934 410.555115 
L 375.448457 412.879727 
L 377.871981 413.338408 
L 380.295504 412.332514 
L 385.142551 410.018755 
L 387.566075 408.275591 
L 389.989598 405.567347 
L 392.413122 401.639859 
L 394.836645 396.414315 
L 397.260169 391.462612 
L 399.683692 389.79654 
L 402.107216 392.53425 
L 404.530739 396.682605 
L 406.954263 398.846142 
L 409.377786 399.931913 
L 411.80131 403.009966 
L 416.648357 414.278909 
L 419.07188 417.625807 
L 421.495404 418.473003 
L 423.918927 418.86537 
L 426.342451 419.698861 
L 428.765974 420.17457 
L 431.189498 420.841655 
L 433.613021 423.089891 
L 436.036545 425.872991 
L 438.460068 426.91168 
L 440.883592 426.529923 
L 443.307115 427.429514 
L 445.730639 431.369556 
L 448.154162 437.046107 
L 450.577686 441.073206 
L 453.001209 441.326151 
L 455.424733 438.717607 
L 457.848256 435.652208 
L 460.27178 434.046292 
L 462.695303 434.802226 
L 465.118827 437.097618 
L 467.54235 437.833457 
L 469.965874 434.578146 
L 472.389397 429.478191 
L 474.812921 427.614403 
L 477.236444 430.979205 
L 479.659967 436.331196 
L 482.083491 439.86429 
L 484.507014 441.546256 
L 486.930538 443.526559 
L 489.354061 446.288398 
L 491.777585 447.715858 
L 494.201108 445.237848 
L 496.624632 438.532804 
L 499.048155 430.511166 
L 501.471679 424.847809 
L 503.895202 422.075933 
L 508.742249 418.359985 
L 511.165773 417.235064 
L 513.589296 416.448699 
L 516.01282 415.798426 
L 518.436343 416.654862 
L 520.859867 420.435537 
L 523.28339 426.721597 
L 528.130437 441.320837 
L 530.553961 447.258904 
L 532.977484 451.655796 
L 532.977484 451.655796 
" clip-path="url(#p495a63b597)" style="fill: none; stroke: #ff7f0e; stroke-opacity: 0.4; stroke-width: 1.5; stroke-linecap: square"/>
   </g>
   <g id="line2d_71">
    <path d="M 176.719531 386.209533 
L 179.143055 386.631274 
L 181.566578 386.718296 
L 183.990102 386.967922 
L 186.413625 387.629242 
L 188.837149 389.149228 
L 191.260672 392.259501 
L 193.684196 396.551851 
L 196.107719 399.915873 
L 198.531243 400.812869 
L 203.37829 399.321761 
L 205.801813 399.411348 
L 208.225337 400.500608 
L 210.64886 402.094672 
L 213.072384 403.201069 
L 215.495907 403.727016 
L 220.342954 405.237972 
L 222.766478 405.121826 
L 225.190001 403.857353 
L 227.613525 402.34905 
L 230.037048 401.438311 
L 234.884095 400.813478 
L 237.307618 399.611077 
L 239.731142 396.91213 
L 242.154665 393.184031 
L 244.578189 389.885325 
L 247.001712 388.499047 
L 249.425236 389.477717 
L 251.848759 391.760197 
L 254.272283 393.718663 
L 259.11933 396.271986 
L 261.542853 397.289384 
L 266.3899 397.462228 
L 268.813424 398.61634 
L 271.236947 400.056973 
L 273.660471 399.949862 
L 276.083994 397.91348 
L 278.507518 395.09842 
L 280.931041 393.113248 
L 283.354565 393.008245 
L 285.778088 394.172467 
L 288.201612 395.017358 
L 293.048659 395.143678 
L 297.895706 396.447993 
L 300.319229 397.332183 
L 302.742753 398.749586 
L 305.166276 399.916527 
L 307.5898 399.999423 
L 310.013323 399.679497 
L 312.436847 399.92608 
L 314.86037 400.424485 
L 317.283894 400.420677 
L 319.707417 399.663181 
L 322.130941 398.198184 
L 324.554464 396.40707 
L 326.977988 394.780078 
L 329.401511 393.567673 
L 331.825035 393.276709 
L 334.248558 394.441986 
L 336.672082 396.714451 
L 339.095605 399.231413 
L 343.942652 403.779283 
L 346.366176 405.797256 
L 348.789699 407.361717 
L 353.636746 410.113223 
L 356.06027 410.70016 
L 358.483793 410.266338 
L 360.907316 409.146599 
L 363.33084 407.096246 
L 365.754363 403.966177 
L 368.177887 400.430379 
L 370.60141 397.372681 
L 373.024934 395.790517 
L 375.448457 396.264437 
L 380.295504 399.625846 
L 382.719028 401.12401 
L 385.142551 402.324334 
L 387.566075 402.80406 
L 389.989598 403.043016 
L 392.413122 403.934745 
L 394.836645 405.066365 
L 397.260169 405.420224 
L 399.683692 404.922015 
L 402.107216 403.909731 
L 404.530739 402.335962 
L 406.954263 400.080326 
L 409.377786 397.422053 
L 411.80131 395.084987 
L 414.224833 393.642284 
L 416.648357 393.139582 
L 419.07188 393.346698 
L 423.918927 394.410459 
L 426.342451 395.521825 
L 428.765974 397.812225 
L 431.189498 400.807925 
L 433.613021 402.943254 
L 436.036545 403.520942 
L 438.460068 403.762704 
L 440.883592 404.890065 
L 443.307115 406.346671 
L 445.730639 406.707622 
L 448.154162 405.440544 
L 450.577686 403.363376 
L 453.001209 401.676329 
L 455.424733 400.699122 
L 460.27178 399.162876 
L 462.695303 398.909655 
L 465.118827 399.494303 
L 467.54235 401.130489 
L 472.389397 406.580111 
L 474.812921 407.935451 
L 477.236444 408.060962 
L 479.659967 407.916417 
L 482.083491 407.908156 
L 484.507014 408.374116 
L 486.930538 409.411476 
L 489.354061 410.246376 
L 491.777585 410.464482 
L 496.624632 410.718363 
L 499.048155 410.43655 
L 501.471679 409.442093 
L 506.318726 406.595343 
L 508.742249 404.876896 
L 511.165773 402.589396 
L 513.589296 399.918001 
L 516.01282 398.023493 
L 518.436343 398.279166 
L 520.859867 400.451906 
L 523.28339 402.80383 
L 525.706914 404.212843 
L 528.130437 405.042657 
L 530.553961 406.235224 
L 532.977484 408.059928 
L 532.977484 408.059928 
" clip-path="url(#p495a63b597)" style="fill: none; stroke: #2ca02c; stroke-opacity: 0.4; stroke-width: 1.5; stroke-linecap: square"/>
   </g>
   <g id="line2d_72">
    <path d="M 176.719531 414.030338 
L 179.143055 409.912801 
L 181.566578 394.548523 
L 183.990102 370.208547 
L 186.413625 350.426936 
L 188.837149 347.016658 
L 193.684196 367.16965 
L 196.107719 362.169624 
L 200.954766 320.682724 
L 203.37829 318.006029 
L 205.801813 334.457335 
L 208.225337 358.101164 
L 210.64886 377.970971 
L 213.072384 389.938809 
L 215.495907 393.848489 
L 217.919431 391.806965 
L 220.342954 386.017063 
L 222.766478 375.671891 
L 225.190001 361.610625 
L 227.613525 351.19939 
L 230.037048 351.831611 
L 232.460572 363.660053 
L 234.884095 380.974478 
L 237.307618 396.560184 
L 239.731142 404.361693 
L 242.154665 402.48247 
L 244.578189 394.677871 
L 247.001712 384.710954 
L 249.425236 371.931728 
L 251.848759 356.949318 
L 254.272283 344.834914 
L 256.695806 338.587904 
L 259.11933 335.913875 
L 261.542853 333.990927 
L 263.966377 334.038912 
L 266.3899 340.712316 
L 268.813424 356.272515 
L 271.236947 375.675559 
L 273.660471 390.374254 
L 276.083994 397.189194 
L 278.507518 400.85129 
L 280.931041 408.330152 
L 285.778088 433.253028 
L 288.201612 441.16221 
L 290.625135 448.103457 
L 293.048659 455.757763 
L 295.472182 459.413934 
L 297.895706 456.98387 
L 300.319229 453.223914 
L 302.742753 451.191456 
L 305.166276 447.591428 
L 307.5898 439.589433 
L 310.013323 430.675686 
L 312.436847 427.86887 
L 314.86037 434.070973 
L 317.283894 444.665006 
L 319.707417 453.124266 
L 322.130941 454.308698 
L 324.554464 444.506518 
L 326.977988 427.336517 
L 329.401511 412.043189 
L 331.825035 403.840491 
L 334.248558 404.517736 
L 336.672082 414.186317 
L 339.095605 427.621031 
L 341.519129 436.667606 
L 343.942652 436.050856 
L 348.789699 419.070469 
L 351.213223 416.988389 
L 353.636746 420.588076 
L 356.06027 424.551869 
L 358.483793 422.425382 
L 360.907316 411.66343 
L 363.33084 397.490733 
L 365.754363 388.827068 
L 368.177887 390.985599 
L 373.024934 414.181026 
L 375.448457 415.752796 
L 377.871981 405.952536 
L 380.295504 394.278196 
L 382.719028 390.133304 
L 385.142551 396.135256 
L 387.566075 407.844829 
L 389.989598 415.310372 
L 392.413122 410.26738 
L 397.260169 378.239844 
L 399.683692 374.141221 
L 402.107216 385.224623 
L 406.954263 425.216291 
L 409.377786 442.636928 
L 411.80131 453.888395 
L 414.224833 456.666133 
L 416.648357 452.816641 
L 419.07188 447.836693 
L 421.495404 446.396254 
L 423.918927 449.43245 
L 426.342451 455.573926 
L 431.189498 469.660202 
L 433.613021 479.184456 
L 436.036545 491.529209 
L 438.460068 500.840651 
L 440.883592 503.075999 
L 443.307115 501.871975 
L 445.730639 503.477269 
L 448.154162 509.72529 
L 450.577686 516.601648 
L 453.001209 518.890644 
L 455.424733 515.249658 
L 457.848256 507.389762 
L 460.27178 496.044843 
L 462.695303 482.454226 
L 465.118827 471.705622 
L 467.54235 466.64553 
L 469.965874 463.068936 
L 472.389397 459.148851 
L 474.812921 460.702854 
L 477.236444 471.138011 
L 479.659967 485.567839 
L 482.083491 497.012028 
L 484.507014 502.216413 
L 486.930538 501.428088 
L 489.354061 497.192947 
L 491.777585 493.740343 
L 494.201108 494.177881 
L 496.624632 498.100093 
L 499.048155 502.286539 
L 501.471679 504.082378 
L 503.895202 504.335979 
L 506.318726 505.388153 
L 508.742249 506.933926 
L 511.165773 506.129448 
L 513.589296 501.244583 
L 518.436343 485.937391 
L 520.859867 482.160243 
L 525.706914 481.845428 
L 528.130437 479.891371 
L 530.553961 479.286919 
L 532.977484 484.87242 
L 532.977484 484.87242 
" clip-path="url(#p495a63b597)" style="fill: none; stroke: #d62728; stroke-opacity: 0.4; stroke-width: 1.5; stroke-linecap: square"/>
   </g>
   <g id="line2d_73">
    <path d="M 176.719531 426.079452 
L 179.143055 432.635359 
L 181.566578 436.506157 
L 183.990102 436.414002 
L 186.413625 435.615444 
L 188.837149 437.246522 
L 191.260672 440.339748 
L 193.684196 442.343774 
L 196.107719 443.343913 
L 198.531243 445.136577 
L 200.954766 448.503034 
L 203.37829 452.557248 
L 205.801813 455.487577 
L 208.225337 457.044664 
L 210.64886 458.871072 
L 213.072384 461.258462 
L 215.495907 463.123831 
L 217.919431 463.833606 
L 220.342954 462.098334 
L 222.766478 456.662835 
L 225.190001 448.890699 
L 227.613525 442.088988 
L 230.037048 439.157709 
L 232.460572 440.951156 
L 234.884095 445.226112 
L 237.307618 447.891308 
L 239.731142 447.38673 
L 242.154665 447.16289 
L 244.578189 451.58472 
L 247.001712 459.799399 
L 249.425236 465.498392 
L 251.848759 463.173257 
L 254.272283 453.071993 
L 259.11933 426.325828 
L 261.542853 417.486598 
L 263.966377 415.69279 
L 266.3899 418.796649 
L 268.813424 419.50482 
L 271.236947 413.41742 
L 273.660471 403.521745 
L 276.083994 395.643479 
L 278.507518 393.562191 
L 280.931041 397.725618 
L 283.354565 404.788502 
L 285.778088 409.64403 
L 288.201612 410.513828 
L 290.625135 410.277063 
L 293.048659 411.271402 
L 295.472182 411.983303 
L 297.895706 411.760739 
L 300.319229 414.34596 
L 302.742753 422.531639 
L 305.166276 433.883971 
L 307.5898 444.419749 
L 310.013323 452.51083 
L 312.436847 458.48595 
L 314.86037 462.862249 
L 317.283894 465.759735 
L 319.707417 467.834837 
L 322.130941 469.387713 
L 324.554464 467.325659 
L 326.977988 456.715291 
L 331.825035 419.52096 
L 334.248558 411.533321 
L 336.672082 415.760061 
L 341.519129 436.993004 
L 343.942652 446.013572 
L 346.366176 454.106815 
L 348.789699 460.470383 
L 351.213223 461.521209 
L 353.636746 455.243929 
L 356.06027 445.130976 
L 358.483793 437.277547 
L 360.907316 434.634183 
L 363.33084 435.998146 
L 365.754363 439.469752 
L 368.177887 444.544888 
L 373.024934 457.806513 
L 375.448457 462.864474 
L 377.871981 465.521642 
L 380.295504 467.547163 
L 382.719028 470.803375 
L 385.142551 474.630178 
L 387.566075 476.695836 
L 389.989598 475.125807 
L 392.413122 469.807336 
L 394.836645 463.036873 
L 397.260169 458.738652 
L 399.683692 459.754244 
L 402.107216 465.07429 
L 404.530739 470.08763 
L 406.954263 470.260177 
L 409.377786 465.142977 
L 411.80131 458.647912 
L 416.648357 448.948551 
L 419.07188 441.385449 
L 421.495404 432.505221 
L 423.918927 424.98515 
L 426.342451 420.550442 
L 428.765974 420.983596 
L 431.189498 426.182476 
L 433.613021 432.249083 
L 436.036545 435.454142 
L 438.460068 436.564661 
L 440.883592 438.289434 
L 443.307115 440.927754 
L 445.730639 443.351845 
L 448.154162 444.940813 
L 450.577686 445.421005 
L 453.001209 445.610024 
L 455.424733 447.138577 
L 457.848256 450.424223 
L 460.27178 454.432009 
L 462.695303 457.054756 
L 465.118827 455.707933 
L 467.54235 450.330047 
L 469.965874 443.692968 
L 472.389397 437.691922 
L 474.812921 433.526341 
L 477.236444 433.674734 
L 479.659967 438.687786 
L 482.083491 444.520716 
L 484.507014 446.509964 
L 486.930538 444.449257 
L 489.354061 442.236735 
L 491.777585 443.091948 
L 494.201108 446.95327 
L 496.624632 452.430457 
L 499.048155 457.437439 
L 501.471679 458.626925 
L 503.895202 455.35259 
L 506.318726 452.588778 
L 508.742249 454.249887 
L 511.165773 455.232068 
L 513.589296 446.263599 
L 516.01282 425.729866 
L 518.436343 401.974893 
L 520.859867 385.834952 
L 523.28339 383.140711 
L 525.706914 391.069184 
L 528.130437 400.383163 
L 530.553961 402.919016 
L 532.977484 397.366132 
L 532.977484 397.366132 
" clip-path="url(#p495a63b597)" style="fill: none; stroke: #9467bd; stroke-opacity: 0.4; stroke-width: 1.5; stroke-linecap: square"/>
   </g>
   <g id="line2d_74">
    <path d="M 176.719531 397.621573 
L 179.143055 396.774779 
L 181.566578 393.002658 
L 183.990102 387.355374 
L 186.413625 383.540068 
L 188.837149 384.342546 
L 191.260672 388.623729 
L 193.684196 392.430525 
L 196.107719 392.238399 
L 200.954766 383.550295 
L 203.37829 383.246169 
L 205.801813 387.571621 
L 208.225337 394.085511 
L 210.64886 400.143269 
L 213.072384 404.096585 
L 215.495907 405.893039 
L 217.919431 406.708203 
L 220.342954 406.684397 
L 222.766478 404.4153 
L 225.190001 399.913532 
L 227.613525 395.784515 
L 230.037048 394.464525 
L 232.460572 396.317733 
L 237.307618 404.11649 
L 239.731142 406.51751 
L 242.154665 407.248045 
L 244.578189 407.478223 
L 247.001712 407.518581 
L 249.425236 405.862286 
L 251.848759 401.484293 
L 254.272283 395.807235 
L 256.695806 391.174169 
L 259.11933 388.592028 
L 261.542853 387.874343 
L 263.966377 389.039924 
L 266.3899 392.348197 
L 268.813424 396.934715 
L 271.236947 400.584239 
L 273.660471 401.655664 
L 276.083994 400.80546 
L 278.507518 400.35727 
L 280.931041 402.295044 
L 285.778088 410.567686 
L 288.201612 412.999852 
L 290.625135 414.80051 
L 293.048659 417.128273 
L 295.472182 418.823752 
L 297.895706 418.807032 
L 300.319229 418.568512 
L 302.742753 419.712729 
L 305.166276 421.320253 
L 307.5898 421.824594 
L 310.013323 421.597634 
L 312.436847 422.370014 
L 314.86037 424.854896 
L 317.283894 427.815204 
L 319.707417 429.518184 
L 322.130941 428.532745 
L 324.554464 423.686616 
L 329.401511 407.178095 
L 331.825035 401.652581 
L 334.248558 401.223863 
L 336.672082 405.722947 
L 339.095605 412.391434 
L 341.519129 417.913857 
L 343.942652 420.52597 
L 346.366176 420.793277 
L 348.789699 420.550483 
L 351.213223 420.69398 
L 353.636746 420.638696 
L 356.06027 419.56029 
L 358.483793 417.213123 
L 360.907316 414.020851 
L 363.33084 411.064082 
L 365.754363 409.685695 
L 368.177887 410.816847 
L 370.60141 414.404308 
L 373.024934 418.745667 
L 375.448457 421.115617 
L 377.871981 420.518766 
L 380.295504 418.914368 
L 382.719028 418.785614 
L 385.142551 420.652196 
L 387.566075 423.041612 
L 389.989598 423.764626 
L 392.413122 421.422663 
L 394.836645 416.640343 
L 397.260169 412.242445 
L 399.683692 411.435781 
L 402.107216 414.686227 
L 404.530739 419.227539 
L 406.954263 422.453226 
L 409.377786 424.267724 
L 411.80131 425.703407 
L 414.224833 426.842594 
L 416.648357 426.862021 
L 419.07188 425.625224 
L 421.495404 424.207548 
L 423.918927 423.677179 
L 426.342451 424.3776 
L 428.765974 426.261895 
L 431.189498 429.202744 
L 433.613021 432.892597 
L 436.036545 436.354922 
L 438.460068 438.516848 
L 443.307115 440.381187 
L 445.730639 442.067126 
L 448.154162 444.531558 
L 450.577686 446.632286 
L 453.001209 447.289799 
L 455.424733 446.506052 
L 457.848256 444.822325 
L 460.27178 442.528104 
L 462.695303 439.869838 
L 465.118827 437.427049 
L 472.389397 431.488535 
L 474.812921 431.661405 
L 477.236444 435.14939 
L 479.659967 440.434189 
L 482.083491 444.607912 
L 484.507014 446.215082 
L 486.930538 445.866897 
L 489.354061 445.033659 
L 491.777585 444.853962 
L 494.201108 445.456964 
L 496.624632 446.294588 
L 499.048155 446.73223 
L 501.471679 446.286735 
L 503.895202 445.154259 
L 506.318726 444.335829 
L 508.742249 444.30697 
L 511.165773 443.624469 
L 513.589296 440.206266 
L 518.436343 428.487209 
L 520.859867 426.020291 
L 523.28339 427.371882 
L 525.706914 430.699775 
L 528.130437 433.615851 
L 530.553961 435.113836 
L 532.977484 435.949455 
L 535.401008 435.861539 
L 537.824531 434.699001 
L 537.824531 434.699001 
" clip-path="url(#p495a63b597)" style="fill: none; stroke: #000000; stroke-width: 2.5; stroke-linecap: square"/>
   </g>
   <g id="line2d_75">
    <path d="M 297.087865 529 
L 297.087865 306.594173 
" clip-path="url(#p495a63b597)" style="fill: none; stroke-dasharray: 5.55,2.4; stroke-dashoffset: 0; stroke: #000000; stroke-width: 1.5"/>
   </g>
   <g id="patch_8">
    <path d="M 176.719531 529 
L 176.719531 306.594173 
" style="fill: none; stroke: #000000; stroke-width: 0.8; stroke-linejoin: miter; stroke-linecap: square"/>
   </g>
   <g id="patch_9">
    <path d="M 537.824531 529 
L 537.824531 306.594173 
" style="fill: none; stroke: #000000; stroke-width: 0.8; stroke-linejoin: miter; stroke-linecap: square"/>
   </g>
   <g id="patch_10">
    <path d="M 176.719531 529 
L 537.824531 529 
" style="fill: none; stroke: #000000; stroke-width: 0.8; stroke-linejoin: miter; stroke-linecap: square"/>
   </g>
   <g id="patch_11">
    <path d="M 176.719531 306.594173 
L 537.824531 306.594173 
" style="fill: none; stroke: #000000; stroke-width: 0.8; stroke-linejoin: miter; stroke-linecap: square"/>
   </g>
   <g id="text_28">
    <!-- W2 | NE -->
    <g transform="translate(324.419687 300.594173) scale(0.15 -0.15)">
     <defs>
      <path id="DejaVuSans-Bold-57" d="M 191 4666 
L 1344 4666 
L 2150 1275 
L 2950 4666 
L 4109 4666 
L 4909 1275 
L 5716 4666 
L 6859 4666 
L 5759 0 
L 4372 0 
L 3525 3547 
L 2688 0 
L 1300 0 
L 191 4666 
z
" transform="scale(0.015625)"/>
      <path id="DejaVuSans-Bold-32" d="M 1844 884 
L 3897 884 
L 3897 0 
L 506 0 
L 506 884 
L 2209 2388 
Q 2438 2594 2547 2791 
Q 2656 2988 2656 3200 
Q 2656 3528 2436 3728 
Q 2216 3928 1850 3928 
Q 1569 3928 1234 3808 
Q 900 3688 519 3450 
L 519 4475 
Q 925 4609 1322 4679 
Q 1719 4750 2100 4750 
Q 2938 4750 3402 4381 
Q 3866 4013 3866 3353 
Q 3866 2972 3669 2642 
Q 3472 2313 2841 1759 
L 1844 884 
z
" transform="scale(0.015625)"/>
     </defs>
     <use xlink:href="#DejaVuSans-Bold-57"/>
     <use xlink:href="#DejaVuSans-Bold-32" x="110.302734"/>
     <use xlink:href="#DejaVuSans-Bold-20" x="179.882812"/>
     <use xlink:href="#DejaVuSans-Bold-7c" x="214.697266"/>
     <use xlink:href="#DejaVuSans-Bold-20" x="251.220703"/>
     <use xlink:href="#DejaVuSans-Bold-4e" x="286.035156"/>
     <use xlink:href="#DejaVuSans-Bold-45" x="369.726562"/>
    </g>
   </g>
  </g>
  <g id="text_29">
   <!-- Open to Closed transition trace plots Pre and W2 no baseline subtraction -->
   <g transform="translate(7.2 20.877187) scale(0.18 -0.18)">
    <defs>
     <path id="DejaVuSans-4f" d="M 2522 4238 
Q 1834 4238 1429 3725 
Q 1025 3213 1025 2328 
Q 1025 1447 1429 934 
Q 1834 422 2522 422 
Q 3209 422 3611 934 
Q 4013 1447 4013 2328 
Q 4013 3213 3611 3725 
Q 3209 4238 2522 4238 
z
M 2522 4750 
Q 3503 4750 4090 4092 
Q 4678 3434 4678 2328 
Q 4678 1225 4090 567 
Q 3503 -91 2522 -91 
Q 1538 -91 948 565 
Q 359 1222 359 2328 
Q 359 3434 948 4092 
Q 1538 4750 2522 4750 
z
" transform="scale(0.015625)"/>
     <path id="DejaVuSans-70" d="M 1159 525 
L 1159 -1331 
L 581 -1331 
L 581 3500 
L 1159 3500 
L 1159 2969 
Q 1341 3281 1617 3432 
Q 1894 3584 2278 3584 
Q 2916 3584 3314 3078 
Q 3713 2572 3713 1747 
Q 3713 922 3314 415 
Q 2916 -91 2278 -91 
Q 1894 -91 1617 61 
Q 1341 213 1159 525 
z
M 3116 1747 
Q 3116 2381 2855 2742 
Q 2594 3103 2138 3103 
Q 1681 3103 1420 2742 
Q 1159 2381 1159 1747 
Q 1159 1113 1420 752 
Q 1681 391 2138 391 
Q 2594 391 2855 752 
Q 3116 1113 3116 1747 
z
" transform="scale(0.015625)"/>
     <path id="DejaVuSans-6e" d="M 3513 2113 
L 3513 0 
L 2938 0 
L 2938 2094 
Q 2938 2591 2744 2837 
Q 2550 3084 2163 3084 
Q 1697 3084 1428 2787 
Q 1159 2491 1159 1978 
L 1159 0 
L 581 0 
L 581 3500 
L 1159 3500 
L 1159 2956 
Q 1366 3272 1645 3428 
Q 1925 3584 2291 3584 
Q 2894 3584 3203 3211 
Q 3513 2838 3513 2113 
z
" transform="scale(0.015625)"/>
     <path id="DejaVuSans-74" d="M 1172 4494 
L 1172 3500 
L 2356 3500 
L 2356 3053 
L 1172 3053 
L 1172 1153 
Q 1172 725 1289 603 
Q 1406 481 1766 481 
L 2356 481 
L 2356 0 
L 1766 0 
Q 1100 0 847 248 
Q 594 497 594 1153 
L 594 3053 
L 172 3053 
L 172 3500 
L 594 3500 
L 594 4494 
L 1172 4494 
z
" transform="scale(0.015625)"/>
     <path id="DejaVuSans-6f" d="M 1959 3097 
Q 1497 3097 1228 2736 
Q 959 2375 959 1747 
Q 959 1119 1226 758 
Q 1494 397 1959 397 
Q 2419 397 2687 759 
Q 2956 1122 2956 1747 
Q 2956 2369 2687 2733 
Q 2419 3097 1959 3097 
z
M 1959 3584 
Q 2709 3584 3137 3096 
Q 3566 2609 3566 1747 
Q 3566 888 3137 398 
Q 2709 -91 1959 -91 
Q 1206 -91 779 398 
Q 353 888 353 1747 
Q 353 2609 779 3096 
Q 1206 3584 1959 3584 
z
" transform="scale(0.015625)"/>
     <path id="DejaVuSans-43" d="M 4122 4306 
L 4122 3641 
Q 3803 3938 3442 4084 
Q 3081 4231 2675 4231 
Q 1875 4231 1450 3742 
Q 1025 3253 1025 2328 
Q 1025 1406 1450 917 
Q 1875 428 2675 428 
Q 3081 428 3442 575 
Q 3803 722 4122 1019 
L 4122 359 
Q 3791 134 3420 21 
Q 3050 -91 2638 -91 
Q 1578 -91 968 557 
Q 359 1206 359 2328 
Q 359 3453 968 4101 
Q 1578 4750 2638 4750 
Q 3056 4750 3426 4639 
Q 3797 4528 4122 4306 
z
" transform="scale(0.015625)"/>
     <path id="DejaVuSans-6c" d="M 603 4863 
L 1178 4863 
L 1178 0 
L 603 0 
L 603 4863 
z
" transform="scale(0.015625)"/>
     <path id="DejaVuSans-64" d="M 2906 2969 
L 2906 4863 
L 3481 4863 
L 3481 0 
L 2906 0 
L 2906 525 
Q 2725 213 2448 61 
Q 2172 -91 1784 -91 
Q 1150 -91 751 415 
Q 353 922 353 1747 
Q 353 2572 751 3078 
Q 1150 3584 1784 3584 
Q 2172 3584 2448 3432 
Q 2725 3281 2906 2969 
z
M 947 1747 
Q 947 1113 1208 752 
Q 1469 391 1925 391 
Q 2381 391 2643 752 
Q 2906 1113 2906 1747 
Q 2906 2381 2643 2742 
Q 2381 3103 1925 3103 
Q 1469 3103 1208 2742 
Q 947 2381 947 1747 
z
" transform="scale(0.015625)"/>
     <path id="DejaVuSans-72" d="M 2631 2963 
Q 2534 3019 2420 3045 
Q 2306 3072 2169 3072 
Q 1681 3072 1420 2755 
Q 1159 2438 1159 1844 
L 1159 0 
L 581 0 
L 581 3500 
L 1159 3500 
L 1159 2956 
Q 1341 3275 1631 3429 
Q 1922 3584 2338 3584 
Q 2397 3584 2469 3576 
Q 2541 3569 2628 3553 
L 2631 2963 
z
" transform="scale(0.015625)"/>
     <path id="DejaVuSans-61" d="M 2194 1759 
Q 1497 1759 1228 1600 
Q 959 1441 959 1056 
Q 959 750 1161 570 
Q 1363 391 1709 391 
Q 2188 391 2477 730 
Q 2766 1069 2766 1631 
L 2766 1759 
L 2194 1759 
z
M 3341 1997 
L 3341 0 
L 2766 0 
L 2766 531 
Q 2569 213 2275 61 
Q 1981 -91 1556 -91 
Q 1019 -91 701 211 
Q 384 513 384 1019 
Q 384 1609 779 1909 
Q 1175 2209 1959 2209 
L 2766 2209 
L 2766 2266 
Q 2766 2663 2505 2880 
Q 2244 3097 1772 3097 
Q 1472 3097 1187 3025 
Q 903 2953 641 2809 
L 641 3341 
Q 956 3463 1253 3523 
Q 1550 3584 1831 3584 
Q 2591 3584 2966 3190 
Q 3341 2797 3341 1997 
z
" transform="scale(0.015625)"/>
     <path id="DejaVuSans-63" d="M 3122 3366 
L 3122 2828 
Q 2878 2963 2633 3030 
Q 2388 3097 2138 3097 
Q 1578 3097 1268 2742 
Q 959 2388 959 1747 
Q 959 1106 1268 751 
Q 1578 397 2138 397 
Q 2388 397 2633 464 
Q 2878 531 3122 666 
L 3122 134 
Q 2881 22 2623 -34 
Q 2366 -91 2075 -91 
Q 1284 -91 818 406 
Q 353 903 353 1747 
Q 353 2603 823 3093 
Q 1294 3584 2113 3584 
Q 2378 3584 2631 3529 
Q 2884 3475 3122 3366 
z
" transform="scale(0.015625)"/>
     <path id="DejaVuSans-50" d="M 1259 4147 
L 1259 2394 
L 2053 2394 
Q 2494 2394 2734 2622 
Q 2975 2850 2975 3272 
Q 2975 3691 2734 3919 
Q 2494 4147 2053 4147 
L 1259 4147 
z
M 628 4666 
L 2053 4666 
Q 2838 4666 3239 4311 
Q 3641 3956 3641 3272 
Q 3641 2581 3239 2228 
Q 2838 1875 2053 1875 
L 1259 1875 
L 1259 0 
L 628 0 
L 628 4666 
z
" transform="scale(0.015625)"/>
     <path id="DejaVuSans-57" d="M 213 4666 
L 850 4666 
L 1831 722 
L 2809 4666 
L 3519 4666 
L 4500 722 
L 5478 4666 
L 6119 4666 
L 4947 0 
L 4153 0 
L 3169 4050 
L 2175 0 
L 1381 0 
L 213 4666 
z
" transform="scale(0.015625)"/>
     <path id="DejaVuSans-62" d="M 3116 1747 
Q 3116 2381 2855 2742 
Q 2594 3103 2138 3103 
Q 1681 3103 1420 2742 
Q 1159 2381 1159 1747 
Q 1159 1113 1420 752 
Q 1681 391 2138 391 
Q 2594 391 2855 752 
Q 3116 1113 3116 1747 
z
M 1159 2969 
Q 1341 3281 1617 3432 
Q 1894 3584 2278 3584 
Q 2916 3584 3314 3078 
Q 3713 2572 3713 1747 
Q 3713 922 3314 415 
Q 2916 -91 2278 -91 
Q 1894 -91 1617 61 
Q 1341 213 1159 525 
L 1159 0 
L 581 0 
L 581 4863 
L 1159 4863 
L 1159 2969 
z
" transform="scale(0.015625)"/>
     <path id="DejaVuSans-75" d="M 544 1381 
L 544 3500 
L 1119 3500 
L 1119 1403 
Q 1119 906 1312 657 
Q 1506 409 1894 409 
Q 2359 409 2629 706 
Q 2900 1003 2900 1516 
L 2900 3500 
L 3475 3500 
L 3475 0 
L 2900 0 
L 2900 538 
Q 2691 219 2414 64 
Q 2138 -91 1772 -91 
Q 1169 -91 856 284 
Q 544 659 544 1381 
z
M 1991 3584 
L 1991 3584 
z
" transform="scale(0.015625)"/>
    </defs>
    <use xlink:href="#DejaVuSans-4f"/>
    <use xlink:href="#DejaVuSans-70" x="78.710938"/>
    <use xlink:href="#DejaVuSans-65" x="142.1875"/>
    <use xlink:href="#DejaVuSans-6e" x="203.710938"/>
    <use xlink:href="#DejaVuSans-20" x="267.089844"/>
    <use xlink:href="#DejaVuSans-74" x="298.876953"/>
    <use xlink:href="#DejaVuSans-6f" x="338.085938"/>
    <use xlink:href="#DejaVuSans-20" x="399.267578"/>
    <use xlink:href="#DejaVuSans-43" x="431.054688"/>
    <use xlink:href="#DejaVuSans-6c" x="500.878906"/>
    <use xlink:href="#DejaVuSans-6f" x="528.662109"/>
    <use xlink:href="#DejaVuSans-73" x="589.84375"/>
    <use xlink:href="#DejaVuSans-65" x="641.943359"/>
    <use xlink:href="#DejaVuSans-64" x="703.466797"/>
    <use xlink:href="#DejaVuSans-20" x="766.943359"/>
    <use xlink:href="#DejaVuSans-74" x="798.730469"/>
    <use xlink:href="#DejaVuSans-72" x="837.939453"/>
    <use xlink:href="#DejaVuSans-61" x="879.052734"/>
    <use xlink:href="#DejaVuSans-6e" x="940.332031"/>
    <use xlink:href="#DejaVuSans-73" x="1003.710938"/>
    <use xlink:href="#DejaVuSans-69" x="1055.810547"/>
    <use xlink:href="#DejaVuSans-74" x="1083.59375"/>
    <use xlink:href="#DejaVuSans-69" x="1122.802734"/>
    <use xlink:href="#DejaVuSans-6f" x="1150.585938"/>
    <use xlink:href="#DejaVuSans-6e" x="1211.767578"/>
    <use xlink:href="#DejaVuSans-20" x="1275.146484"/>
    <use xlink:href="#DejaVuSans-74" x="1306.933594"/>
    <use xlink:href="#DejaVuSans-72" x="1346.142578"/>
    <use xlink:href="#DejaVuSans-61" x="1387.255859"/>
    <use xlink:href="#DejaVuSans-63" x="1448.535156"/>
    <use xlink:href="#DejaVuSans-65" x="1503.515625"/>
    <use xlink:href="#DejaVuSans-20" x="1565.039062"/>
    <use xlink:href="#DejaVuSans-70" x="1596.826172"/>
    <use xlink:href="#DejaVuSans-6c" x="1660.302734"/>
    <use xlink:href="#DejaVuSans-6f" x="1688.085938"/>
    <use xlink:href="#DejaVuSans-74" x="1749.267578"/>
    <use xlink:href="#DejaVuSans-73" x="1788.476562"/>
    <use xlink:href="#DejaVuSans-20" x="1840.576172"/>
    <use xlink:href="#DejaVuSans-50" x="1872.363281"/>
    <use xlink:href="#DejaVuSans-72" x="1930.916016"/>
    <use xlink:href="#DejaVuSans-65" x="1969.779297"/>
    <use xlink:href="#DejaVuSans-20" x="2031.302734"/>
    <use xlink:href="#DejaVuSans-61" x="2063.089844"/>
    <use xlink:href="#DejaVuSans-6e" x="2124.369141"/>
    <use xlink:href="#DejaVuSans-64" x="2187.748047"/>
    <use xlink:href="#DejaVuSans-20" x="2251.224609"/>
    <use xlink:href="#DejaVuSans-57" x="2283.011719"/>
    <use xlink:href="#DejaVuSans-32" x="2381.888672"/>
    <use xlink:href="#DejaVuSans-20" x="2445.511719"/>
    <use xlink:href="#DejaVuSans-6e" x="2477.298828"/>
    <use xlink:href="#DejaVuSans-6f" x="2540.677734"/>
    <use xlink:href="#DejaVuSans-20" x="2601.859375"/>
    <use xlink:href="#DejaVuSans-62" x="2633.646484"/>
    <use xlink:href="#DejaVuSans-61" x="2697.123047"/>
    <use xlink:href="#DejaVuSans-73" x="2758.402344"/>
    <use xlink:href="#DejaVuSans-65" x="2810.501953"/>
    <use xlink:href="#DejaVuSans-6c" x="2872.025391"/>
    <use xlink:href="#DejaVuSans-69" x="2899.808594"/>
    <use xlink:href="#DejaVuSans-6e" x="2927.591797"/>
    <use xlink:href="#DejaVuSans-65" x="2990.970703"/>
    <use xlink:href="#DejaVuSans-20" x="3052.494141"/>
    <use xlink:href="#DejaVuSans-73" x="3084.28125"/>
    <use xlink:href="#DejaVuSans-75" x="3136.380859"/>
    <use xlink:href="#DejaVuSans-62" x="3199.759766"/>
    <use xlink:href="#DejaVuSans-74" x="3263.236328"/>
    <use xlink:href="#DejaVuSans-72" x="3302.445312"/>
    <use xlink:href="#DejaVuSans-61" x="3343.558594"/>
    <use xlink:href="#DejaVuSans-63" x="3404.837891"/>
    <use xlink:href="#DejaVuSans-74" x="3459.818359"/>
    <use xlink:href="#DejaVuSans-69" x="3499.027344"/>
    <use xlink:href="#DejaVuSans-6f" x="3526.810547"/>
    <use xlink:href="#DejaVuSans-6e" x="3587.992188"/>
   </g>
  </g>
 </g>
 <defs>
  <clipPath id="p718ded4776">
   <rect x="176.719531" y="52.08" width="361.105" height="222.405827"/>
  </clipPath>
  <clipPath id="p495a63b597">
   <rect x="176.719531" y="306.594173" width="361.105" height="222.405827"/>
  </clipPath>
 </defs>
</svg>
