<?xml version="1.0" encoding="utf-8" standalone="no"?>
<!DOCTYPE svg PUBLIC "-//W3C//DTD SVG 1.1//EN"
  "http://www.w3.org/Graphics/SVG/1.1/DTD/svg11.dtd">
<svg xmlns:xlink="http://www.w3.org/1999/xlink" width="454.587187pt" height="568.491875pt" viewBox="0 0 454.587187 568.491875" xmlns="http://www.w3.org/2000/svg" version="1.1">
 <metadata>
  <rdf:RDF xmlns:dc="http://purl.org/dc/elements/1.1/" xmlns:cc="http://creativecommons.org/ns#" xmlns:rdf="http://www.w3.org/1999/02/22-rdf-syntax-ns#">
   <cc:Work>
    <dc:type rdf:resource="http://purl.org/dc/dcmitype/StillImage"/>
    <dc:date>2026-08-03T14:13:34.019495</dc:date>
    <dc:format>image/svg+xml</dc:format>
    <dc:creator>
     <cc:Agent>
      <dc:title>Matplotlib v3.7.2, https://matplotlib.org/</dc:title>
     </cc:Agent>
    </dc:creator>
   </cc:Work>
  </rdf:RDF>
 </metadata>
 <defs>
  <style type="text/css">*{stroke-linejoin: round; stroke-linecap: butt}</style>
 </defs>
 <g id="figure_1">
  <g id="patch_1">
   <path d="M 0 568.491875 
L 454.587187 568.491875 
L 454.587187 0 
L 0 0 
z
" style="fill: #ffffff"/>
  </g>
  <g id="axes_1">
   <g id="patch_2">
    <path d="M 65.043594 274.63 
L 429.298594 274.63 
L 429.298594 52.08 
L 65.043594 52.08 
z
" style="fill: #ffffff"/>
   </g>
   <g id="matplotlib.axis_1">
    <g id="xtick_1">
     <g id="line2d_1">
      <path d="M 65.043594 274.63 
L 65.043594 52.08 
" clip-path="url(#p2b42828f66)" style="fill: none; stroke: #b0b0b0; stroke-width: 0.8; stroke-linecap: square"/>
     </g>
     <g id="line2d_2">
      <defs>
       <path id="m397d46f60d" d="M 0 0 
L 0 3.5 
" style="stroke: #000000; stroke-width: 0.8"/>
      </defs>
      <g>
       <use xlink:href="#m397d46f60d" x="65.043594" y="274.63" style="stroke: #000000; stroke-width: 0.8"/>
      </g>
     </g>
    </g>
    <g id="xtick_2">
     <g id="line2d_3">
      <path d="M 125.75276 274.63 
L 125.75276 52.08 
" clip-path="url(#p2b42828f66)" style="fill: none; stroke: #b0b0b0; stroke-width: 0.8; stroke-linecap: square"/>
     </g>
     <g id="line2d_4">
      <g>
       <use xlink:href="#m397d46f60d" x="125.75276" y="274.63" style="stroke: #000000; stroke-width: 0.8"/>
      </g>
     </g>
    </g>
    <g id="xtick_3">
     <g id="line2d_5">
      <path d="M 186.461927 274.63 
L 186.461927 52.08 
" clip-path="url(#p2b42828f66)" style="fill: none; stroke: #b0b0b0; stroke-width: 0.8; stroke-linecap: square"/>
     </g>
     <g id="line2d_6">
      <g>
       <use xlink:href="#m397d46f60d" x="186.461927" y="274.63" style="stroke: #000000; stroke-width: 0.8"/>
      </g>
     </g>
    </g>
    <g id="xtick_4">
     <g id="line2d_7">
      <path d="M 247.171094 274.63 
L 247.171094 52.08 
" clip-path="url(#p2b42828f66)" style="fill: none; stroke: #b0b0b0; stroke-width: 0.8; stroke-linecap: square"/>
     </g>
     <g id="line2d_8">
      <g>
       <use xlink:href="#m397d46f60d" x="247.171094" y="274.63" style="stroke: #000000; stroke-width: 0.8"/>
      </g>
     </g>
    </g>
    <g id="xtick_5">
     <g id="line2d_9">
      <path d="M 307.88026 274.63 
L 307.88026 52.08 
" clip-path="url(#p2b42828f66)" style="fill: none; stroke: #b0b0b0; stroke-width: 0.8; stroke-linecap: square"/>
     </g>
     <g id="line2d_10">
      <g>
       <use xlink:href="#m397d46f60d" x="307.88026" y="274.63" style="stroke: #000000; stroke-width: 0.8"/>
      </g>
     </g>
    </g>
    <g id="xtick_6">
     <g id="line2d_11">
      <path d="M 368.589427 274.63 
L 368.589427 52.08 
" clip-path="url(#p2b42828f66)" style="fill: none; stroke: #b0b0b0; stroke-width: 0.8; stroke-linecap: square"/>
     </g>
     <g id="line2d_12">
      <g>
       <use xlink:href="#m397d46f60d" x="368.589427" y="274.63" style="stroke: #000000; stroke-width: 0.8"/>
      </g>
     </g>
    </g>
    <g id="xtick_7">
     <g id="line2d_13">
      <path d="M 429.298594 274.63 
L 429.298594 52.08 
" clip-path="url(#p2b42828f66)" style="fill: none; stroke: #b0b0b0; stroke-width: 0.8; stroke-linecap: square"/>
     </g>
     <g id="line2d_14">
      <g>
       <use xlink:href="#m397d46f60d" x="429.298594" y="274.63" style="stroke: #000000; stroke-width: 0.8"/>
      </g>
     </g>
    </g>
   </g>
   <g id="matplotlib.axis_2">
    <g id="ytick_1">
     <g id="line2d_15">
      <path d="M 65.043594 257.628753 
L 429.298594 257.628753 
" clip-path="url(#p2b42828f66)" style="fill: none; stroke: #b0b0b0; stroke-width: 0.8; stroke-linecap: square"/>
     </g>
     <g id="line2d_16">
      <defs>
       <path id="me071b4f6bb" d="M 0 0 
L -3.5 0 
" style="stroke: #000000; stroke-width: 0.8"/>
      </defs>
      <g>
       <use xlink:href="#me071b4f6bb" x="65.043594" y="257.628753" style="stroke: #000000; stroke-width: 0.8"/>
      </g>
     </g>
     <g id="text_1">
      <!-- −10 -->
      <g transform="translate(36.938906 261.427971) scale(0.1 -0.1)">
       <defs>
        <path id="DejaVuSans-2212" d="M 678 2272 
L 4684 2272 
L 4684 1741 
L 678 1741 
L 678 2272 
z
" transform="scale(0.015625)"/>
        <path id="DejaVuSans-31" d="M 794 531 
L 1825 531 
L 1825 4091 
L 703 3866 
L 703 4441 
L 1819 4666 
L 2450 4666 
L 2450 531 
L 3481 531 
L 3481 0 
L 794 0 
L 794 531 
z
" transform="scale(0.015625)"/>
        <path id="DejaVuSans-30" d="M 2034 4250 
Q 1547 4250 1301 3770 
Q 1056 3291 1056 2328 
Q 1056 1369 1301 889 
Q 1547 409 2034 409 
Q 2525 409 2770 889 
Q 3016 1369 3016 2328 
Q 3016 3291 2770 3770 
Q 2525 4250 2034 4250 
z
M 2034 4750 
Q 2819 4750 3233 4129 
Q 3647 3509 3647 2328 
Q 3647 1150 3233 529 
Q 2819 -91 2034 -91 
Q 1250 -91 836 529 
Q 422 1150 422 2328 
Q 422 3509 836 4129 
Q 1250 4750 2034 4750 
z
" transform="scale(0.015625)"/>
       </defs>
       <use xlink:href="#DejaVuSans-2212"/>
       <use xlink:href="#DejaVuSans-31" x="83.789062"/>
       <use xlink:href="#DejaVuSans-30" x="147.412109"/>
      </g>
     </g>
    </g>
    <g id="ytick_2">
     <g id="line2d_17">
      <path d="M 65.043594 222.857665 
L 429.298594 222.857665 
" clip-path="url(#p2b42828f66)" style="fill: none; stroke: #b0b0b0; stroke-width: 0.8; stroke-linecap: square"/>
     </g>
     <g id="line2d_18">
      <g>
       <use xlink:href="#me071b4f6bb" x="65.043594" y="222.857665" style="stroke: #000000; stroke-width: 0.8"/>
      </g>
     </g>
     <g id="text_2">
      <!-- −5 -->
      <g transform="translate(43.301406 226.656884) scale(0.1 -0.1)">
       <defs>
        <path id="DejaVuSans-35" d="M 691 4666 
L 3169 4666 
L 3169 4134 
L 1269 4134 
L 1269 2991 
Q 1406 3038 1543 3061 
Q 1681 3084 1819 3084 
Q 2600 3084 3056 2656 
Q 3513 2228 3513 1497 
Q 3513 744 3044 326 
Q 2575 -91 1722 -91 
Q 1428 -91 1123 -41 
Q 819 9 494 109 
L 494 744 
Q 775 591 1075 516 
Q 1375 441 1709 441 
Q 2250 441 2565 725 
Q 2881 1009 2881 1497 
Q 2881 1984 2565 2268 
Q 2250 2553 1709 2553 
Q 1456 2553 1204 2497 
Q 953 2441 691 2322 
L 691 4666 
z
" transform="scale(0.015625)"/>
       </defs>
       <use xlink:href="#DejaVuSans-2212"/>
       <use xlink:href="#DejaVuSans-35" x="83.789062"/>
      </g>
     </g>
    </g>
    <g id="ytick_3">
     <g id="line2d_19">
      <path d="M 65.043594 188.086577 
L 429.298594 188.086577 
" clip-path="url(#p2b42828f66)" style="fill: none; stroke: #b0b0b0; stroke-width: 0.8; stroke-linecap: square"/>
     </g>
     <g id="line2d_20">
      <g>
       <use xlink:href="#me071b4f6bb" x="65.043594" y="188.086577" style="stroke: #000000; stroke-width: 0.8"/>
      </g>
     </g>
     <g id="text_3">
      <!-- 0 -->
      <g transform="translate(51.681094 191.885796) scale(0.1 -0.1)">
       <use xlink:href="#DejaVuSans-30"/>
      </g>
     </g>
    </g>
    <g id="ytick_4">
     <g id="line2d_21">
      <path d="M 65.043594 153.315489 
L 429.298594 153.315489 
" clip-path="url(#p2b42828f66)" style="fill: none; stroke: #b0b0b0; stroke-width: 0.8; stroke-linecap: square"/>
     </g>
     <g id="line2d_22">
      <g>
       <use xlink:href="#me071b4f6bb" x="65.043594" y="153.315489" style="stroke: #000000; stroke-width: 0.8"/>
      </g>
     </g>
     <g id="text_4">
      <!-- 5 -->
      <g transform="translate(51.681094 157.114708) scale(0.1 -0.1)">
       <use xlink:href="#DejaVuSans-35"/>
      </g>
     </g>
    </g>
    <g id="ytick_5">
     <g id="line2d_23">
      <path d="M 65.043594 118.544401 
L 429.298594 118.544401 
" clip-path="url(#p2b42828f66)" style="fill: none; stroke: #b0b0b0; stroke-width: 0.8; stroke-linecap: square"/>
     </g>
     <g id="line2d_24">
      <g>
       <use xlink:href="#me071b4f6bb" x="65.043594" y="118.544401" style="stroke: #000000; stroke-width: 0.8"/>
      </g>
     </g>
     <g id="text_5">
      <!-- 10 -->
      <g transform="translate(45.318594 122.34362) scale(0.1 -0.1)">
       <use xlink:href="#DejaVuSans-31"/>
       <use xlink:href="#DejaVuSans-30" x="63.623047"/>
      </g>
     </g>
    </g>
    <g id="ytick_6">
     <g id="line2d_25">
      <path d="M 65.043594 83.773314 
L 429.298594 83.773314 
" clip-path="url(#p2b42828f66)" style="fill: none; stroke: #b0b0b0; stroke-width: 0.8; stroke-linecap: square"/>
     </g>
     <g id="line2d_26">
      <g>
       <use xlink:href="#me071b4f6bb" x="65.043594" y="83.773314" style="stroke: #000000; stroke-width: 0.8"/>
      </g>
     </g>
     <g id="text_6">
      <!-- 15 -->
      <g transform="translate(45.318594 87.572532) scale(0.1 -0.1)">
       <use xlink:href="#DejaVuSans-31"/>
       <use xlink:href="#DejaVuSans-35" x="63.623047"/>
      </g>
     </g>
    </g>
    <g id="text_7">
     <!-- ΔF/F (%) -->
     <g transform="translate(30.443281 188.672187) rotate(-90) scale(0.12 -0.12)">
      <defs>
       <path id="DejaVuSans-394" d="M 2188 4044 
L 906 525 
L 3472 525 
L 2188 4044 
z
M 50 0 
L 1831 4666 
L 2547 4666 
L 4325 0 
L 50 0 
z
" transform="scale(0.015625)"/>
       <path id="DejaVuSans-46" d="M 628 4666 
L 3309 4666 
L 3309 4134 
L 1259 4134 
L 1259 2759 
L 3109 2759 
L 3109 2228 
L 1259 2228 
L 1259 0 
L 628 0 
L 628 4666 
z
" transform="scale(0.015625)"/>
       <path id="DejaVuSans-2f" d="M 1625 4666 
L 2156 4666 
L 531 -594 
L 0 -594 
L 1625 4666 
z
" transform="scale(0.015625)"/>
       <path id="DejaVuSans-20" transform="scale(0.015625)"/>
       <path id="DejaVuSans-28" d="M 1984 4856 
Q 1566 4138 1362 3434 
Q 1159 2731 1159 2009 
Q 1159 1288 1364 580 
Q 1569 -128 1984 -844 
L 1484 -844 
Q 1016 -109 783 600 
Q 550 1309 550 2009 
Q 550 2706 781 3412 
Q 1013 4119 1484 4856 
L 1984 4856 
z
" transform="scale(0.015625)"/>
       <path id="DejaVuSans-25" d="M 4653 2053 
Q 4381 2053 4226 1822 
Q 4072 1591 4072 1178 
Q 4072 772 4226 539 
Q 4381 306 4653 306 
Q 4919 306 5073 539 
Q 5228 772 5228 1178 
Q 5228 1588 5073 1820 
Q 4919 2053 4653 2053 
z
M 4653 2450 
Q 5147 2450 5437 2106 
Q 5728 1763 5728 1178 
Q 5728 594 5436 251 
Q 5144 -91 4653 -91 
Q 4153 -91 3862 251 
Q 3572 594 3572 1178 
Q 3572 1766 3864 2108 
Q 4156 2450 4653 2450 
z
M 1428 4353 
Q 1159 4353 1004 4120 
Q 850 3888 850 3481 
Q 850 3069 1003 2837 
Q 1156 2606 1428 2606 
Q 1700 2606 1854 2837 
Q 2009 3069 2009 3481 
Q 2009 3884 1853 4118 
Q 1697 4353 1428 4353 
z
M 4250 4750 
L 4750 4750 
L 1831 -91 
L 1331 -91 
L 4250 4750 
z
M 1428 4750 
Q 1922 4750 2215 4408 
Q 2509 4066 2509 3481 
Q 2509 2891 2217 2550 
Q 1925 2209 1428 2209 
Q 931 2209 642 2551 
Q 353 2894 353 3481 
Q 353 4063 643 4406 
Q 934 4750 1428 4750 
z
" transform="scale(0.015625)"/>
       <path id="DejaVuSans-29" d="M 513 4856 
L 1013 4856 
Q 1481 4119 1714 3412 
Q 1947 2706 1947 2009 
Q 1947 1309 1714 600 
Q 1481 -109 1013 -844 
L 513 -844 
Q 928 -128 1133 580 
Q 1338 1288 1338 2009 
Q 1338 2731 1133 3434 
Q 928 4138 513 4856 
z
" transform="scale(0.015625)"/>
      </defs>
      <use xlink:href="#DejaVuSans-394"/>
      <use xlink:href="#DejaVuSans-46" x="68.408203"/>
      <use xlink:href="#DejaVuSans-2f" x="125.927734"/>
      <use xlink:href="#DejaVuSans-46" x="159.619141"/>
      <use xlink:href="#DejaVuSans-20" x="217.138672"/>
      <use xlink:href="#DejaVuSans-28" x="248.925781"/>
      <use xlink:href="#DejaVuSans-25" x="287.939453"/>
      <use xlink:href="#DejaVuSans-29" x="382.958984"/>
     </g>
    </g>
   </g>
   <g id="line2d_27">
    <path d="M 65.043594 195.675533 
L 67.521519 195.707167 
L 74.955294 198.362106 
L 77.43322 198.756279 
L 79.911145 198.612065 
L 82.38907 197.976132 
L 87.34492 196.375047 
L 89.822845 195.727676 
L 92.300771 195.495329 
L 97.256621 195.971965 
L 102.212471 196.445009 
L 104.690396 196.348575 
L 109.646247 195.326483 
L 112.124172 194.77032 
L 114.602097 193.955419 
L 122.035873 190.974092 
L 124.513798 189.804437 
L 126.991723 188.454708 
L 129.469648 186.674811 
L 131.947573 184.086947 
L 134.425499 180.973107 
L 136.903424 178.505054 
L 139.381349 177.453033 
L 141.859274 177.062138 
L 144.337199 176.202664 
L 146.815124 175.095248 
L 149.29305 174.619104 
L 151.770975 174.766334 
L 154.2489 175.223892 
L 156.726825 176.40225 
L 161.682675 180.704385 
L 164.160601 181.354421 
L 166.638526 180.308679 
L 169.116451 178.907869 
L 171.594376 178.570195 
L 174.072301 179.857189 
L 179.028152 184.827843 
L 181.506077 186.702382 
L 183.984002 188.20565 
L 186.461927 189.535247 
L 191.417777 191.901291 
L 193.895703 192.860574 
L 198.851553 193.91962 
L 201.329478 195.198983 
L 203.807403 197.470681 
L 206.285328 199.953448 
L 208.763254 201.589365 
L 211.241179 201.93885 
L 213.719104 201.140734 
L 216.197029 199.731696 
L 218.674954 198.550045 
L 221.152879 198.114296 
L 228.586655 198.225492 
L 231.06458 198.526444 
L 236.02043 199.354135 
L 238.498356 199.393705 
L 240.976281 198.741314 
L 245.932131 195.899902 
L 248.410056 195.281564 
L 250.887982 195.43341 
L 253.365907 195.850902 
L 255.843832 196.53763 
L 258.321757 197.643188 
L 263.277607 200.053178 
L 265.755533 201.126429 
L 268.233458 201.882564 
L 270.711383 201.687744 
L 273.189308 200.335775 
L 278.145158 196.545857 
L 280.623084 195.163366 
L 285.578934 192.945119 
L 288.056859 191.574644 
L 290.534784 189.873752 
L 293.012709 187.80637 
L 297.96856 183.057242 
L 300.446485 181.893689 
L 302.92441 182.381575 
L 305.402335 183.310748 
L 307.88026 183.361369 
L 310.358186 182.980616 
L 315.314036 182.934575 
L 320.269886 182.017514 
L 322.747811 182.286479 
L 325.225737 183.316339 
L 327.703662 184.839046 
L 332.659512 188.408683 
L 335.137437 189.849348 
L 340.093288 192.233026 
L 342.571213 193.960031 
L 345.049138 196.033801 
L 347.527063 197.814793 
L 350.004988 198.835631 
L 352.482913 199.497495 
L 354.960839 200.601059 
L 357.438764 202.124774 
L 359.916689 203.183904 
L 362.394614 203.372566 
L 364.872539 203.192698 
L 367.350464 203.247412 
L 369.82839 203.588115 
L 372.306315 203.450361 
L 374.78424 202.076398 
L 377.262165 200.132382 
L 379.74009 199.138829 
L 382.218016 199.48857 
L 384.695941 200.261748 
L 387.173866 200.5566 
L 389.651791 200.088431 
L 392.129716 199.257811 
L 394.607641 198.843226 
L 397.085567 199.162632 
L 402.041417 200.767359 
L 404.519342 200.967498 
L 406.997267 200.639413 
L 409.475192 200.59308 
L 411.953118 201.30731 
L 414.431043 202.506004 
L 416.908968 203.52304 
L 419.386893 203.838699 
L 421.864818 203.456457 
L 424.342743 202.493655 
L 429.298594 199.6167 
L 429.298594 199.6167 
" clip-path="url(#p2b42828f66)" style="fill: none; stroke: #1f77b4; stroke-opacity: 0.4; stroke-width: 1.5; stroke-linecap: square"/>
   </g>
   <g id="line2d_28">
    <path d="M 65.043594 193.408262 
L 67.521519 192.531513 
L 69.999444 191.493441 
L 72.477369 190.760152 
L 74.955294 190.628978 
L 79.911145 191.362134 
L 82.38907 191.869627 
L 84.866995 192.735912 
L 87.34492 193.890629 
L 89.822845 194.551988 
L 92.300771 193.999468 
L 94.778696 192.605189 
L 97.256621 191.372343 
L 99.734546 190.404306 
L 102.212471 188.962359 
L 104.690396 187.124472 
L 107.168322 185.693718 
L 109.646247 184.558248 
L 112.124172 182.75792 
L 114.602097 180.174581 
L 117.080022 177.963198 
L 119.557947 176.949176 
L 126.991723 175.925751 
L 129.469648 176.187642 
L 131.947573 177.112213 
L 134.425499 178.331618 
L 136.903424 179.919194 
L 139.381349 182.174467 
L 141.859274 184.752697 
L 144.337199 186.791311 
L 146.815124 187.717774 
L 149.29305 187.624884 
L 154.2489 186.632647 
L 156.726825 186.25111 
L 159.20475 186.062204 
L 161.682675 186.927523 
L 164.160601 189.420472 
L 166.638526 192.663924 
L 169.116451 195.483613 
L 171.594376 197.595235 
L 174.072301 198.912928 
L 176.550226 199.249455 
L 179.028152 198.84091 
L 181.506077 198.047717 
L 183.984002 196.865978 
L 186.461927 195.371657 
L 188.939852 194.23476 
L 191.417777 194.150121 
L 196.373628 195.636364 
L 201.329478 196.502671 
L 203.807403 197.498638 
L 206.285328 198.893777 
L 211.241179 201.898666 
L 213.719104 202.905369 
L 216.197029 203.230252 
L 218.674954 203.086917 
L 221.152879 202.667621 
L 223.630805 202.10984 
L 226.10873 201.729697 
L 231.06458 201.637766 
L 233.542505 201.152184 
L 238.498356 199.178957 
L 240.976281 198.543602 
L 245.932131 197.639352 
L 248.410056 197.524352 
L 250.887982 198.359189 
L 253.365907 199.777392 
L 255.843832 200.994247 
L 258.321757 201.968224 
L 260.799682 203.21508 
L 263.277607 204.780822 
L 265.755533 206.069908 
L 268.233458 206.489184 
L 270.711383 206.033662 
L 273.189308 205.403387 
L 275.667233 205.25307 
L 283.101009 205.966234 
L 285.578934 205.965647 
L 290.534784 205.430158 
L 293.012709 205.367888 
L 295.490635 205.603318 
L 297.96856 206.019199 
L 300.446485 206.642621 
L 302.92441 207.725502 
L 305.402335 209.204922 
L 307.88026 210.478917 
L 310.358186 211.160134 
L 320.269886 212.299331 
L 322.747811 211.264794 
L 325.225737 208.13599 
L 330.181587 198.775699 
L 332.659512 195.693249 
L 335.137437 194.257889 
L 337.615362 194.073938 
L 340.093288 195.482158 
L 342.571213 198.809731 
L 345.049138 203.002581 
L 347.527063 206.34827 
L 350.004988 207.97952 
L 352.482913 208.069218 
L 354.960839 207.208842 
L 357.438764 205.605508 
L 359.916689 202.836685 
L 364.872539 194.857959 
L 367.350464 192.185411 
L 369.82839 191.615981 
L 372.306315 192.760063 
L 379.74009 198.008553 
L 382.218016 199.278716 
L 384.695941 199.308523 
L 387.173866 198.041648 
L 389.651791 196.529192 
L 392.129716 195.639625 
L 397.085567 194.783198 
L 399.563492 193.734681 
L 402.041417 191.836097 
L 404.519342 189.542381 
L 406.997267 187.863252 
L 409.475192 187.544517 
L 411.953118 188.333487 
L 414.431043 189.270849 
L 416.908968 189.514439 
L 419.386893 188.741221 
L 424.342743 185.742569 
L 426.820669 184.806927 
L 429.298594 184.428449 
L 429.298594 184.428449 
" clip-path="url(#p2b42828f66)" style="fill: none; stroke: #ff7f0e; stroke-opacity: 0.4; stroke-width: 1.5; stroke-linecap: square"/>
   </g>
   <g id="line2d_29">
    <path d="M 65.043594 192.185331 
L 67.521519 192.546942 
L 69.999444 193.8648 
L 77.43322 198.865563 
L 79.911145 199.877996 
L 82.38907 198.326461 
L 84.866995 193.604739 
L 89.822845 180.852788 
L 92.300771 175.303263 
L 94.778696 171.944787 
L 97.256621 172.544037 
L 99.734546 176.990239 
L 102.212471 181.93448 
L 104.690396 183.554331 
L 109.646247 180.030232 
L 112.124172 180.910903 
L 114.602097 183.899075 
L 117.080022 186.58804 
L 119.557947 186.865251 
L 122.035873 184.388037 
L 124.513798 180.851811 
L 126.991723 178.369181 
L 129.469648 177.321289 
L 131.947573 176.126145 
L 134.425499 173.773557 
L 136.903424 172.065214 
L 139.381349 173.130929 
L 141.859274 176.259375 
L 144.337199 180.311642 
L 146.815124 186.161582 
L 149.29305 193.698892 
L 151.770975 200.014669 
L 154.2489 202.636892 
L 156.726825 201.7187 
L 159.20475 198.551164 
L 161.682675 194.380308 
L 164.160601 191.071653 
L 166.638526 191.024665 
L 169.116451 195.037072 
L 171.594376 200.850906 
L 174.072301 204.743914 
L 176.550226 204.468972 
L 179.028152 200.493553 
L 181.506077 195.121219 
L 183.984002 191.299689 
L 186.461927 191.089468 
L 188.939852 194.184405 
L 193.895703 203.104737 
L 196.373628 205.393516 
L 198.851553 203.869089 
L 201.329478 199.605969 
L 203.807403 196.511964 
L 206.285328 196.441852 
L 208.763254 197.236296 
L 211.241179 196.416688 
L 213.719104 193.976689 
L 216.197029 191.350291 
L 218.674954 189.690796 
L 221.152879 189.647217 
L 223.630805 191.425425 
L 226.10873 194.628022 
L 228.586655 198.476214 
L 231.06458 201.397754 
L 233.542505 201.440004 
L 236.02043 198.687269 
L 238.498356 195.48537 
L 240.976281 194.039316 
L 243.454206 194.931265 
L 245.932131 197.252179 
L 250.887982 203.101246 
L 253.365907 204.357372 
L 255.843832 202.441091 
L 258.321757 198.705602 
L 260.799682 196.042048 
L 263.277607 195.603604 
L 265.755533 195.806204 
L 268.233458 194.642162 
L 273.189308 189.478916 
L 275.667233 187.988882 
L 278.145158 187.720838 
L 280.623084 188.984229 
L 283.101009 192.459823 
L 285.578934 197.426023 
L 288.056859 201.623858 
L 290.534784 203.490516 
L 293.012709 203.771359 
L 295.490635 205.015755 
L 297.96856 209.029207 
L 300.446485 214.779995 
L 302.92441 219.543795 
L 305.402335 221.532684 
L 307.88026 220.765332 
L 310.358186 218.081223 
L 312.836111 214.124765 
L 315.314036 209.73089 
L 317.791961 206.483066 
L 320.269886 205.83448 
L 322.747811 207.590838 
L 325.225737 209.727483 
L 327.703662 211.183669 
L 330.181587 213.090906 
L 332.659512 215.246564 
L 335.137437 215.718782 
L 337.615362 214.947059 
L 340.093288 215.252948 
L 342.571213 216.845563 
L 345.049138 218.150208 
L 347.527063 218.468158 
L 350.004988 217.835632 
L 352.482913 216.261509 
L 354.960839 214.53068 
L 357.438764 213.744714 
L 359.916689 213.277632 
L 362.394614 211.074329 
L 364.872539 206.124985 
L 367.350464 199.434853 
L 369.82839 193.275074 
L 372.306315 189.603012 
L 377.262165 186.799783 
L 379.74009 184.730301 
L 382.218016 183.502738 
L 384.695941 184.221767 
L 389.651791 187.94698 
L 392.129716 189.981793 
L 394.607641 192.706277 
L 397.085567 196.809604 
L 399.563492 202.869227 
L 402.041417 210.158175 
L 404.519342 216.585083 
L 406.997267 220.490644 
L 409.475192 221.687006 
L 411.953118 221.255518 
L 414.431043 220.452617 
L 416.908968 219.896788 
L 419.386893 220.28634 
L 421.864818 221.975654 
L 424.342743 223.355996 
L 426.820669 222.335293 
L 429.298594 219.055886 
L 429.298594 219.055886 
" clip-path="url(#p2b42828f66)" style="fill: none; stroke: #2ca02c; stroke-opacity: 0.4; stroke-width: 1.5; stroke-linecap: square"/>
   </g>
   <g id="line2d_30">
    <path d="M 65.043594 189.440597 
L 67.521519 190.181915 
L 69.999444 190.704352 
L 72.477369 190.974362 
L 77.43322 190.811466 
L 79.911145 191.13213 
L 84.866995 193.156086 
L 87.34492 193.190928 
L 89.822845 192.190174 
L 97.256621 187.828613 
L 99.734546 186.749158 
L 104.690396 185.436783 
L 107.168322 184.569909 
L 112.124172 182.585829 
L 114.602097 182.00006 
L 117.080022 182.093213 
L 119.557947 183.086625 
L 122.035873 184.660475 
L 124.513798 185.948871 
L 126.991723 186.511387 
L 129.469648 186.829474 
L 131.947573 187.273817 
L 134.425499 187.58508 
L 136.903424 187.731295 
L 141.859274 188.295046 
L 144.337199 188.175353 
L 146.815124 187.627679 
L 149.29305 187.233881 
L 151.770975 187.366582 
L 154.2489 187.686676 
L 156.726825 187.767978 
L 161.682675 187.516542 
L 164.160601 187.558368 
L 166.638526 187.977102 
L 171.594376 189.871534 
L 174.072301 190.243511 
L 179.028152 189.433862 
L 181.506077 189.607434 
L 183.984002 190.12512 
L 186.461927 190.405485 
L 188.939852 190.242407 
L 191.417777 189.804469 
L 193.895703 189.208444 
L 196.373628 188.357135 
L 201.329478 185.986775 
L 203.807403 185.239269 
L 206.285328 185.202258 
L 211.241179 185.7873 
L 213.719104 185.787263 
L 216.197029 185.570967 
L 218.674954 185.71197 
L 221.152879 186.605723 
L 223.630805 187.833413 
L 226.10873 188.911111 
L 228.586655 189.718139 
L 231.06458 190.202159 
L 233.542505 190.423436 
L 236.02043 190.439286 
L 238.498356 190.13321 
L 240.976281 189.667453 
L 243.454206 189.440476 
L 245.932131 189.379459 
L 248.410056 189.108358 
L 253.365907 188.033551 
L 255.843832 187.79102 
L 258.321757 187.922004 
L 260.799682 188.321174 
L 265.755533 189.651248 
L 268.233458 189.981608 
L 273.189308 189.775332 
L 275.667233 190.410948 
L 278.145158 191.520696 
L 280.623084 192.156023 
L 285.578934 191.877953 
L 288.056859 192.323891 
L 290.534784 193.003184 
L 295.490635 193.900771 
L 297.96856 194.508275 
L 300.446485 194.773014 
L 302.92441 194.367553 
L 305.402335 193.747544 
L 310.358186 192.927778 
L 312.836111 191.628589 
L 315.314036 189.538342 
L 317.791961 187.660075 
L 322.747811 185.528569 
L 325.225737 183.97267 
L 327.703662 182.257001 
L 330.181587 181.071809 
L 332.659512 180.399209 
L 335.137437 179.884798 
L 337.615362 179.695431 
L 340.093288 180.195481 
L 342.571213 181.041389 
L 345.049138 181.425916 
L 347.527063 181.191211 
L 350.004988 181.188229 
L 352.482913 182.280321 
L 354.960839 184.233604 
L 357.438764 185.974444 
L 359.916689 186.821844 
L 362.394614 187.172375 
L 364.872539 187.827123 
L 367.350464 189.011257 
L 369.82839 190.435884 
L 372.306315 191.683144 
L 374.78424 192.382114 
L 377.262165 192.571028 
L 379.74009 192.639822 
L 382.218016 192.911768 
L 387.173866 193.955254 
L 389.651791 193.914055 
L 399.563492 191.960174 
L 402.041417 191.719054 
L 406.997267 191.697825 
L 409.475192 191.871438 
L 411.953118 192.166309 
L 414.431043 192.289151 
L 416.908968 192.115218 
L 419.386893 191.727337 
L 421.864818 191.004366 
L 424.342743 189.707151 
L 426.820669 188.028474 
L 429.298594 186.70725 
L 429.298594 186.70725 
" clip-path="url(#p2b42828f66)" style="fill: none; stroke: #d62728; stroke-opacity: 0.4; stroke-width: 1.5; stroke-linecap: square"/>
   </g>
   <g id="line2d_31">
    <path d="M 65.043594 196.167694 
L 67.521519 196.634007 
L 69.999444 197.284821 
L 72.477369 197.71008 
L 74.955294 197.635749 
L 77.43322 197.087057 
L 82.38907 195.606319 
L 84.866995 194.612883 
L 89.822845 191.82058 
L 92.300771 191.078401 
L 99.734546 190.317679 
L 104.690396 189.57074 
L 109.646247 188.515736 
L 112.124172 188.161468 
L 114.602097 187.587994 
L 117.080022 186.364432 
L 119.557947 184.675871 
L 122.035873 183.376363 
L 124.513798 183.194549 
L 126.991723 184.080643 
L 129.469648 185.244556 
L 131.947573 185.78204 
L 134.425499 185.421914 
L 136.903424 184.692527 
L 139.381349 184.397183 
L 141.859274 184.924113 
L 144.337199 185.911532 
L 146.815124 186.607411 
L 149.29305 186.566706 
L 151.770975 185.86155 
L 156.726825 183.720403 
L 159.20475 182.847693 
L 161.682675 182.273414 
L 164.160601 182.014202 
L 166.638526 182.101183 
L 169.116451 182.478624 
L 171.594376 183.003208 
L 174.072301 183.699782 
L 179.028152 185.594264 
L 181.506077 186.046724 
L 186.461927 186.133554 
L 188.939852 186.463364 
L 198.851553 188.70824 
L 201.329478 189.494036 
L 203.807403 190.093008 
L 208.763254 190.683444 
L 211.241179 191.287191 
L 216.197029 193.243633 
L 218.674954 193.918629 
L 221.152879 194.156095 
L 223.630805 194.095715 
L 226.10873 193.873268 
L 231.06458 193.096732 
L 233.542505 193.038367 
L 238.498356 194.010535 
L 240.976281 194.034035 
L 243.454206 193.437998 
L 245.932131 192.660901 
L 248.410056 192.29122 
L 253.365907 192.644656 
L 255.843832 192.012122 
L 258.321757 190.465162 
L 260.799682 188.659159 
L 263.277607 187.258403 
L 268.233458 185.221661 
L 270.711383 184.434326 
L 273.189308 184.368624 
L 278.145158 185.645862 
L 280.623084 185.899827 
L 283.101009 185.92405 
L 285.578934 186.306652 
L 288.056859 187.322169 
L 290.534784 188.65947 
L 293.012709 189.781402 
L 295.490635 190.315497 
L 300.446485 190.211486 
L 302.92441 190.840194 
L 305.402335 192.091662 
L 307.88026 192.992475 
L 310.358186 192.784938 
L 312.836111 191.67814 
L 315.314036 190.37406 
L 317.791961 189.471891 
L 320.269886 189.137324 
L 322.747811 188.917425 
L 327.703662 187.898718 
L 330.181587 187.973852 
L 332.659512 188.279708 
L 335.137437 188.149251 
L 342.571213 186.506048 
L 345.049138 186.500742 
L 347.527063 186.932934 
L 352.482913 187.968352 
L 354.960839 188.408991 
L 357.438764 189.070681 
L 359.916689 190.051194 
L 362.394614 191.329409 
L 364.872539 192.802966 
L 367.350464 194.038696 
L 369.82839 194.355925 
L 372.306315 193.534974 
L 374.78424 192.251042 
L 377.262165 191.392311 
L 379.74009 191.121126 
L 387.173866 190.771207 
L 389.651791 191.312793 
L 392.129716 192.026883 
L 394.607641 192.4614 
L 397.085567 192.504934 
L 399.563492 192.412768 
L 402.041417 192.551161 
L 404.519342 193.124301 
L 411.953118 195.771309 
L 416.908968 197.145915 
L 419.386893 197.617337 
L 421.864818 197.827462 
L 424.342743 197.787628 
L 426.820669 197.485093 
L 429.298594 196.769739 
L 429.298594 196.769739 
" clip-path="url(#p2b42828f66)" style="fill: none; stroke: #9467bd; stroke-opacity: 0.4; stroke-width: 1.5; stroke-linecap: square"/>
   </g>
   <g id="line2d_32">
    <path d="M 65.043594 185.383129 
L 67.521519 190.435053 
L 69.999444 193.151131 
L 72.477369 192.035772 
L 74.955294 188.173567 
L 77.43322 181.332614 
L 82.38907 162.084714 
L 84.866995 156.995987 
L 87.34492 156.023485 
L 89.822845 156.037186 
L 92.300771 156.424989 
L 94.778696 158.879823 
L 97.256621 163.936373 
L 99.734546 171.229138 
L 102.212471 179.286684 
L 104.690396 184.13535 
L 107.168322 181.850456 
L 109.646247 171.616693 
L 112.124172 156.530356 
L 114.602097 143.848114 
L 117.080022 140.241699 
L 119.557947 145.481606 
L 122.035873 154.939401 
L 124.513798 165.166236 
L 126.991723 174.106214 
L 131.947573 187.959512 
L 136.903424 206.728451 
L 139.381349 212.692978 
L 141.859274 215.621444 
L 144.337199 216.955238 
L 146.815124 216.589622 
L 149.29305 215.452723 
L 151.770975 215.284294 
L 154.2489 216.74384 
L 156.726825 219.706607 
L 159.20475 223.021393 
L 161.682675 223.475319 
L 164.160601 218.673246 
L 166.638526 210.876961 
L 169.116451 204.596403 
L 171.594376 201.702078 
L 174.072301 201.284285 
L 176.550226 203.08053 
L 179.028152 208.076666 
L 183.984002 222.94383 
L 186.461927 227.048108 
L 188.939852 226.930521 
L 191.417777 223.841652 
L 196.373628 215.655549 
L 198.851553 212.929829 
L 201.329478 211.447086 
L 203.807403 208.48427 
L 208.763254 195.720404 
L 211.241179 193.146894 
L 213.719104 194.730275 
L 216.197029 198.423925 
L 218.674954 203.724248 
L 221.152879 210.077321 
L 223.630805 215.464494 
L 228.586655 223.005225 
L 231.06458 227.83444 
L 233.542505 230.152645 
L 236.02043 225.23408 
L 238.498356 215.268284 
L 240.976281 209.466612 
L 243.454206 214.678864 
L 245.932131 227.787931 
L 248.410056 238.157741 
L 250.887982 239.180772 
L 255.843832 229.769109 
L 258.321757 226.856336 
L 260.799682 224.78938 
L 263.277607 220.703101 
L 265.755533 206.79502 
L 268.233458 175.273594 
L 270.711383 131.393879 
L 273.189308 95.185957 
L 275.667233 81.498373 
L 278.145158 83.442265 
L 280.623084 83.657289 
L 283.101009 75.484626 
L 285.578934 65.623748 
L 288.056859 62.195909 
L 290.534784 68.328184 
L 293.012709 83.763426 
L 295.490635 104.788817 
L 297.96856 124.700465 
L 300.446485 139.747174 
L 305.402335 164.366667 
L 307.88026 175.372998 
L 310.358186 182.094457 
L 315.314036 189.505979 
L 317.791961 190.307213 
L 320.269886 182.965192 
L 322.747811 167.68392 
L 325.225737 150.433909 
L 327.703662 138.832034 
L 330.181587 138.800649 
L 332.659512 151.339376 
L 335.137437 172.132961 
L 337.615362 194.451988 
L 340.093288 211.998948 
L 342.571213 222.441178 
L 347.527063 234.96538 
L 350.004988 241.962275 
L 352.482913 246.392741 
L 354.960839 246.132866 
L 357.438764 244.840964 
L 362.394614 248.998448 
L 364.872539 240.529961 
L 367.350464 213.599146 
L 372.306315 129.916608 
L 374.78424 105.167636 
L 377.262165 103.723293 
L 379.74009 121.897393 
L 382.218016 150.893804 
L 384.695941 177.406508 
L 387.173866 191.169935 
L 389.651791 194.769911 
L 392.129716 199.107749 
L 394.607641 210.26604 
L 397.085567 225.229087 
L 399.563492 238.659263 
L 402.041417 247.266795 
L 404.519342 248.477206 
L 406.997267 241.377059 
L 409.475192 229.564579 
L 411.953118 220.104411 
L 414.431043 218.660876 
L 416.908968 225.086143 
L 419.386893 232.406102 
L 421.864818 233.649201 
L 424.342743 230.492765 
L 426.820669 229.245836 
L 429.298594 231.91184 
L 429.298594 231.91184 
" clip-path="url(#p2b42828f66)" style="fill: none; stroke: #8c564b; stroke-opacity: 0.4; stroke-width: 1.5; stroke-linecap: square"/>
   </g>
   <g id="line2d_33">
    <path d="M 65.043594 192.043424 
L 69.999444 193.851453 
L 72.477369 194.098803 
L 74.955294 193.814436 
L 77.43322 192.965828 
L 79.911145 191.474884 
L 82.38907 189.668466 
L 84.866995 188.045409 
L 92.300771 183.843584 
L 94.778696 183.203133 
L 97.256621 183.713742 
L 99.734546 185.319273 
L 102.212471 187.11603 
L 104.690396 187.695042 
L 107.168322 186.461673 
L 109.646247 183.930379 
L 112.124172 180.952799 
L 114.602097 178.577541 
L 117.080022 177.701546 
L 119.557947 178.174498 
L 131.947573 183.056779 
L 134.425499 183.895862 
L 136.903424 184.940289 
L 139.381349 186.308695 
L 141.859274 187.819135 
L 144.337199 189.057956 
L 151.770975 191.731534 
L 154.2489 192.288019 
L 156.726825 192.594508 
L 159.20475 192.780172 
L 161.682675 192.546248 
L 166.638526 190.825419 
L 169.116451 190.89754 
L 171.594376 191.932192 
L 174.072301 193.123602 
L 176.550226 193.941252 
L 181.506077 195.196139 
L 186.461927 196.597253 
L 191.417777 197.580275 
L 193.895703 197.88748 
L 196.373628 197.751084 
L 203.807403 195.882972 
L 208.763254 195.197197 
L 211.241179 195.079265 
L 216.197029 195.258461 
L 218.674954 195.780434 
L 221.152879 196.878046 
L 231.06458 202.115882 
L 233.542505 202.530949 
L 236.02043 201.23007 
L 238.498356 198.911677 
L 240.976281 197.415389 
L 243.454206 197.991984 
L 248.410056 202.086265 
L 250.887982 202.854584 
L 253.365907 202.508769 
L 258.321757 200.593419 
L 260.799682 199.988253 
L 263.277607 199.559392 
L 265.755533 197.612786 
L 268.233458 192.248462 
L 270.711383 184.241611 
L 273.189308 177.424665 
L 275.667233 174.751219 
L 280.623084 175.272828 
L 285.578934 173.357523 
L 288.056859 173.460274 
L 290.534784 174.797544 
L 293.012709 177.324259 
L 295.490635 180.834834 
L 297.96856 184.597968 
L 300.446485 188.007996 
L 302.92441 191.148054 
L 305.402335 194.042371 
L 307.88026 196.059006 
L 310.358186 196.671524 
L 312.836111 196.286007 
L 315.314036 195.636145 
L 317.791961 194.747013 
L 320.269886 193.132175 
L 322.747811 190.545337 
L 325.225737 187.328448 
L 327.703662 184.735302 
L 330.181587 184.390491 
L 332.659512 186.561132 
L 340.093288 197.014865 
L 342.571213 199.93399 
L 345.049138 202.302755 
L 347.527063 204.286791 
L 350.004988 205.884525 
L 352.482913 206.744939 
L 357.438764 206.893514 
L 359.916689 207.183834 
L 362.394614 206.80561 
L 364.872539 204.222615 
L 367.350464 198.586129 
L 369.82839 190.818958 
L 372.306315 183.49136 
L 374.78424 179.093845 
L 377.262165 178.486221 
L 379.74009 181.256004 
L 384.695941 190.899359 
L 387.173866 193.422788 
L 389.651791 194.09356 
L 392.129716 194.906444 
L 394.607641 197.068929 
L 399.563492 203.267749 
L 402.041417 205.71644 
L 404.519342 206.728016 
L 406.997267 206.016895 
L 409.475192 204.371868 
L 411.953118 203.156391 
L 414.431043 203.278929 
L 419.386893 205.769506 
L 421.864818 205.860821 
L 424.342743 204.929961 
L 426.820669 203.820451 
L 429.298594 203.081644 
L 429.298594 203.081644 
" clip-path="url(#p2b42828f66)" style="fill: none; stroke: #000000; stroke-width: 2.5; stroke-linecap: square"/>
   </g>
   <g id="line2d_34">
    <path d="M 186.461927 274.63 
L 186.461927 52.08 
" clip-path="url(#p2b42828f66)" style="fill: none; stroke-dasharray: 5.55,2.4; stroke-dashoffset: 0; stroke: #000000; stroke-width: 1.5"/>
   </g>
   <g id="patch_3">
    <path d="M 65.043594 274.63 
L 65.043594 52.08 
" style="fill: none; stroke: #000000; stroke-width: 0.8; stroke-linejoin: miter; stroke-linecap: square"/>
   </g>
   <g id="patch_4">
    <path d="M 429.298594 274.63 
L 429.298594 52.08 
" style="fill: none; stroke: #000000; stroke-width: 0.8; stroke-linejoin: miter; stroke-linecap: square"/>
   </g>
   <g id="patch_5">
    <path d="M 65.043594 274.63 
L 429.298594 274.63 
" style="fill: none; stroke: #000000; stroke-width: 0.8; stroke-linejoin: miter; stroke-linecap: square"/>
   </g>
   <g id="patch_6">
    <path d="M 65.043594 52.08 
L 429.298594 52.08 
" style="fill: none; stroke: #000000; stroke-width: 0.8; stroke-linejoin: miter; stroke-linecap: square"/>
   </g>
   <g id="text_8">
    <!-- Preinduction | NE -->
    <g transform="translate(173.815234 46.08) scale(0.15 -0.15)">
     <defs>
      <path id="DejaVuSans-Bold-50" d="M 588 4666 
L 2584 4666 
Q 3475 4666 3951 4270 
Q 4428 3875 4428 3144 
Q 4428 2409 3951 2014 
Q 3475 1619 2584 1619 
L 1791 1619 
L 1791 0 
L 588 0 
L 588 4666 
z
M 1791 3794 
L 1791 2491 
L 2456 2491 
Q 2806 2491 2997 2661 
Q 3188 2831 3188 3144 
Q 3188 3456 2997 3625 
Q 2806 3794 2456 3794 
L 1791 3794 
z
" transform="scale(0.015625)"/>
      <path id="DejaVuSans-Bold-72" d="M 3138 2547 
Q 2991 2616 2845 2648 
Q 2700 2681 2553 2681 
Q 2122 2681 1889 2404 
Q 1656 2128 1656 1613 
L 1656 0 
L 538 0 
L 538 3500 
L 1656 3500 
L 1656 2925 
Q 1872 3269 2151 3426 
Q 2431 3584 2822 3584 
Q 2878 3584 2943 3579 
Q 3009 3575 3134 3559 
L 3138 2547 
z
" transform="scale(0.015625)"/>
      <path id="DejaVuSans-Bold-65" d="M 4031 1759 
L 4031 1441 
L 1416 1441 
Q 1456 1047 1700 850 
Q 1944 653 2381 653 
Q 2734 653 3104 758 
Q 3475 863 3866 1075 
L 3866 213 
Q 3469 63 3072 -14 
Q 2675 -91 2278 -91 
Q 1328 -91 801 392 
Q 275 875 275 1747 
Q 275 2603 792 3093 
Q 1309 3584 2216 3584 
Q 3041 3584 3536 3087 
Q 4031 2591 4031 1759 
z
M 2881 2131 
Q 2881 2450 2695 2645 
Q 2509 2841 2209 2841 
Q 1884 2841 1681 2658 
Q 1478 2475 1428 2131 
L 2881 2131 
z
" transform="scale(0.015625)"/>
      <path id="DejaVuSans-Bold-69" d="M 538 3500 
L 1656 3500 
L 1656 0 
L 538 0 
L 538 3500 
z
M 538 4863 
L 1656 4863 
L 1656 3950 
L 538 3950 
L 538 4863 
z
" transform="scale(0.015625)"/>
      <path id="DejaVuSans-Bold-6e" d="M 4056 2131 
L 4056 0 
L 2931 0 
L 2931 347 
L 2931 1631 
Q 2931 2084 2911 2256 
Q 2891 2428 2841 2509 
Q 2775 2619 2662 2680 
Q 2550 2741 2406 2741 
Q 2056 2741 1856 2470 
Q 1656 2200 1656 1722 
L 1656 0 
L 538 0 
L 538 3500 
L 1656 3500 
L 1656 2988 
Q 1909 3294 2193 3439 
Q 2478 3584 2822 3584 
Q 3428 3584 3742 3212 
Q 4056 2841 4056 2131 
z
" transform="scale(0.015625)"/>
      <path id="DejaVuSans-Bold-64" d="M 2919 2988 
L 2919 4863 
L 4044 4863 
L 4044 0 
L 2919 0 
L 2919 506 
Q 2688 197 2409 53 
Q 2131 -91 1766 -91 
Q 1119 -91 703 423 
Q 288 938 288 1747 
Q 288 2556 703 3070 
Q 1119 3584 1766 3584 
Q 2128 3584 2408 3439 
Q 2688 3294 2919 2988 
z
M 2181 722 
Q 2541 722 2730 984 
Q 2919 1247 2919 1747 
Q 2919 2247 2730 2509 
Q 2541 2772 2181 2772 
Q 1825 2772 1636 2509 
Q 1447 2247 1447 1747 
Q 1447 1247 1636 984 
Q 1825 722 2181 722 
z
" transform="scale(0.015625)"/>
      <path id="DejaVuSans-Bold-75" d="M 500 1363 
L 500 3500 
L 1625 3500 
L 1625 3150 
Q 1625 2866 1622 2436 
Q 1619 2006 1619 1863 
Q 1619 1441 1641 1255 
Q 1663 1069 1716 984 
Q 1784 875 1895 815 
Q 2006 756 2150 756 
Q 2500 756 2700 1025 
Q 2900 1294 2900 1772 
L 2900 3500 
L 4019 3500 
L 4019 0 
L 2900 0 
L 2900 506 
Q 2647 200 2364 54 
Q 2081 -91 1741 -91 
Q 1134 -91 817 281 
Q 500 653 500 1363 
z
" transform="scale(0.015625)"/>
      <path id="DejaVuSans-Bold-63" d="M 3366 3391 
L 3366 2478 
Q 3138 2634 2908 2709 
Q 2678 2784 2431 2784 
Q 1963 2784 1702 2511 
Q 1441 2238 1441 1747 
Q 1441 1256 1702 982 
Q 1963 709 2431 709 
Q 2694 709 2930 787 
Q 3166 866 3366 1019 
L 3366 103 
Q 3103 6 2833 -42 
Q 2563 -91 2291 -91 
Q 1344 -91 809 395 
Q 275 881 275 1747 
Q 275 2613 809 3098 
Q 1344 3584 2291 3584 
Q 2566 3584 2833 3536 
Q 3100 3488 3366 3391 
z
" transform="scale(0.015625)"/>
      <path id="DejaVuSans-Bold-74" d="M 1759 4494 
L 1759 3500 
L 2913 3500 
L 2913 2700 
L 1759 2700 
L 1759 1216 
Q 1759 972 1856 886 
Q 1953 800 2241 800 
L 2816 800 
L 2816 0 
L 1856 0 
Q 1194 0 917 276 
Q 641 553 641 1216 
L 641 2700 
L 84 2700 
L 84 3500 
L 641 3500 
L 641 4494 
L 1759 4494 
z
" transform="scale(0.015625)"/>
      <path id="DejaVuSans-Bold-6f" d="M 2203 2784 
Q 1831 2784 1636 2517 
Q 1441 2250 1441 1747 
Q 1441 1244 1636 976 
Q 1831 709 2203 709 
Q 2569 709 2762 976 
Q 2956 1244 2956 1747 
Q 2956 2250 2762 2517 
Q 2569 2784 2203 2784 
z
M 2203 3584 
Q 3106 3584 3614 3096 
Q 4122 2609 4122 1747 
Q 4122 884 3614 396 
Q 3106 -91 2203 -91 
Q 1297 -91 786 396 
Q 275 884 275 1747 
Q 275 2609 786 3096 
Q 1297 3584 2203 3584 
z
" transform="scale(0.015625)"/>
      <path id="DejaVuSans-Bold-20" transform="scale(0.015625)"/>
      <path id="DejaVuSans-Bold-7c" d="M 1522 4891 
L 1522 -1509 
L 813 -1509 
L 813 4891 
L 1522 4891 
z
" transform="scale(0.015625)"/>
      <path id="DejaVuSans-Bold-4e" d="M 588 4666 
L 1931 4666 
L 3628 1466 
L 3628 4666 
L 4769 4666 
L 4769 0 
L 3425 0 
L 1728 3200 
L 1728 0 
L 588 0 
L 588 4666 
z
" transform="scale(0.015625)"/>
      <path id="DejaVuSans-Bold-45" d="M 588 4666 
L 3834 4666 
L 3834 3756 
L 1791 3756 
L 1791 2888 
L 3713 2888 
L 3713 1978 
L 1791 1978 
L 1791 909 
L 3903 909 
L 3903 0 
L 588 0 
L 588 4666 
z
" transform="scale(0.015625)"/>
     </defs>
     <use xlink:href="#DejaVuSans-Bold-50"/>
     <use xlink:href="#DejaVuSans-Bold-72" x="73.291016"/>
     <use xlink:href="#DejaVuSans-Bold-65" x="122.607422"/>
     <use xlink:href="#DejaVuSans-Bold-69" x="190.429688"/>
     <use xlink:href="#DejaVuSans-Bold-6e" x="224.707031"/>
     <use xlink:href="#DejaVuSans-Bold-64" x="295.898438"/>
     <use xlink:href="#DejaVuSans-Bold-75" x="367.480469"/>
     <use xlink:href="#DejaVuSans-Bold-63" x="438.671875"/>
     <use xlink:href="#DejaVuSans-Bold-74" x="497.949219"/>
     <use xlink:href="#DejaVuSans-Bold-69" x="545.751953"/>
     <use xlink:href="#DejaVuSans-Bold-6f" x="580.029297"/>
     <use xlink:href="#DejaVuSans-Bold-6e" x="648.730469"/>
     <use xlink:href="#DejaVuSans-Bold-20" x="719.921875"/>
     <use xlink:href="#DejaVuSans-Bold-7c" x="754.736328"/>
     <use xlink:href="#DejaVuSans-Bold-20" x="791.259766"/>
     <use xlink:href="#DejaVuSans-Bold-4e" x="826.074219"/>
     <use xlink:href="#DejaVuSans-Bold-45" x="909.765625"/>
    </g>
   </g>
  </g>
  <g id="axes_2">
   <g id="patch_7">
    <path d="M 65.043594 529 
L 429.298594 529 
L 429.298594 306.45 
L 65.043594 306.45 
z
" style="fill: #ffffff"/>
   </g>
   <g id="matplotlib.axis_3">
    <g id="xtick_8">
     <g id="line2d_35">
      <path d="M 65.043594 529 
L 65.043594 306.45 
" clip-path="url(#pa7df40e027)" style="fill: none; stroke: #b0b0b0; stroke-width: 0.8; stroke-linecap: square"/>
     </g>
     <g id="line2d_36">
      <g>
       <use xlink:href="#m397d46f60d" x="65.043594" y="529" style="stroke: #000000; stroke-width: 0.8"/>
      </g>
     </g>
     <g id="text_9">
      <!-- −2 -->
      <g transform="translate(57.6725 543.598437) scale(0.1 -0.1)">
       <defs>
        <path id="DejaVuSans-32" d="M 1228 531 
L 3431 531 
L 3431 0 
L 469 0 
L 469 531 
Q 828 903 1448 1529 
Q 2069 2156 2228 2338 
Q 2531 2678 2651 2914 
Q 2772 3150 2772 3378 
Q 2772 3750 2511 3984 
Q 2250 4219 1831 4219 
Q 1534 4219 1204 4116 
Q 875 4013 500 3803 
L 500 4441 
Q 881 4594 1212 4672 
Q 1544 4750 1819 4750 
Q 2544 4750 2975 4387 
Q 3406 4025 3406 3419 
Q 3406 3131 3298 2873 
Q 3191 2616 2906 2266 
Q 2828 2175 2409 1742 
Q 1991 1309 1228 531 
z
" transform="scale(0.015625)"/>
       </defs>
       <use xlink:href="#DejaVuSans-2212"/>
       <use xlink:href="#DejaVuSans-32" x="83.789062"/>
      </g>
     </g>
    </g>
    <g id="xtick_9">
     <g id="line2d_37">
      <path d="M 125.75276 529 
L 125.75276 306.45 
" clip-path="url(#pa7df40e027)" style="fill: none; stroke: #b0b0b0; stroke-width: 0.8; stroke-linecap: square"/>
     </g>
     <g id="line2d_38">
      <g>
       <use xlink:href="#m397d46f60d" x="125.75276" y="529" style="stroke: #000000; stroke-width: 0.8"/>
      </g>
     </g>
     <g id="text_10">
      <!-- −1 -->
      <g transform="translate(118.381667 543.598437) scale(0.1 -0.1)">
       <use xlink:href="#DejaVuSans-2212"/>
       <use xlink:href="#DejaVuSans-31" x="83.789062"/>
      </g>
     </g>
    </g>
    <g id="xtick_10">
     <g id="line2d_39">
      <path d="M 186.461927 529 
L 186.461927 306.45 
" clip-path="url(#pa7df40e027)" style="fill: none; stroke: #b0b0b0; stroke-width: 0.8; stroke-linecap: square"/>
     </g>
     <g id="line2d_40">
      <g>
       <use xlink:href="#m397d46f60d" x="186.461927" y="529" style="stroke: #000000; stroke-width: 0.8"/>
      </g>
     </g>
     <g id="text_11">
      <!-- 0 -->
      <g transform="translate(183.280677 543.598437) scale(0.1 -0.1)">
       <use xlink:href="#DejaVuSans-30"/>
      </g>
     </g>
    </g>
    <g id="xtick_11">
     <g id="line2d_41">
      <path d="M 247.171094 529 
L 247.171094 306.45 
" clip-path="url(#pa7df40e027)" style="fill: none; stroke: #b0b0b0; stroke-width: 0.8; stroke-linecap: square"/>
     </g>
     <g id="line2d_42">
      <g>
       <use xlink:href="#m397d46f60d" x="247.171094" y="529" style="stroke: #000000; stroke-width: 0.8"/>
      </g>
     </g>
     <g id="text_12">
      <!-- 1 -->
      <g transform="translate(243.989844 543.598437) scale(0.1 -0.1)">
       <use xlink:href="#DejaVuSans-31"/>
      </g>
     </g>
    </g>
    <g id="xtick_12">
     <g id="line2d_43">
      <path d="M 307.88026 529 
L 307.88026 306.45 
" clip-path="url(#pa7df40e027)" style="fill: none; stroke: #b0b0b0; stroke-width: 0.8; stroke-linecap: square"/>
     </g>
     <g id="line2d_44">
      <g>
       <use xlink:href="#m397d46f60d" x="307.88026" y="529" style="stroke: #000000; stroke-width: 0.8"/>
      </g>
     </g>
     <g id="text_13">
      <!-- 2 -->
      <g transform="translate(304.69901 543.598437) scale(0.1 -0.1)">
       <use xlink:href="#DejaVuSans-32"/>
      </g>
     </g>
    </g>
    <g id="xtick_13">
     <g id="line2d_45">
      <path d="M 368.589427 529 
L 368.589427 306.45 
" clip-path="url(#pa7df40e027)" style="fill: none; stroke: #b0b0b0; stroke-width: 0.8; stroke-linecap: square"/>
     </g>
     <g id="line2d_46">
      <g>
       <use xlink:href="#m397d46f60d" x="368.589427" y="529" style="stroke: #000000; stroke-width: 0.8"/>
      </g>
     </g>
     <g id="text_14">
      <!-- 3 -->
      <g transform="translate(365.408177 543.598437) scale(0.1 -0.1)">
       <defs>
        <path id="DejaVuSans-33" d="M 2597 2516 
Q 3050 2419 3304 2112 
Q 3559 1806 3559 1356 
Q 3559 666 3084 287 
Q 2609 -91 1734 -91 
Q 1441 -91 1130 -33 
Q 819 25 488 141 
L 488 750 
Q 750 597 1062 519 
Q 1375 441 1716 441 
Q 2309 441 2620 675 
Q 2931 909 2931 1356 
Q 2931 1769 2642 2001 
Q 2353 2234 1838 2234 
L 1294 2234 
L 1294 2753 
L 1863 2753 
Q 2328 2753 2575 2939 
Q 2822 3125 2822 3475 
Q 2822 3834 2567 4026 
Q 2313 4219 1838 4219 
Q 1578 4219 1281 4162 
Q 984 4106 628 3988 
L 628 4550 
Q 988 4650 1302 4700 
Q 1616 4750 1894 4750 
Q 2613 4750 3031 4423 
Q 3450 4097 3450 3541 
Q 3450 3153 3228 2886 
Q 3006 2619 2597 2516 
z
" transform="scale(0.015625)"/>
       </defs>
       <use xlink:href="#DejaVuSans-33"/>
      </g>
     </g>
    </g>
    <g id="xtick_14">
     <g id="line2d_47">
      <path d="M 429.298594 529 
L 429.298594 306.45 
" clip-path="url(#pa7df40e027)" style="fill: none; stroke: #b0b0b0; stroke-width: 0.8; stroke-linecap: square"/>
     </g>
     <g id="line2d_48">
      <g>
       <use xlink:href="#m397d46f60d" x="429.298594" y="529" style="stroke: #000000; stroke-width: 0.8"/>
      </g>
     </g>
     <g id="text_15">
      <!-- 4 -->
      <g transform="translate(426.117344 543.598437) scale(0.1 -0.1)">
       <defs>
        <path id="DejaVuSans-34" d="M 2419 4116 
L 825 1625 
L 2419 1625 
L 2419 4116 
z
M 2253 4666 
L 3047 4666 
L 3047 1625 
L 3713 1625 
L 3713 1100 
L 3047 1100 
L 3047 0 
L 2419 0 
L 2419 1100 
L 313 1100 
L 313 1709 
L 2253 4666 
z
" transform="scale(0.015625)"/>
       </defs>
       <use xlink:href="#DejaVuSans-34"/>
      </g>
     </g>
    </g>
    <g id="text_16">
     <!-- Time (s) -->
     <g transform="translate(222.776406 558.79625) scale(0.12 -0.12)">
      <defs>
       <path id="DejaVuSans-54" d="M -19 4666 
L 3928 4666 
L 3928 4134 
L 2272 4134 
L 2272 0 
L 1638 0 
L 1638 4134 
L -19 4134 
L -19 4666 
z
" transform="scale(0.015625)"/>
       <path id="DejaVuSans-69" d="M 603 3500 
L 1178 3500 
L 1178 0 
L 603 0 
L 603 3500 
z
M 603 4863 
L 1178 4863 
L 1178 4134 
L 603 4134 
L 603 4863 
z
" transform="scale(0.015625)"/>
       <path id="DejaVuSans-6d" d="M 3328 2828 
Q 3544 3216 3844 3400 
Q 4144 3584 4550 3584 
Q 5097 3584 5394 3201 
Q 5691 2819 5691 2113 
L 5691 0 
L 5113 0 
L 5113 2094 
Q 5113 2597 4934 2840 
Q 4756 3084 4391 3084 
Q 3944 3084 3684 2787 
Q 3425 2491 3425 1978 
L 3425 0 
L 2847 0 
L 2847 2094 
Q 2847 2600 2669 2842 
Q 2491 3084 2119 3084 
Q 1678 3084 1418 2786 
Q 1159 2488 1159 1978 
L 1159 0 
L 581 0 
L 581 3500 
L 1159 3500 
L 1159 2956 
Q 1356 3278 1631 3431 
Q 1906 3584 2284 3584 
Q 2666 3584 2933 3390 
Q 3200 3197 3328 2828 
z
" transform="scale(0.015625)"/>
       <path id="DejaVuSans-65" d="M 3597 1894 
L 3597 1613 
L 953 1613 
Q 991 1019 1311 708 
Q 1631 397 2203 397 
Q 2534 397 2845 478 
Q 3156 559 3463 722 
L 3463 178 
Q 3153 47 2828 -22 
Q 2503 -91 2169 -91 
Q 1331 -91 842 396 
Q 353 884 353 1716 
Q 353 2575 817 3079 
Q 1281 3584 2069 3584 
Q 2775 3584 3186 3129 
Q 3597 2675 3597 1894 
z
M 3022 2063 
Q 3016 2534 2758 2815 
Q 2500 3097 2075 3097 
Q 1594 3097 1305 2825 
Q 1016 2553 972 2059 
L 3022 2063 
z
" transform="scale(0.015625)"/>
       <path id="DejaVuSans-73" d="M 2834 3397 
L 2834 2853 
Q 2591 2978 2328 3040 
Q 2066 3103 1784 3103 
Q 1356 3103 1142 2972 
Q 928 2841 928 2578 
Q 928 2378 1081 2264 
Q 1234 2150 1697 2047 
L 1894 2003 
Q 2506 1872 2764 1633 
Q 3022 1394 3022 966 
Q 3022 478 2636 193 
Q 2250 -91 1575 -91 
Q 1294 -91 989 -36 
Q 684 19 347 128 
L 347 722 
Q 666 556 975 473 
Q 1284 391 1588 391 
Q 1994 391 2212 530 
Q 2431 669 2431 922 
Q 2431 1156 2273 1281 
Q 2116 1406 1581 1522 
L 1381 1569 
Q 847 1681 609 1914 
Q 372 2147 372 2553 
Q 372 3047 722 3315 
Q 1072 3584 1716 3584 
Q 2034 3584 2315 3537 
Q 2597 3491 2834 3397 
z
" transform="scale(0.015625)"/>
      </defs>
      <use xlink:href="#DejaVuSans-54"/>
      <use xlink:href="#DejaVuSans-69" x="57.958984"/>
      <use xlink:href="#DejaVuSans-6d" x="85.742188"/>
      <use xlink:href="#DejaVuSans-65" x="183.154297"/>
      <use xlink:href="#DejaVuSans-20" x="244.677734"/>
      <use xlink:href="#DejaVuSans-28" x="276.464844"/>
      <use xlink:href="#DejaVuSans-73" x="315.478516"/>
      <use xlink:href="#DejaVuSans-29" x="367.578125"/>
     </g>
    </g>
   </g>
   <g id="matplotlib.axis_4">
    <g id="ytick_7">
     <g id="line2d_49">
      <path d="M 65.043594 511.998753 
L 429.298594 511.998753 
" clip-path="url(#pa7df40e027)" style="fill: none; stroke: #b0b0b0; stroke-width: 0.8; stroke-linecap: square"/>
     </g>
     <g id="line2d_50">
      <g>
       <use xlink:href="#me071b4f6bb" x="65.043594" y="511.998753" style="stroke: #000000; stroke-width: 0.8"/>
      </g>
     </g>
     <g id="text_17">
      <!-- −10 -->
      <g transform="translate(36.938906 515.797971) scale(0.1 -0.1)">
       <use xlink:href="#DejaVuSans-2212"/>
       <use xlink:href="#DejaVuSans-31" x="83.789062"/>
       <use xlink:href="#DejaVuSans-30" x="147.412109"/>
      </g>
     </g>
    </g>
    <g id="ytick_8">
     <g id="line2d_51">
      <path d="M 65.043594 477.227665 
L 429.298594 477.227665 
" clip-path="url(#pa7df40e027)" style="fill: none; stroke: #b0b0b0; stroke-width: 0.8; stroke-linecap: square"/>
     </g>
     <g id="line2d_52">
      <g>
       <use xlink:href="#me071b4f6bb" x="65.043594" y="477.227665" style="stroke: #000000; stroke-width: 0.8"/>
      </g>
     </g>
     <g id="text_18">
      <!-- −5 -->
      <g transform="translate(43.301406 481.026884) scale(0.1 -0.1)">
       <use xlink:href="#DejaVuSans-2212"/>
       <use xlink:href="#DejaVuSans-35" x="83.789062"/>
      </g>
     </g>
    </g>
    <g id="ytick_9">
     <g id="line2d_53">
      <path d="M 65.043594 442.456577 
L 429.298594 442.456577 
" clip-path="url(#pa7df40e027)" style="fill: none; stroke: #b0b0b0; stroke-width: 0.8; stroke-linecap: square"/>
     </g>
     <g id="line2d_54">
      <g>
       <use xlink:href="#me071b4f6bb" x="65.043594" y="442.456577" style="stroke: #000000; stroke-width: 0.8"/>
      </g>
     </g>
     <g id="text_19">
      <!-- 0 -->
      <g transform="translate(51.681094 446.255796) scale(0.1 -0.1)">
       <use xlink:href="#DejaVuSans-30"/>
      </g>
     </g>
    </g>
    <g id="ytick_10">
     <g id="line2d_55">
      <path d="M 65.043594 407.685489 
L 429.298594 407.685489 
" clip-path="url(#pa7df40e027)" style="fill: none; stroke: #b0b0b0; stroke-width: 0.8; stroke-linecap: square"/>
     </g>
     <g id="line2d_56">
      <g>
       <use xlink:href="#me071b4f6bb" x="65.043594" y="407.685489" style="stroke: #000000; stroke-width: 0.8"/>
      </g>
     </g>
     <g id="text_20">
      <!-- 5 -->
      <g transform="translate(51.681094 411.484708) scale(0.1 -0.1)">
       <use xlink:href="#DejaVuSans-35"/>
      </g>
     </g>
    </g>
    <g id="ytick_11">
     <g id="line2d_57">
      <path d="M 65.043594 372.914401 
L 429.298594 372.914401 
" clip-path="url(#pa7df40e027)" style="fill: none; stroke: #b0b0b0; stroke-width: 0.8; stroke-linecap: square"/>
     </g>
     <g id="line2d_58">
      <g>
       <use xlink:href="#me071b4f6bb" x="65.043594" y="372.914401" style="stroke: #000000; stroke-width: 0.8"/>
      </g>
     </g>
     <g id="text_21">
      <!-- 10 -->
      <g transform="translate(45.318594 376.71362) scale(0.1 -0.1)">
       <use xlink:href="#DejaVuSans-31"/>
       <use xlink:href="#DejaVuSans-30" x="63.623047"/>
      </g>
     </g>
    </g>
    <g id="ytick_12">
     <g id="line2d_59">
      <path d="M 65.043594 338.143314 
L 429.298594 338.143314 
" clip-path="url(#pa7df40e027)" style="fill: none; stroke: #b0b0b0; stroke-width: 0.8; stroke-linecap: square"/>
     </g>
     <g id="line2d_60">
      <g>
       <use xlink:href="#me071b4f6bb" x="65.043594" y="338.143314" style="stroke: #000000; stroke-width: 0.8"/>
      </g>
     </g>
     <g id="text_22">
      <!-- 15 -->
      <g transform="translate(45.318594 341.942532) scale(0.1 -0.1)">
       <use xlink:href="#DejaVuSans-31"/>
       <use xlink:href="#DejaVuSans-35" x="63.623047"/>
      </g>
     </g>
    </g>
    <g id="text_23">
     <!-- ΔF/F (%) -->
     <g transform="translate(30.443281 443.042187) rotate(-90) scale(0.12 -0.12)">
      <use xlink:href="#DejaVuSans-394"/>
      <use xlink:href="#DejaVuSans-46" x="68.408203"/>
      <use xlink:href="#DejaVuSans-2f" x="125.927734"/>
      <use xlink:href="#DejaVuSans-46" x="159.619141"/>
      <use xlink:href="#DejaVuSans-20" x="217.138672"/>
      <use xlink:href="#DejaVuSans-28" x="248.925781"/>
      <use xlink:href="#DejaVuSans-25" x="287.939453"/>
      <use xlink:href="#DejaVuSans-29" x="382.958984"/>
     </g>
    </g>
   </g>
   <g id="line2d_61">
    <path d="M 65.043594 438.402424 
L 67.488258 436.625291 
L 69.932923 433.856892 
L 72.377587 430.857961 
L 74.822251 429.11454 
L 77.266916 430.033668 
L 79.71158 433.599741 
L 82.156245 437.974937 
L 84.600909 441.087908 
L 87.045574 442.311848 
L 89.490238 442.423959 
L 91.934902 442.275547 
L 94.379567 441.89698 
L 96.824231 441.168664 
L 99.268896 440.702589 
L 101.71356 441.317528 
L 104.158225 443.038469 
L 106.602889 444.93753 
L 109.047553 445.818214 
L 111.492218 445.176731 
L 113.936882 443.631629 
L 116.381547 442.581284 
L 118.826211 443.103831 
L 121.270876 444.658859 
L 123.71554 445.607608 
L 126.160204 445.240367 
L 128.604869 444.118914 
L 131.049533 442.718982 
L 133.494198 441.165705 
L 135.938862 440.005061 
L 138.383527 440.114799 
L 140.828191 441.745402 
L 143.272855 444.035476 
L 145.71752 445.878469 
L 148.162184 447.087123 
L 150.606849 448.110483 
L 153.051513 448.996907 
L 155.496178 449.378582 
L 157.940842 449.21058 
L 167.7195 447.583228 
L 170.164164 446.758111 
L 172.608829 445.32683 
L 177.498158 440.898603 
L 179.942822 439.777565 
L 182.387486 440.642289 
L 184.832151 443.305515 
L 187.276815 446.68267 
L 189.72148 449.277829 
L 192.166144 450.193415 
L 194.610809 449.803638 
L 197.055473 449.246021 
L 199.500137 449.544312 
L 201.944802 451.073724 
L 206.834131 455.727666 
L 209.278795 456.97775 
L 211.72346 456.477514 
L 216.612788 452.799142 
L 219.057453 452.471249 
L 221.502117 454.016176 
L 223.946782 456.688793 
L 226.391446 459.189034 
L 228.836111 460.449214 
L 231.280775 460.137414 
L 233.725439 458.608068 
L 236.170104 456.564506 
L 238.614768 454.881772 
L 241.059433 454.285738 
L 243.504097 454.933986 
L 245.948762 456.466115 
L 248.393426 458.327067 
L 250.83809 459.946971 
L 253.282755 460.847539 
L 255.727419 460.786133 
L 258.172084 459.873979 
L 260.616748 458.440406 
L 263.061413 456.46781 
L 265.506077 453.642432 
L 267.950741 450.517524 
L 270.395406 448.606368 
L 272.84007 448.761376 
L 275.284735 450.382381 
L 277.729399 452.285697 
L 282.618728 455.355371 
L 285.063392 457.413603 
L 287.508057 459.659882 
L 289.952721 461.007486 
L 292.397386 460.658192 
L 294.84205 458.630813 
L 297.286715 455.946476 
L 299.731379 454.4708 
L 302.176043 455.416474 
L 304.620708 457.981913 
L 307.065372 460.312501 
L 309.510037 461.128474 
L 311.954701 460.25167 
L 316.84403 456.451253 
L 319.288694 455.190278 
L 321.733359 455.312406 
L 326.622688 458.10604 
L 329.067352 458.944761 
L 331.512017 459.572746 
L 336.401345 461.550165 
L 338.84601 462.046295 
L 341.290674 461.618334 
L 343.735339 460.760799 
L 346.180003 460.492254 
L 348.624668 461.028869 
L 351.069332 461.422738 
L 353.513996 461.0199 
L 355.958661 460.196675 
L 358.403325 459.610994 
L 360.84799 459.651989 
L 365.737319 460.580735 
L 368.181983 460.596665 
L 377.960641 460.05053 
L 380.405305 460.283155 
L 382.84997 460.884031 
L 387.739298 462.862912 
L 390.183963 462.649499 
L 392.628627 460.329157 
L 395.073292 457.09501 
L 397.517956 455.384334 
L 399.962621 456.091211 
L 402.407285 457.92969 
L 404.851949 459.214363 
L 407.296614 459.377247 
L 409.741278 459.08493 
L 412.185943 459.303386 
L 414.630607 460.342329 
L 417.075272 461.693852 
L 419.519936 462.66548 
L 421.9646 463.044434 
L 424.409265 463.054189 
L 426.853929 462.848869 
L 429.298594 462.333936 
L 429.298594 462.333936 
" clip-path="url(#pa7df40e027)" style="fill: none; stroke: #1f77b4; stroke-opacity: 0.4; stroke-width: 1.5; stroke-linecap: square"/>
   </g>
   <g id="line2d_62">
    <path d="M 65.043594 439.636588 
L 72.377587 440.870495 
L 74.822251 440.844999 
L 79.71158 439.960177 
L 82.156245 440.144182 
L 84.600909 440.749423 
L 87.045574 441.527484 
L 89.490238 442.524196 
L 91.934902 443.654578 
L 94.379567 444.487758 
L 96.824231 444.536445 
L 99.268896 443.746498 
L 101.71356 442.766384 
L 104.158225 442.414648 
L 109.047553 443.159068 
L 111.492218 442.846011 
L 113.936882 442.13141 
L 116.381547 441.68471 
L 118.826211 441.443761 
L 123.71554 440.631403 
L 128.604869 441.062443 
L 131.049533 440.852222 
L 133.494198 440.477344 
L 135.938862 440.479906 
L 138.383527 441.134437 
L 143.272855 443.381926 
L 145.71752 444.052468 
L 150.606849 444.681791 
L 153.051513 444.744828 
L 155.496178 444.404819 
L 160.385507 443.041293 
L 162.830171 442.553615 
L 165.274835 442.619121 
L 167.7195 443.339981 
L 170.164164 444.325467 
L 172.608829 445.07424 
L 175.053493 445.261058 
L 177.498158 444.854641 
L 179.942822 444.269876 
L 182.387486 444.035514 
L 184.832151 444.311672 
L 189.72148 445.295521 
L 192.166144 445.412766 
L 197.055473 444.983901 
L 199.500137 445.031849 
L 201.944802 445.546464 
L 206.834131 447.331368 
L 209.278795 448.236415 
L 211.72346 449.018818 
L 214.168124 449.523041 
L 216.612788 449.571128 
L 221.502117 448.953845 
L 223.946782 449.098222 
L 226.391446 449.515546 
L 228.836111 449.408343 
L 231.280775 447.66177 
L 233.725439 443.673854 
L 236.170104 438.563693 
L 238.614768 434.895748 
L 241.059433 434.140482 
L 245.948762 436.227043 
L 255.727419 438.028856 
L 258.172084 438.410549 
L 260.616748 438.931347 
L 265.506077 440.314693 
L 267.950741 440.805263 
L 270.395406 441.50406 
L 275.284735 443.893685 
L 277.729399 444.753667 
L 282.618728 445.837544 
L 285.063392 446.802323 
L 289.952721 449.486318 
L 292.397386 450.246646 
L 294.84205 449.884428 
L 297.286715 448.951127 
L 299.731379 448.569264 
L 302.176043 448.932758 
L 304.620708 448.968109 
L 307.065372 447.776266 
L 309.510037 445.996693 
L 311.954701 445.100641 
L 316.84403 445.675455 
L 319.288694 444.432898 
L 324.178023 439.38209 
L 326.622688 437.241948 
L 329.067352 435.543482 
L 331.512017 434.358102 
L 333.956681 434.196159 
L 336.401345 435.651372 
L 338.84601 438.308461 
L 341.290674 440.684794 
L 343.735339 441.719558 
L 346.180003 441.851058 
L 348.624668 442.251133 
L 351.069332 443.31016 
L 355.958661 445.772366 
L 358.403325 446.75248 
L 363.292654 448.350763 
L 365.737319 449.325538 
L 368.181983 449.837981 
L 370.626647 449.344351 
L 377.960641 445.825617 
L 380.405305 445.056106 
L 382.84997 444.551905 
L 385.294634 444.596303 
L 387.739298 445.589387 
L 390.183963 447.299773 
L 392.628627 448.819848 
L 395.073292 449.417666 
L 397.517956 448.960971 
L 399.962621 447.700137 
L 402.407285 446.095695 
L 404.851949 444.896887 
L 407.296614 444.953051 
L 409.741278 446.489745 
L 412.185943 448.753516 
L 414.630607 450.821577 
L 417.075272 452.436355 
L 419.519936 453.626682 
L 421.9646 454.296411 
L 424.409265 454.562648 
L 424.409265 454.562648 
" clip-path="url(#pa7df40e027)" style="fill: none; stroke: #ff7f0e; stroke-opacity: 0.4; stroke-width: 1.5; stroke-linecap: square"/>
   </g>
   <g id="line2d_63">
    <path d="M 65.043594 441.742708 
L 67.488258 442.273481 
L 69.932923 441.657792 
L 72.377587 440.795747 
L 74.822251 440.966077 
L 77.266916 442.461896 
L 79.71158 444.679156 
L 82.156245 446.575203 
L 84.600909 447.301301 
L 87.045574 447.196227 
L 89.490238 447.308447 
L 94.379567 448.62488 
L 96.824231 448.88223 
L 99.268896 448.009393 
L 101.71356 444.930137 
L 106.602889 433.952783 
L 109.047553 430.85674 
L 111.492218 430.756169 
L 113.936882 431.743116 
L 116.381547 432.189462 
L 118.826211 432.319746 
L 121.270876 432.924972 
L 123.71554 433.956566 
L 126.160204 434.782633 
L 128.604869 435.162454 
L 131.049533 435.910849 
L 133.494198 438.144576 
L 138.383527 445.227698 
L 140.828191 447.033698 
L 143.272855 447.502564 
L 145.71752 448.243248 
L 148.162184 449.351408 
L 150.606849 449.334864 
L 153.051513 447.976651 
L 155.496178 446.895915 
L 157.940842 447.136535 
L 160.385507 447.854278 
L 162.830171 447.634017 
L 165.274835 446.070479 
L 167.7195 443.82493 
L 170.164164 442.169474 
L 172.608829 442.03617 
L 177.498158 443.725254 
L 179.942822 444.467471 
L 182.387486 445.63553 
L 184.832151 446.988673 
L 187.276815 447.492479 
L 189.72148 446.566302 
L 194.610809 442.72014 
L 197.055473 441.329683 
L 199.500137 440.141427 
L 201.944802 439.307544 
L 204.389466 439.679915 
L 206.834131 441.005024 
L 209.278795 442.104523 
L 211.72346 442.677516 
L 214.168124 443.440704 
L 216.612788 445.310079 
L 219.057453 448.51515 
L 221.502117 451.975319 
L 223.946782 454.633031 
L 226.391446 456.482824 
L 228.836111 457.166708 
L 231.280775 456.158799 
L 233.725439 454.181587 
L 236.170104 452.050506 
L 238.614768 450.149747 
L 241.059433 449.212435 
L 243.504097 448.962358 
L 245.948762 448.059607 
L 248.393426 446.71757 
L 253.282755 445.694685 
L 255.727419 443.878067 
L 258.172084 441.609389 
L 260.616748 440.764584 
L 263.061413 441.060983 
L 265.506077 441.038585 
L 267.950741 440.50542 
L 270.395406 440.462016 
L 272.84007 441.414285 
L 275.284735 442.726006 
L 277.729399 443.85925 
L 280.174064 444.7779 
L 282.618728 444.853184 
L 285.063392 443.312077 
L 287.508057 440.851454 
L 289.952721 439.395637 
L 292.397386 440.273848 
L 294.84205 443.297447 
L 297.286715 447.117616 
L 299.731379 449.959399 
L 302.176043 450.621108 
L 304.620708 449.194532 
L 307.065372 446.915103 
L 309.510037 445.210682 
L 311.954701 444.830768 
L 316.84403 446.268648 
L 319.288694 445.692861 
L 321.733359 444.700864 
L 324.178023 444.782586 
L 326.622688 445.803387 
L 329.067352 446.642378 
L 331.512017 446.731443 
L 336.401345 445.947673 
L 338.84601 445.890201 
L 341.290674 445.423196 
L 343.735339 444.14395 
L 346.180003 442.605073 
L 348.624668 441.276873 
L 351.069332 440.24538 
L 353.513996 439.838274 
L 355.958661 440.252558 
L 358.403325 441.251857 
L 360.84799 442.960864 
L 363.292654 445.755715 
L 365.737319 449.210506 
L 368.181983 452.394656 
L 370.626647 455.202532 
L 375.515976 461.355675 
L 377.960641 463.647987 
L 380.405305 465.057333 
L 382.84997 466.241238 
L 385.294634 466.730129 
L 390.183963 464.761149 
L 392.628627 465.672678 
L 395.073292 467.754666 
L 397.517956 469.186124 
L 399.962621 469.345236 
L 402.407285 468.653933 
L 407.296614 466.761128 
L 409.741278 465.68004 
L 414.630607 463.044782 
L 417.075272 462.221278 
L 419.519936 461.958987 
L 421.9646 461.896142 
L 424.409265 462.215249 
L 424.409265 462.215249 
" clip-path="url(#pa7df40e027)" style="fill: none; stroke: #2ca02c; stroke-opacity: 0.4; stroke-width: 1.5; stroke-linecap: square"/>
   </g>
   <g id="line2d_64">
    <path d="M 65.043594 439.954472 
L 67.488258 443.922407 
L 69.932923 447.384613 
L 72.377587 447.565076 
L 74.822251 450.262536 
L 77.266916 459.000538 
L 79.71158 468.369001 
L 82.156245 472.657844 
L 84.600909 472.28416 
L 87.045574 468.600596 
L 89.490238 459.629472 
L 91.934902 445.655388 
L 94.379567 433.535134 
L 96.824231 429.083136 
L 99.268896 430.886523 
L 101.71356 434.638913 
L 104.158225 437.057941 
L 106.602889 436.857514 
L 109.047553 435.876517 
L 111.492218 436.66211 
L 113.936882 438.90363 
L 116.381547 440.388454 
L 118.826211 439.012689 
L 121.270876 431.92903 
L 123.71554 416.204108 
L 126.160204 393.8981 
L 128.604869 374.583289 
L 131.049533 369.3797 
L 133.494198 381.421116 
L 135.938862 401.835383 
L 138.383527 417.742156 
L 140.828191 424.927971 
L 143.272855 428.642572 
L 145.71752 434.052298 
L 148.162184 441.096383 
L 150.606849 447.378222 
L 155.496178 456.99813 
L 157.940842 461.302113 
L 160.385507 463.476199 
L 162.830171 463.547475 
L 165.274835 464.329465 
L 167.7195 467.600549 
L 170.164164 471.620403 
L 172.608829 473.620414 
L 175.053493 473.091933 
L 177.498158 471.407665 
L 179.942822 468.299267 
L 182.387486 461.495111 
L 184.832151 451.654001 
L 187.276815 444.890788 
L 189.72148 446.367274 
L 192.166144 452.617578 
L 194.610809 456.32115 
L 197.055473 455.907999 
L 199.500137 454.439678 
L 201.944802 453.942625 
L 204.389466 454.685263 
L 206.834131 457.336702 
L 209.278795 463.679042 
L 211.72346 473.135676 
L 214.168124 480.486195 
L 216.612788 480.386844 
L 219.057453 472.367175 
L 221.502117 461.825234 
L 223.946782 456.578197 
L 226.391446 459.791324 
L 228.836111 468.199776 
L 231.280775 475.601312 
L 233.725439 474.249451 
L 236.170104 459.644097 
L 238.614768 439.119624 
L 241.059433 428.551838 
L 243.504097 436.021823 
L 245.948762 454.236971 
L 248.393426 469.601241 
L 250.83809 474.357888 
L 253.282755 471.975706 
L 255.727419 471.281737 
L 258.172084 476.482881 
L 260.616748 486.75391 
L 263.061413 498.714695 
L 265.506077 506.269224 
L 267.950741 505.302075 
L 270.395406 498.247497 
L 272.84007 491.61165 
L 275.284735 489.305698 
L 277.729399 489.840601 
L 280.174064 491.703523 
L 282.618728 495.989754 
L 285.063392 501.792798 
L 287.508057 506.078201 
L 289.952721 508.879843 
L 292.397386 512.275283 
L 294.84205 514.910883 
L 297.286715 513.778462 
L 299.731379 508.77475 
L 302.176043 501.879026 
L 304.620708 495.652402 
L 307.065372 492.360083 
L 309.510037 492.229373 
L 311.954701 493.622495 
L 314.399366 495.531822 
L 316.84403 498.725288 
L 319.288694 502.876244 
L 321.733359 505.454634 
L 324.178023 505.585885 
L 326.622688 504.472272 
L 329.067352 502.453031 
L 331.512017 500.102473 
L 333.956681 498.8642 
L 336.401345 496.960865 
L 338.84601 489.85633 
L 343.735339 466.208657 
L 346.180003 458.063121 
L 348.624668 453.763155 
L 351.069332 454.088509 
L 353.513996 458.901372 
L 355.958661 466.809299 
L 363.292654 494.941996 
L 365.737319 501.876196 
L 368.181983 505.174765 
L 370.626647 506.358267 
L 373.071312 508.185869 
L 375.515976 510.370926 
L 377.960641 511.021808 
L 380.405305 510.677206 
L 382.84997 511.788833 
L 385.294634 514.798044 
L 387.739298 517.150909 
L 390.183963 516.785205 
L 392.628627 514.78617 
L 395.073292 514.131055 
L 397.517956 516.200759 
L 399.962621 518.869901 
L 402.407285 518.560186 
L 404.851949 513.851707 
L 407.296614 507.229057 
L 409.741278 503.962286 
L 412.185943 507.637424 
L 414.630607 515.046056 
L 417.075272 518.884091 
L 419.519936 516.594459 
L 421.9646 511.683618 
L 424.409265 507.395229 
L 424.409265 507.395229 
" clip-path="url(#pa7df40e027)" style="fill: none; stroke: #d62728; stroke-opacity: 0.4; stroke-width: 1.5; stroke-linecap: square"/>
   </g>
   <g id="line2d_65">
    <path d="M 65.043594 439.934048 
L 67.488258 440.718658 
L 69.932923 440.851283 
L 72.377587 440.02232 
L 74.822251 440.297038 
L 77.266916 442.963413 
L 79.71158 446.652019 
L 82.156245 449.338041 
L 84.600909 450.355698 
L 87.045574 449.909039 
L 89.490238 447.971519 
L 91.934902 444.881273 
L 94.379567 442.136188 
L 96.824231 440.917619 
L 99.268896 440.836251 
L 101.71356 440.91324 
L 104.158225 440.514998 
L 106.602889 439.63513 
L 109.047553 438.927635 
L 111.492218 438.860255 
L 113.936882 439.102446 
L 116.381547 439.210978 
L 118.826211 438.970007 
L 121.270876 437.626301 
L 123.71554 434.099921 
L 126.160204 428.6824 
L 128.604869 423.731775 
L 131.049533 422.215438 
L 133.494198 425.302185 
L 135.938862 431.019778 
L 138.383527 436.054772 
L 140.828191 438.99885 
L 143.272855 440.890634 
L 145.71752 443.056621 
L 148.162184 445.488715 
L 150.606849 447.37634 
L 153.051513 448.505736 
L 157.940842 450.34891 
L 160.385507 450.800321 
L 165.274835 450.273799 
L 167.7195 450.587172 
L 170.164164 451.218364 
L 172.608829 451.514413 
L 175.053493 451.10532 
L 177.498158 450.221541 
L 179.942822 449.203545 
L 182.387486 447.952111 
L 184.832151 446.564965 
L 187.276815 445.980479 
L 189.72148 446.876731 
L 192.166144 448.217249 
L 194.610809 448.518459 
L 199.500137 447.289317 
L 201.944802 447.467589 
L 204.389466 448.545097 
L 206.834131 450.35019 
L 209.278795 452.749432 
L 211.72346 455.327381 
L 214.168124 457.013444 
L 216.612788 457.016798 
L 221.502117 454.192644 
L 223.946782 454.249561 
L 226.391446 456.244682 
L 228.836111 458.80601 
L 231.280775 459.889824 
L 233.725439 457.67824 
L 236.170104 451.705701 
L 238.614768 444.761723 
L 241.059433 441.547623 
L 243.504097 443.780728 
L 245.948762 448.747434 
L 248.393426 452.8369 
L 250.83809 454.386939 
L 253.282755 454.02346 
L 255.727419 453.493698 
L 258.172084 454.094199 
L 260.616748 456.222562 
L 263.061413 458.975788 
L 265.506077 460.316234 
L 267.950741 459.28257 
L 270.395406 457.204985 
L 272.84007 456.109544 
L 275.284735 456.576943 
L 280.174064 458.891874 
L 282.618728 460.508963 
L 285.063392 462.3302 
L 287.508057 463.676381 
L 289.952721 464.692321 
L 292.397386 465.863492 
L 294.84205 466.680893 
L 297.286715 466.44842 
L 299.731379 465.443553 
L 307.065372 461.840988 
L 309.510037 461.141306 
L 311.954701 460.951394 
L 314.399366 461.243046 
L 316.84403 461.780161 
L 319.288694 462.04807 
L 326.622688 461.405912 
L 329.067352 460.895913 
L 331.512017 460.191191 
L 333.956681 459.963641 
L 336.401345 460.027519 
L 338.84601 459.025322 
L 341.290674 456.38653 
L 343.735339 453.208241 
L 346.180003 450.752876 
L 348.624668 449.580008 
L 351.069332 449.766697 
L 353.513996 451.087362 
L 355.958661 453.257725 
L 358.403325 455.963818 
L 360.84799 459.004516 
L 363.292654 462.305068 
L 365.737319 465.248244 
L 368.181983 467.001017 
L 373.071312 468.711828 
L 375.515976 469.67379 
L 377.960641 470.136485 
L 380.405305 470.26845 
L 382.84997 470.866502 
L 385.294634 471.998892 
L 387.739298 472.837908 
L 390.183963 472.873907 
L 392.628627 472.401963 
L 395.073292 472.099599 
L 397.517956 472.433047 
L 399.962621 473.001621 
L 402.407285 472.809876 
L 404.851949 471.422077 
L 407.296614 469.580121 
L 409.741278 468.80425 
L 412.185943 470.019877 
L 414.630607 472.313686 
L 417.075272 473.808894 
L 419.519936 473.711402 
L 424.409265 471.806829 
L 426.853929 462.848869 
L 429.298594 462.333936 
L 429.298594 462.333936 
" clip-path="url(#pa7df40e027)" style="fill: none; stroke: #000000; stroke-width: 2.5; stroke-linecap: square"/>
   </g>
   <g id="line2d_66">
    <path d="M 186.461927 529 
L 186.461927 306.45 
" clip-path="url(#pa7df40e027)" style="fill: none; stroke-dasharray: 5.55,2.4; stroke-dashoffset: 0; stroke: #000000; stroke-width: 1.5"/>
   </g>
   <g id="patch_8">
    <path d="M 65.043594 529 
L 65.043594 306.45 
" style="fill: none; stroke: #000000; stroke-width: 0.8; stroke-linejoin: miter; stroke-linecap: square"/>
   </g>
   <g id="patch_9">
    <path d="M 429.298594 529 
L 429.298594 306.45 
" style="fill: none; stroke: #000000; stroke-width: 0.8; stroke-linejoin: miter; stroke-linecap: square"/>
   </g>
   <g id="patch_10">
    <path d="M 65.043594 529 
L 429.298594 529 
" style="fill: none; stroke: #000000; stroke-width: 0.8; stroke-linejoin: miter; stroke-linecap: square"/>
   </g>
   <g id="patch_11">
    <path d="M 65.043594 306.45 
L 429.298594 306.45 
" style="fill: none; stroke: #000000; stroke-width: 0.8; stroke-linejoin: miter; stroke-linecap: square"/>
   </g>
   <g id="text_24">
    <!-- W2 | NE -->
    <g transform="translate(214.31875 300.45) scale(0.15 -0.15)">
     <defs>
      <path id="DejaVuSans-Bold-57" d="M 191 4666 
L 1344 4666 
L 2150 1275 
L 2950 4666 
L 4109 4666 
L 4909 1275 
L 5716 4666 
L 6859 4666 
L 5759 0 
L 4372 0 
L 3525 3547 
L 2688 0 
L 1300 0 
L 191 4666 
z
" transform="scale(0.015625)"/>
      <path id="DejaVuSans-Bold-32" d="M 1844 884 
L 3897 884 
L 3897 0 
L 506 0 
L 506 884 
L 2209 2388 
Q 2438 2594 2547 2791 
Q 2656 2988 2656 3200 
Q 2656 3528 2436 3728 
Q 2216 3928 1850 3928 
Q 1569 3928 1234 3808 
Q 900 3688 519 3450 
L 519 4475 
Q 925 4609 1322 4679 
Q 1719 4750 2100 4750 
Q 2938 4750 3402 4381 
Q 3866 4013 3866 3353 
Q 3866 2972 3669 2642 
Q 3472 2313 2841 1759 
L 1844 884 
z
" transform="scale(0.015625)"/>
     </defs>
     <use xlink:href="#DejaVuSans-Bold-57"/>
     <use xlink:href="#DejaVuSans-Bold-32" x="110.302734"/>
     <use xlink:href="#DejaVuSans-Bold-20" x="179.882812"/>
     <use xlink:href="#DejaVuSans-Bold-7c" x="214.697266"/>
     <use xlink:href="#DejaVuSans-Bold-20" x="251.220703"/>
     <use xlink:href="#DejaVuSans-Bold-4e" x="286.035156"/>
     <use xlink:href="#DejaVuSans-Bold-45" x="369.726562"/>
    </g>
   </g>
  </g>
  <g id="text_25">
   <!-- Open to Closed transition trace plots Pre and W2 -->
   <g transform="translate(7.2 20.877187) scale(0.18 -0.18)">
    <defs>
     <path id="DejaVuSans-4f" d="M 2522 4238 
Q 1834 4238 1429 3725 
Q 1025 3213 1025 2328 
Q 1025 1447 1429 934 
Q 1834 422 2522 422 
Q 3209 422 3611 934 
Q 4013 1447 4013 2328 
Q 4013 3213 3611 3725 
Q 3209 4238 2522 4238 
z
M 2522 4750 
Q 3503 4750 4090 4092 
Q 4678 3434 4678 2328 
Q 4678 1225 4090 567 
Q 3503 -91 2522 -91 
Q 1538 -91 948 565 
Q 359 1222 359 2328 
Q 359 3434 948 4092 
Q 1538 4750 2522 4750 
z
" transform="scale(0.015625)"/>
     <path id="DejaVuSans-70" d="M 1159 525 
L 1159 -1331 
L 581 -1331 
L 581 3500 
L 1159 3500 
L 1159 2969 
Q 1341 3281 1617 3432 
Q 1894 3584 2278 3584 
Q 2916 3584 3314 3078 
Q 3713 2572 3713 1747 
Q 3713 922 3314 415 
Q 2916 -91 2278 -91 
Q 1894 -91 1617 61 
Q 1341 213 1159 525 
z
M 3116 1747 
Q 3116 2381 2855 2742 
Q 2594 3103 2138 3103 
Q 1681 3103 1420 2742 
Q 1159 2381 1159 1747 
Q 1159 1113 1420 752 
Q 1681 391 2138 391 
Q 2594 391 2855 752 
Q 3116 1113 3116 1747 
z
" transform="scale(0.015625)"/>
     <path id="DejaVuSans-6e" d="M 3513 2113 
L 3513 0 
L 2938 0 
L 2938 2094 
Q 2938 2591 2744 2837 
Q 2550 3084 2163 3084 
Q 1697 3084 1428 2787 
Q 1159 2491 1159 1978 
L 1159 0 
L 581 0 
L 581 3500 
L 1159 3500 
L 1159 2956 
Q 1366 3272 1645 3428 
Q 1925 3584 2291 3584 
Q 2894 3584 3203 3211 
Q 3513 2838 3513 2113 
z
" transform="scale(0.015625)"/>
     <path id="DejaVuSans-74" d="M 1172 4494 
L 1172 3500 
L 2356 3500 
L 2356 3053 
L 1172 3053 
L 1172 1153 
Q 1172 725 1289 603 
Q 1406 481 1766 481 
L 2356 481 
L 2356 0 
L 1766 0 
Q 1100 0 847 248 
Q 594 497 594 1153 
L 594 3053 
L 172 3053 
L 172 3500 
L 594 3500 
L 594 4494 
L 1172 4494 
z
" transform="scale(0.015625)"/>
     <path id="DejaVuSans-6f" d="M 1959 3097 
Q 1497 3097 1228 2736 
Q 959 2375 959 1747 
Q 959 1119 1226 758 
Q 1494 397 1959 397 
Q 2419 397 2687 759 
Q 2956 1122 2956 1747 
Q 2956 2369 2687 2733 
Q 2419 3097 1959 3097 
z
M 1959 3584 
Q 2709 3584 3137 3096 
Q 3566 2609 3566 1747 
Q 3566 888 3137 398 
Q 2709 -91 1959 -91 
Q 1206 -91 779 398 
Q 353 888 353 1747 
Q 353 2609 779 3096 
Q 1206 3584 1959 3584 
z
" transform="scale(0.015625)"/>
     <path id="DejaVuSans-43" d="M 4122 4306 
L 4122 3641 
Q 3803 3938 3442 4084 
Q 3081 4231 2675 4231 
Q 1875 4231 1450 3742 
Q 1025 3253 1025 2328 
Q 1025 1406 1450 917 
Q 1875 428 2675 428 
Q 3081 428 3442 575 
Q 3803 722 4122 1019 
L 4122 359 
Q 3791 134 3420 21 
Q 3050 -91 2638 -91 
Q 1578 -91 968 557 
Q 359 1206 359 2328 
Q 359 3453 968 4101 
Q 1578 4750 2638 4750 
Q 3056 4750 3426 4639 
Q 3797 4528 4122 4306 
z
" transform="scale(0.015625)"/>
     <path id="DejaVuSans-6c" d="M 603 4863 
L 1178 4863 
L 1178 0 
L 603 0 
L 603 4863 
z
" transform="scale(0.015625)"/>
     <path id="DejaVuSans-64" d="M 2906 2969 
L 2906 4863 
L 3481 4863 
L 3481 0 
L 2906 0 
L 2906 525 
Q 2725 213 2448 61 
Q 2172 -91 1784 -91 
Q 1150 -91 751 415 
Q 353 922 353 1747 
Q 353 2572 751 3078 
Q 1150 3584 1784 3584 
Q 2172 3584 2448 3432 
Q 2725 3281 2906 2969 
z
M 947 1747 
Q 947 1113 1208 752 
Q 1469 391 1925 391 
Q 2381 391 2643 752 
Q 2906 1113 2906 1747 
Q 2906 2381 2643 2742 
Q 2381 3103 1925 3103 
Q 1469 3103 1208 2742 
Q 947 2381 947 1747 
z
" transform="scale(0.015625)"/>
     <path id="DejaVuSans-72" d="M 2631 2963 
Q 2534 3019 2420 3045 
Q 2306 3072 2169 3072 
Q 1681 3072 1420 2755 
Q 1159 2438 1159 1844 
L 1159 0 
L 581 0 
L 581 3500 
L 1159 3500 
L 1159 2956 
Q 1341 3275 1631 3429 
Q 1922 3584 2338 3584 
Q 2397 3584 2469 3576 
Q 2541 3569 2628 3553 
L 2631 2963 
z
" transform="scale(0.015625)"/>
     <path id="DejaVuSans-61" d="M 2194 1759 
Q 1497 1759 1228 1600 
Q 959 1441 959 1056 
Q 959 750 1161 570 
Q 1363 391 1709 391 
Q 2188 391 2477 730 
Q 2766 1069 2766 1631 
L 2766 1759 
L 2194 1759 
z
M 3341 1997 
L 3341 0 
L 2766 0 
L 2766 531 
Q 2569 213 2275 61 
Q 1981 -91 1556 -91 
Q 1019 -91 701 211 
Q 384 513 384 1019 
Q 384 1609 779 1909 
Q 1175 2209 1959 2209 
L 2766 2209 
L 2766 2266 
Q 2766 2663 2505 2880 
Q 2244 3097 1772 3097 
Q 1472 3097 1187 3025 
Q 903 2953 641 2809 
L 641 3341 
Q 956 3463 1253 3523 
Q 1550 3584 1831 3584 
Q 2591 3584 2966 3190 
Q 3341 2797 3341 1997 
z
" transform="scale(0.015625)"/>
     <path id="DejaVuSans-63" d="M 3122 3366 
L 3122 2828 
Q 2878 2963 2633 3030 
Q 2388 3097 2138 3097 
Q 1578 3097 1268 2742 
Q 959 2388 959 1747 
Q 959 1106 1268 751 
Q 1578 397 2138 397 
Q 2388 397 2633 464 
Q 2878 531 3122 666 
L 3122 134 
Q 2881 22 2623 -34 
Q 2366 -91 2075 -91 
Q 1284 -91 818 406 
Q 353 903 353 1747 
Q 353 2603 823 3093 
Q 1294 3584 2113 3584 
Q 2378 3584 2631 3529 
Q 2884 3475 3122 3366 
z
" transform="scale(0.015625)"/>
     <path id="DejaVuSans-50" d="M 1259 4147 
L 1259 2394 
L 2053 2394 
Q 2494 2394 2734 2622 
Q 2975 2850 2975 3272 
Q 2975 3691 2734 3919 
Q 2494 4147 2053 4147 
L 1259 4147 
z
M 628 4666 
L 2053 4666 
Q 2838 4666 3239 4311 
Q 3641 3956 3641 3272 
Q 3641 2581 3239 2228 
Q 2838 1875 2053 1875 
L 1259 1875 
L 1259 0 
L 628 0 
L 628 4666 
z
" transform="scale(0.015625)"/>
     <path id="DejaVuSans-57" d="M 213 4666 
L 850 4666 
L 1831 722 
L 2809 4666 
L 3519 4666 
L 4500 722 
L 5478 4666 
L 6119 4666 
L 4947 0 
L 4153 0 
L 3169 4050 
L 2175 0 
L 1381 0 
L 213 4666 
z
" transform="scale(0.015625)"/>
    </defs>
    <use xlink:href="#DejaVuSans-4f"/>
    <use xlink:href="#DejaVuSans-70" x="78.710938"/>
    <use xlink:href="#DejaVuSans-65" x="142.1875"/>
    <use xlink:href="#DejaVuSans-6e" x="203.710938"/>
    <use xlink:href="#DejaVuSans-20" x="267.089844"/>
    <use xlink:href="#DejaVuSans-74" x="298.876953"/>
    <use xlink:href="#DejaVuSans-6f" x="338.085938"/>
    <use xlink:href="#DejaVuSans-20" x="399.267578"/>
    <use xlink:href="#DejaVuSans-43" x="431.054688"/>
    <use xlink:href="#DejaVuSans-6c" x="500.878906"/>
    <use xlink:href="#DejaVuSans-6f" x="528.662109"/>
    <use xlink:href="#DejaVuSans-73" x="589.84375"/>
    <use xlink:href="#DejaVuSans-65" x="641.943359"/>
    <use xlink:href="#DejaVuSans-64" x="703.466797"/>
    <use xlink:href="#DejaVuSans-20" x="766.943359"/>
    <use xlink:href="#DejaVuSans-74" x="798.730469"/>
    <use xlink:href="#DejaVuSans-72" x="837.939453"/>
    <use xlink:href="#DejaVuSans-61" x="879.052734"/>
    <use xlink:href="#DejaVuSans-6e" x="940.332031"/>
    <use xlink:href="#DejaVuSans-73" x="1003.710938"/>
    <use xlink:href="#DejaVuSans-69" x="1055.810547"/>
    <use xlink:href="#DejaVuSans-74" x="1083.59375"/>
    <use xlink:href="#DejaVuSans-69" x="1122.802734"/>
    <use xlink:href="#DejaVuSans-6f" x="1150.585938"/>
    <use xlink:href="#DejaVuSans-6e" x="1211.767578"/>
    <use xlink:href="#DejaVuSans-20" x="1275.146484"/>
    <use xlink:href="#DejaVuSans-74" x="1306.933594"/>
    <use xlink:href="#DejaVuSans-72" x="1346.142578"/>
    <use xlink:href="#DejaVuSans-61" x="1387.255859"/>
    <use xlink:href="#DejaVuSans-63" x="1448.535156"/>
    <use xlink:href="#DejaVuSans-65" x="1503.515625"/>
    <use xlink:href="#DejaVuSans-20" x="1565.039062"/>
    <use xlink:href="#DejaVuSans-70" x="1596.826172"/>
    <use xlink:href="#DejaVuSans-6c" x="1660.302734"/>
    <use xlink:href="#DejaVuSans-6f" x="1688.085938"/>
    <use xlink:href="#DejaVuSans-74" x="1749.267578"/>
    <use xlink:href="#DejaVuSans-73" x="1788.476562"/>
    <use xlink:href="#DejaVuSans-20" x="1840.576172"/>
    <use xlink:href="#DejaVuSans-50" x="1872.363281"/>
    <use xlink:href="#DejaVuSans-72" x="1930.916016"/>
    <use xlink:href="#DejaVuSans-65" x="1969.779297"/>
    <use xlink:href="#DejaVuSans-20" x="2031.302734"/>
    <use xlink:href="#DejaVuSans-61" x="2063.089844"/>
    <use xlink:href="#DejaVuSans-6e" x="2124.369141"/>
    <use xlink:href="#DejaVuSans-64" x="2187.748047"/>
    <use xlink:href="#DejaVuSans-20" x="2251.224609"/>
    <use xlink:href="#DejaVuSans-57" x="2283.011719"/>
    <use xlink:href="#DejaVuSans-32" x="2381.888672"/>
   </g>
  </g>
 </g>
 <defs>
  <clipPath id="p2b42828f66">
   <rect x="65.043594" y="52.08" width="364.255" height="222.55"/>
  </clipPath>
  <clipPath id="pa7df40e027">
   <rect x="65.043594" y="306.45" width="364.255" height="222.55"/>
  </clipPath>
 </defs>
</svg>
